<svg width="45" height="45" viewBox="0 0 45 45" fill="none" xmlns="http://www.w3.org/2000/svg">
<g clip-path="url(#clip0_956_36899)">
<path d="M22.239 35.7483C21.999 35.7483 21.759 35.6565 21.5752 35.4746L9.52458 23.424C9.17208 23.0715 9.15708 22.5071 9.48708 22.1359L18.519 12.0184C24.8321 4.63273 35.1127 -0.146649 44.0771 0.00522566C44.5777 0.0164757 44.9808 0.419601 44.9921 0.920226C45.2002 9.89022 40.3665 20.1652 32.9621 26.4915L22.8615 35.5102C22.6852 35.6696 22.4602 35.7483 22.239 35.7483ZM11.4765 22.7246L22.2746 33.5227L31.7302 25.0815C38.4915 19.3027 42.9821 10.0927 43.1208 1.87835C34.9065 2.01523 25.6983 6.50585 19.9308 13.2521L11.4765 22.7246Z" fill="white"/>
<path d="M25.8304 42.6112C25.7404 42.6112 25.6485 42.5981 25.5623 42.57C25.2248 42.4575 24.9473 42.1987 24.8985 41.8462L23.6123 32.8706C23.5392 32.3587 23.8954 31.8843 24.4073 31.8094C24.9192 31.7287 25.3935 32.0906 25.4685 32.6043L26.4735 39.6168C29.7585 35.6887 31.5848 30.7087 31.5848 25.6312C31.5848 25.1137 32.0048 24.6937 32.5223 24.6937C33.0398 24.6937 33.4598 25.1137 33.4598 25.6312C33.4598 31.8431 30.9435 37.9237 26.556 42.3093C26.3685 42.4968 26.0948 42.6112 25.8304 42.6112Z" fill="white"/>
<path d="M12.2641 21.3975C12.221 21.3975 12.176 21.3956 12.131 21.3881L3.15539 20.1019C2.80289 20.0513 2.50851 19.8056 2.39789 19.4663C2.28726 19.1288 2.37726 18.7556 2.63039 18.5063C7.07976 14.0569 13.1585 11.5406 19.3704 11.5406C19.8879 11.5406 20.3079 11.9606 20.3079 12.4781C20.3079 12.9956 19.8879 13.4156 19.3704 13.4156C14.2685 13.4156 9.26226 15.2588 5.37539 18.525L12.3973 19.5319C12.9091 19.6069 13.2654 20.0794 13.1923 20.5931C13.1229 21.06 12.7216 21.3975 12.2641 21.3975Z" fill="white"/>
<path d="M32.1239 17.5612C30.922 17.5612 29.722 17.1037 28.8089 16.1905C26.9826 14.3624 26.9826 11.3887 28.8089 9.56055C30.637 7.73242 33.6108 7.73242 35.4389 9.56055C37.2651 11.3887 37.2651 14.3624 35.4389 16.1905C34.5239 17.1055 33.3239 17.5612 32.1239 17.5612ZM32.1239 10.0649C31.4039 10.0649 30.682 10.3387 30.1345 10.8862C29.0395 11.983 29.0395 13.768 30.1345 14.8649C31.2314 15.9599 33.0164 15.958 34.1133 14.8649C35.2083 13.768 35.2083 11.983 34.1133 10.8862C33.5639 10.3405 32.8439 10.0649 32.1239 10.0649ZM34.7751 15.5287H34.7939H34.7751Z" fill="white"/>
<path d="M0.93766 45.0003C0.692035 45.0003 0.45391 44.9046 0.27391 44.7265C0.0301599 44.4828 -0.0598401 44.1246 0.0395348 43.7946C0.347035 42.769 3.10141 33.7053 5.10766 31.699C7.36703 29.4396 11.0439 29.4378 13.3033 31.699C15.5627 33.9584 15.5627 37.6353 13.3033 39.8946C11.297 41.9009 2.23328 44.6553 1.20766 44.9628C1.11766 44.9871 1.02766 45.0003 0.93766 45.0003ZM9.20641 31.8771C8.20141 31.8771 7.19829 32.2596 6.43328 33.0228C5.35141 34.1065 3.55141 38.9459 2.36266 42.6378C6.05266 41.449 10.8939 39.649 11.9758 38.5671C13.5039 37.039 13.5039 34.5509 11.9758 33.0228C11.2127 32.2596 10.2095 31.8771 9.20641 31.8771Z" fill="white"/>
</g>
<defs>
<clipPath id="clip0_956_36899">
<rect width="45" height="45" fill="white"/>
</clipPath>
</defs>
</svg>
