<svg width="45" height="45" viewBox="0 0 45 45" fill="none" xmlns="http://www.w3.org/2000/svg">
<g clip-path="url(#clip0_956_36911)">
<path d="M38.438 45H6.56299C5.01236 45 3.75049 43.7381 3.75049 42.1875V23.4375C3.75049 22.92 4.17049 22.5 4.68799 22.5H40.313C40.8305 22.5 41.2505 22.92 41.2505 23.4375V42.1875C41.2505 43.7381 39.9886 45 38.438 45ZM5.62549 24.375V42.1875C5.62549 42.7031 6.04736 43.125 6.56299 43.125H38.438C38.9536 43.125 39.3755 42.7031 39.3755 42.1875V24.375H5.62549Z" fill="white"/>
<path d="M42.1875 24.3752H2.8125C1.26187 24.3752 0 23.1134 0 21.5627V15.9377C0 14.3871 1.26187 13.1252 2.8125 13.1252H42.1875C43.7381 13.1252 45 14.3871 45 15.9377V21.5627C45 23.1134 43.7381 24.3752 42.1875 24.3752ZM2.8125 15.0002C2.29688 15.0002 1.875 15.4221 1.875 15.9377V21.5627C1.875 22.0784 2.29688 22.5002 2.8125 22.5002H42.1875C42.7031 22.5002 43.125 22.0784 43.125 21.5627V15.9377C43.125 15.4221 42.7031 15.0002 42.1875 15.0002H2.8125Z" fill="white"/>
<path d="M22.5004 15C22.2285 15 21.9698 14.8837 21.7917 14.6756C21.6135 14.4712 21.5329 14.1994 21.5723 13.9312C21.5929 13.7906 23.6892 0 34.6879 0C39.5329 0 41.2523 2.6175 41.2523 4.85812C41.2523 9.06938 35.4342 15 22.5004 15ZM34.6879 1.875C26.9779 1.875 24.3492 10.0969 23.646 13.1062C33.9192 12.7875 39.3773 8.20125 39.3773 4.85812C39.3773 4.02562 39.0267 3.33937 38.3385 2.82375C37.5135 2.20312 36.2498 1.875 34.6879 1.875Z" fill="white"/>
<path d="M22.5024 15C9.56861 15 3.75049 9.06938 3.75049 4.85812C3.75049 3.44437 4.38611 2.18812 5.53736 1.32375C6.69049 0.4575 8.34236 0 10.3149 0C21.3136 0 23.4099 13.7906 23.4305 13.9312C23.4699 14.2012 23.3892 14.4712 23.2111 14.6756C23.033 14.8837 22.7742 15 22.5024 15ZM10.3149 1.875C7.42174 1.875 5.62549 3.01688 5.62549 4.85812C5.62549 8.20312 11.0874 12.7894 21.3661 13.1081C20.6855 10.08 18.1224 1.875 10.3149 1.875Z" fill="white"/>
<path d="M22.4995 45.0002C21.982 45.0002 21.562 44.5802 21.562 44.0627V14.0627C21.562 13.5452 21.982 13.1252 22.4995 13.1252C23.017 13.1252 23.437 13.5452 23.437 14.0627V44.0627C23.437 44.5802 23.017 45.0002 22.4995 45.0002Z" fill="white"/>
</g>
<defs>
<clipPath id="clip0_956_36911">
<rect width="45" height="45" fill="white"/>
</clipPath>
</defs>
</svg>
