<svg width="45" height="45" viewBox="0 0 45 45" fill="none" xmlns="http://www.w3.org/2000/svg">
<path d="M17.2503 30.7496H14.2508V27.7496C14.2508 27.3354 13.915 26.9996 13.5009 26.9996H10.5013C10.0872 26.9996 9.75141 27.3354 9.75141 27.7496V30.7496H6.75184C6.33772 30.7496 6.00195 31.0854 6.00195 31.4996V34.4995C6.00195 34.9137 6.33772 35.2495 6.75184 35.2495H9.75141V38.2495C9.75141 38.6637 10.0872 38.9995 10.5013 38.9995H13.5009C13.915 38.9995 14.2508 38.6637 14.2508 38.2495V35.2495H17.2503C17.6645 35.2495 18.0002 34.9137 18.0002 34.4995V31.4996C18.0002 31.0854 17.6645 30.7496 17.2503 30.7496ZM16.5004 33.7495H13.5009C13.0867 33.7495 12.751 34.0854 12.751 34.4995V37.4995H11.2512V34.4995C11.2512 34.0854 10.9154 33.7495 10.5013 33.7495H7.50174V32.2496H10.5013C10.9154 32.2496 11.2512 31.9138 11.2512 31.4996V28.4996H12.751V31.4996C12.751 31.9138 13.0867 32.2496 13.5009 32.2496H16.5004V33.7495Z" fill="white"/>
<path d="M44.9216 31.6293C44.3465 26.4611 39.4932 21.626 34.3212 21.0747C33.8819 21.0263 33.4403 21.0012 32.9984 20.9997H24.7496V17.9998H23.2498V16.4998C23.2498 14.843 21.9068 13.4998 20.2502 13.4998H16.5008C15.6724 13.4998 15.001 12.8283 15.001 11.9998C15.001 11.1714 15.6724 10.4999 16.5008 10.4999H28.499C30.1556 10.4999 31.4986 9.15672 31.4986 7.4999C31.4986 5.84308 30.1556 4.49994 28.499 4.49994H24.7496C23.9212 4.49994 23.2498 3.82842 23.2498 2.99996V0H21.75V2.99996C21.75 4.65678 23.093 5.99992 24.7496 5.99992H28.499C29.3274 5.99992 29.9988 6.67144 29.9988 7.4999C29.9988 8.32836 29.3274 8.99988 28.499 8.99988H16.5008C14.8442 8.99988 13.5012 10.343 13.5012 11.9998C13.5012 13.6567 14.8442 14.9998 16.5008 14.9998H20.2502C21.0786 14.9998 21.75 15.6713 21.75 16.4998V17.9998H20.2502V20.9997H12.0014C11.559 21.0008 11.1168 21.0258 10.6771 21.0747C5.50286 21.6297 0.652567 26.4649 0.0789008 31.6331C-0.674458 38.2174 4.05173 44.166 10.6353 44.9194C13.3162 45.2263 16.0221 44.6203 18.3162 43.1995C19.3039 42.5528 20.4329 42.1538 21.6075 42.0363C22.1877 41.9904 22.7705 41.9884 23.351 42.0303C24.5442 42.1457 25.6913 42.5493 26.694 43.2063C32.3309 46.6904 39.7245 44.9447 43.2081 39.307C44.6256 37.013 45.2293 34.3084 44.9216 31.6293ZM21.75 19.4997H23.2498V20.9997H21.75V19.4997ZM40.8235 40C37.4331 43.7927 31.8109 44.6066 27.4844 41.9312C26.2762 41.1444 24.8941 40.6647 23.4583 40.534C23.1418 40.511 22.8223 40.4995 22.4999 40.4995C22.1587 40.4995 21.825 40.5137 21.489 40.54C20.075 40.6754 18.7147 41.1504 17.5236 41.9244C12.5929 44.9755 6.12274 43.4513 3.072 38.52C1.83008 36.5124 1.30085 34.1449 1.56968 31.7996C2.06311 27.3581 6.39298 23.0442 10.8383 22.5665C11.2245 22.5232 11.6128 22.501 12.0014 22.4997H32.9984C33.3869 22.5 33.7752 22.5207 34.1614 22.562C38.606 23.0397 42.9352 27.3536 43.4301 31.7951C43.7837 34.7779 42.8337 37.7683 40.8235 40Z" fill="white"/>
<path d="M32.9981 25.4995C31.3415 25.4995 29.9985 26.8427 29.9985 28.4995C29.9985 30.1563 31.3415 31.4994 32.9981 31.4994C34.6547 31.4994 35.9977 30.1563 35.9977 28.4995C35.9977 26.8427 34.6547 25.4995 32.9981 25.4995ZM32.9981 29.9995C32.1698 29.9995 31.4983 29.3279 31.4983 28.4995C31.4983 27.671 32.1698 26.9995 32.9981 26.9995C33.8265 26.9995 34.4979 27.671 34.4979 28.4995C34.4979 29.3279 33.8264 29.9995 32.9981 29.9995Z" fill="white"/>
<path d="M32.9981 34.4998C31.3415 34.4998 29.9985 35.8429 29.9985 37.4997C29.9985 39.1565 31.3415 40.4997 32.9981 40.4997C34.6547 40.4997 35.9977 39.1565 35.9977 37.4997C35.9977 35.8429 34.6547 34.4998 32.9981 34.4998ZM32.9981 38.9997C32.1698 38.9997 31.4983 38.3282 31.4983 37.4997C31.4983 36.6713 32.1698 35.9997 32.9981 35.9997C33.8265 35.9997 34.4979 36.6713 34.4979 37.4997C34.4979 38.3282 33.8264 38.9997 32.9981 38.9997Z" fill="white"/>
<path d="M27.7486 29.9994C26.092 29.9994 24.749 31.3425 24.749 32.9994C24.749 34.6562 26.092 35.9993 27.7486 35.9993C29.4052 35.9993 30.7482 34.6562 30.7482 32.9994C30.7482 31.3425 29.4052 29.9994 27.7486 29.9994ZM27.7486 34.4993C26.9202 34.4993 26.2488 33.8278 26.2488 32.9994C26.2488 32.1709 26.9202 31.4994 27.7486 31.4994C28.5769 31.4994 29.2484 32.1709 29.2484 32.9994C29.2484 33.8278 28.5768 34.4993 27.7486 34.4993Z" fill="white"/>
<path d="M38.2471 29.9994C36.5905 29.9994 35.2476 31.3425 35.2476 32.9994C35.2476 34.6562 36.5905 35.9993 38.2471 35.9993C39.9037 35.9993 41.2467 34.6562 41.2467 32.9994C41.2467 31.3425 39.9037 29.9994 38.2471 29.9994ZM38.2471 34.4993C37.4188 34.4993 36.7473 33.8278 36.7473 32.9994C36.7473 32.1709 37.4188 31.4994 38.2471 31.4994C39.0755 31.4994 39.7469 32.1709 39.7469 32.9994C39.7469 33.8278 39.0754 34.4993 38.2471 34.4993Z" fill="white"/>
</svg>
