<svg width="40" height="40" viewBox="0 0 40 40" fill="none" xmlns="http://www.w3.org/2000/svg">
<path d="M30 8H6V32H34.8V8H30ZM9.84 31.04H6.96V28.16H9.84V31.04ZM9.84 27.2H6.96V24.32H9.84V27.2ZM9.84 23.36H6.96V20.48H9.84V23.36ZM9.84 19.52H6.96V16.64H9.84V19.52ZM9.84 15.68H6.96V12.8H9.84V15.68ZM9.84 11.84H6.96V8.96H9.84V11.84ZM30 31.04H10.8V8.96H30V31.04ZM33.84 31.04H30.96V28.16H33.84V31.04ZM33.84 27.2H30.96V24.32H33.84V27.2ZM33.84 23.36H30.96V20.48H33.84V23.36ZM33.84 19.52H30.96V16.64H33.84V19.52ZM33.84 15.68H30.96V12.8H33.84V15.68ZM33.84 11.84H30.96V8.96H33.84V11.84Z" fill="black"/>
<path d="M24.1778 19.7601C24.1354 19.6859 24.0738 19.6244 23.9996 19.5819L17.2796 15.7419C17.05 15.6093 16.7564 15.688 16.6239 15.9176C16.5814 15.9912 16.5592 16.0749 16.5596 16.16V23.84C16.5598 24.0113 16.6512 24.1695 16.7996 24.2552C16.9481 24.3409 17.1311 24.3409 17.2796 24.2552L23.9996 20.4152C24.2297 20.2835 24.3095 19.9903 24.1778 19.7601ZM17.5196 23.0124V16.9875L22.7919 20L17.5196 23.0124Z" fill="black"/>
</svg>
