<svg width="40" height="40" viewBox="0 0 40 40" fill="none" xmlns="http://www.w3.org/2000/svg">
<circle cx="20" cy="20" r="15.5" stroke="black"/>
<path d="M31.5 20C31.5 24.3206 30.1859 28.2128 28.0853 31.0137C25.9847 33.8144 23.121 35.5 20 35.5C16.879 35.5 14.0153 33.8144 11.9147 31.0137C9.81406 28.2128 8.5 24.3206 8.5 20C8.5 15.6794 9.81406 11.7872 11.9147 8.98629C14.0153 6.18557 16.879 4.5 20 4.5C23.121 4.5 25.9847 6.18557 28.0853 8.98629C30.1859 11.7872 31.5 15.6794 31.5 20Z" stroke="black"/>
<path d="M25.5 20C25.5 24.3742 24.8343 28.312 23.7745 31.1381C23.2439 32.5531 22.6241 33.6634 21.9613 34.4109C21.298 35.1591 20.6341 35.5 20 35.5C19.3659 35.5 18.702 35.1591 18.0387 34.4109C17.3759 33.6634 16.7561 32.5531 16.2255 31.1381C15.1657 28.312 14.5 24.3742 14.5 20C14.5 15.6258 15.1657 11.688 16.2255 8.86185C16.7561 7.44694 17.3759 6.33665 18.0387 5.58906C18.702 4.8409 19.3659 4.5 20 4.5C20.6341 4.5 21.298 4.8409 21.9613 5.58906C22.6241 6.33665 23.2439 7.44694 23.7745 8.86185C24.8343 11.688 25.5 15.6258 25.5 20Z" stroke="black"/>
<rect x="19.5" y="5" width="1" height="30" fill="#100D23"/>
<rect x="34" y="13" width="1" height="28" transform="rotate(90 34 13)" fill="#100D23"/>
<rect x="34" y="26" width="1" height="28" transform="rotate(90 34 26)" fill="#100D23"/>
</svg>
