<svg width="13" height="13" viewBox="0 0 13 13" fill="none" xmlns="http://www.w3.org/2000/svg">
<path d="M7.07169e-05 4.86641C-0.00170291 4.97618 0.0299233 5.0839 0.0907581 5.17529C0.151593 5.26668 0.238764 5.33743 0.340718 5.37815L5.54143 7.45855L7.62177 12.6594C7.66196 12.7599 7.73138 12.8462 7.82107 12.9069C7.91076 12.9676 8.0166 13 8.12491 13H8.13368C8.24337 12.9982 8.34991 12.9631 8.43925 12.8995C8.52859 12.8358 8.59652 12.7466 8.63407 12.6435L12.9673 0.726954C13.0026 0.630051 13.0095 0.52509 12.9872 0.424409C12.9648 0.323728 12.9142 0.231511 12.8413 0.158599C12.7684 0.0856865 12.6761 0.0351092 12.5755 0.012812C12.4748 -0.00948511 12.3698 -0.00257518 12.2729 0.0327295L0.35648 4.36588C0.253411 4.40346 0.164167 4.47142 0.100533 4.56079C0.0368996 4.65015 0.00187003 4.75672 7.07169e-05 4.86641Z" fill="white"/>
</svg>
