<svg width="195" height="37" viewBox="0 0 195 37" fill="none" xmlns="http://www.w3.org/2000/svg">
<path fill-rule="evenodd" clip-rule="evenodd" d="M87.8622 24.1719H85.5543L82.7974 26.9231V24.1719H80.8457V31.753H82.7974V28.6197L85.6009 31.753H87.9552L84.3307 27.6873L87.8622 24.1719Z" fill="white"/>
<path fill-rule="evenodd" clip-rule="evenodd" d="M25.9123 26.1662H23.0932V22.8037H25.9123C27.3372 22.8037 27.9878 23.4761 27.9878 24.4849C27.9878 25.4937 27.3372 26.1662 25.9123 26.1662ZM25.9742 21H21.0488V31.6992H23.0932V27.9698H25.9742C28.4215 27.9698 30.0324 26.7318 30.0324 24.4849C30.0324 22.238 28.4215 21 25.9742 21Z" fill="white"/>
<path fill-rule="evenodd" clip-rule="evenodd" d="M34.6936 30.1821C33.5476 30.1821 32.4787 29.372 32.4787 27.981C32.4787 26.5902 33.5476 25.7802 34.6936 25.7802C35.8398 25.7802 36.9085 26.5902 36.9085 27.981C36.9085 29.372 35.8398 30.1821 34.6936 30.1821ZM34.6936 23.9766C32.5872 23.9766 30.4961 25.3217 30.4961 27.981C30.4961 30.6408 32.5872 31.9856 34.6936 31.9856C36.8002 31.9856 38.8912 30.6408 38.8912 27.981C38.8912 25.3217 36.8002 23.9766 34.6936 23.9766Z" fill="white"/>
<path fill-rule="evenodd" clip-rule="evenodd" d="M43.8748 30.1821C42.6977 30.1821 41.8303 29.3414 41.8303 27.981C41.8303 26.636 42.7286 25.7802 43.8748 25.7802C44.5719 25.7802 45.1759 26.1012 45.656 26.8195L47.3288 25.8718C46.7713 24.6948 45.5631 23.9766 43.8903 23.9766C41.7064 23.9766 39.8477 25.5662 39.8477 27.981C39.8477 30.396 41.6135 31.9856 43.8903 31.9856C45.5321 31.9856 46.6318 31.2521 47.4063 29.9529L45.7955 29.0817C45.3308 29.7236 44.8351 30.1821 43.8748 30.1821Z" fill="white"/>
<path fill-rule="evenodd" clip-rule="evenodd" d="M64.5789 28.4669C64.486 29.6284 64.2534 29.8884 63.8506 29.8884C63.5755 29.8884 63.4462 29.8582 63.2578 29.8095L63.2676 31.7715C63.2676 31.7715 63.5102 31.8446 63.9593 31.8446C65.6166 31.8446 66.2361 30.79 66.3911 28.5432L66.577 25.899H68.7763V31.7377H70.728V24.1719H64.9041L64.5789 28.4669Z" fill="white"/>
<path fill-rule="evenodd" clip-rule="evenodd" d="M56.9247 26.9724C57.2035 26.1164 57.9779 25.4439 59.0002 25.4439C60.0845 25.4439 60.8125 26.0247 60.9983 26.9724H56.9247ZM59.0622 23.9766C56.8318 23.9766 55.0195 25.5814 55.0195 27.981C55.0195 30.3808 56.8318 31.9856 58.9692 31.9856C60.6576 31.9856 61.7263 31.359 62.5007 30.0598L60.9517 29.2956C60.4716 29.8917 60.0379 30.3348 59.0002 30.3348C57.8541 30.3348 57.0177 29.6013 56.8937 28.4397H62.8104V27.7671C62.8104 25.5509 61.2616 23.9766 59.0622 23.9766Z" fill="white"/>
<path fill-rule="evenodd" clip-rule="evenodd" d="M73.7977 26.9724C74.0765 26.1164 74.8509 25.4439 75.8732 25.4439C76.9574 25.4439 77.6854 26.0247 77.8713 26.9724H73.7977ZM75.9352 23.9766C73.7047 23.9766 71.8926 25.5814 71.8926 27.981C71.8926 30.3808 73.7047 31.9856 75.8423 31.9856C77.5305 31.9856 78.5992 31.359 79.3737 30.0598L77.8249 29.2956C77.3446 29.8917 76.911 30.3348 75.8732 30.3348C74.727 30.3348 73.8906 29.6013 73.7668 28.4397H79.6835V27.7671C79.6835 25.5509 78.1345 23.9766 75.9352 23.9766Z" fill="white"/>
<path fill-rule="evenodd" clip-rule="evenodd" d="M47.9844 25.8531H50.2768V31.753H52.2282V25.8531H54.5208V24.1719H47.9844V25.8531Z" fill="white"/>
<path fill-rule="evenodd" clip-rule="evenodd" d="M91.7776 30.1821C90.6314 30.1821 89.5627 29.372 89.5627 27.981C89.5627 26.5902 90.6314 25.7802 91.7776 25.7802C92.9238 25.7802 93.9925 26.5902 93.9925 27.981C93.9925 29.372 92.9238 30.1821 91.7776 30.1821ZM91.7776 23.9766C89.6712 23.9766 87.5801 25.3216 87.5801 27.981C87.5801 30.6406 89.6712 31.9856 91.7776 31.9856C93.8841 31.9856 95.9752 30.6406 95.9752 27.981C95.9752 25.3216 93.8841 23.9766 91.7776 23.9766Z" fill="white"/>
<path fill-rule="evenodd" clip-rule="evenodd" d="M103.813 24.1719L101.694 29.4813L99.5763 24.1719H97.0254V31.7393H98.8805V26.9486L100.937 31.7393H102.452L104.508 26.9486V31.7393H106.364V24.1719H103.813Z" fill="white"/>
<path fill-rule="evenodd" clip-rule="evenodd" d="M17.3392 36.9946C10.8048 31.084 7.53747 28.1288 7.53733 28.1289L1.14649 34.0394C0.489073 34.85 0.658941 36.0056 1.5259 36.6203C1.8684 36.8632 2.28644 36.9946 2.71627 36.9946C2.72699 36.9946 2.73772 36.9946 2.74844 36.9946C7.61203 36.9946 12.4756 36.9946 17.3392 36.9946Z" fill="#FF4F12"/>
<path fill-rule="evenodd" clip-rule="evenodd" d="M23.7032 13.2985L9.4813 0L1.54094 7.73417C0.552156 8.69728 0 9.98063 0 11.3157L0 33.9851C0 35.6173 1.41497 36.9404 3.16043 36.9404C2.07907 36.9404 1.20244 36.1207 1.20244 35.1095C1.20244 34.6227 1.40975 34.156 1.77856 33.8125" fill="#7800FF"/>
<path d="M131.358 20.4545C131.358 18.8089 130.354 17.8395 129.019 17.8395C127.681 17.8395 126.68 18.8089 126.68 20.4545C126.68 22.0977 127.681 23.0696 129.019 23.0696C130.354 23.0696 131.358 22.1001 131.358 20.4545ZM130.431 20.4545C130.431 21.6129 129.849 22.2418 129.019 22.2418C128.191 22.2418 127.607 21.6129 127.607 20.4545C127.607 19.2962 128.191 18.6673 129.019 18.6673C129.849 18.6673 130.431 19.2962 130.431 20.4545ZM134.154 18.4759C132.965 18.4759 132.1 19.2962 132.1 20.5391C132.1 21.7596 132.956 22.5575 134.154 22.5575H134.226V23.2088H135.113V22.5575H135.183C136.376 22.5575 137.231 21.7496 137.231 20.5366C137.231 19.2962 136.376 18.4759 135.183 18.4759H135.113V17.8196H134.226V18.4759H134.154ZM134.154 19.2564H134.226V21.777H134.154C133.435 21.777 132.973 21.3345 132.973 20.5391C132.973 19.7113 133.428 19.2564 134.154 19.2564ZM135.113 19.2564H135.185C135.909 19.2564 136.356 19.7138 136.356 20.5366C136.356 21.3271 135.909 21.777 135.185 21.777H135.113V19.2564ZM138.106 17.9091V23H138.926L141.325 19.5323H141.367V23H142.29V17.9091H141.464L139.068 21.3793H139.023V17.9091H138.106ZM148.008 22.2294H147.361V17.9091H146.469V22.2344H144.182V17.9091H143.297V23H147.046V24.2031H147.941L148.008 22.2294ZM148.756 17.9091V23H149.577L151.976 19.5323H152.018V23H152.94V17.9091H152.115L149.718 21.3793H149.674V17.9091H148.756ZM154.601 23L155.021 21.7447H156.935L157.358 23H158.342L156.548 17.9091H155.409L153.617 23H154.601ZM155.27 21.0039L155.958 18.9531H155.998L156.687 21.0039H155.27ZM158.682 23H158.931C160.122 23 160.452 22.1971 160.524 20.5241L160.604 18.6673H162.177V23H163.08V17.9091H159.744L159.659 20.2383C159.604 21.6825 159.411 22.1946 158.826 22.2269L158.682 22.2344V23ZM165.02 19.8754V17.9091H164.095V23H166.002C167.172 23 167.871 22.3512 167.871 21.4141C167.871 20.4794 167.172 19.8754 166.002 19.8754H165.02ZM165.02 20.6261H166.002C166.618 20.6261 166.959 20.9741 166.959 21.4041C166.959 21.8516 166.618 22.2443 166.002 22.2443H165.02V20.6261ZM168.768 23H169.69V20.8374H172.049V23H172.974V17.9091H172.049V20.0643H169.69V17.9091H168.768V23ZM174.911 19.8754V17.9091H173.987V23H175.893C177.064 23 177.763 22.3512 177.763 21.4141C177.763 20.4794 177.064 19.8754 175.893 19.8754H174.911ZM179.127 17.9091H178.205V23H179.127V17.9091ZM174.911 20.6261H175.893C176.51 20.6261 176.85 20.9741 176.85 21.4041C176.85 21.8516 176.51 22.2443 175.893 22.2443H174.911V20.6261ZM180.127 17.9091V23H180.947L183.346 19.5323H183.388V23H184.31V17.9091H183.485L181.089 21.3793H181.044V17.9091H180.127ZM182.709 16.5966C182.707 16.8402 182.568 17.0565 182.217 17.0565C181.862 17.0565 181.727 16.8352 181.727 16.5966H181.059C181.056 17.1783 181.506 17.571 182.217 17.571C182.933 17.571 183.383 17.1783 183.383 16.5966H182.709ZM126.478 32.228H127.363V31H130.607V32.223H131.492V30.2468H130.925V25.9091H127.671L127.537 28.0618C127.455 29.4339 127.164 29.9734 126.819 30.2468H126.478V32.228ZM127.893 30.2468C128.164 29.8018 128.36 29.1033 128.422 28.0618L128.502 26.6822H130.04V30.2468H127.893ZM132.241 25.9091V31H133.061L135.46 27.5323H135.502V31H136.424V25.9091H135.599L133.203 29.3793H133.158V25.9091H132.241ZM137.101 31H137.35C138.54 31 138.871 30.1971 138.943 28.5241L139.023 26.6673H140.596V31H141.499V25.9091H138.163L138.078 28.2383C138.023 29.6825 137.83 30.1946 137.245 30.2269L137.101 30.2344V31ZM142.504 31H145.835V30.2269H143.426V28.8374H145.644V28.0643H143.426V26.6822H145.815V25.9091H142.504V31ZM146.756 31H147.678V29.2798H148.653C149.828 29.2798 150.46 28.5739 150.46 27.5945C150.46 26.6225 149.836 25.9091 148.665 25.9091H146.756V31ZM147.678 28.5217V26.6797H148.523C149.214 26.6797 149.52 27.0526 149.52 27.5945C149.52 28.1364 149.214 28.5217 148.528 28.5217H147.678Z" fill="#EFEFF0"/>
<path d="M116.336 11V37" stroke="#EFEFF0" stroke-width="0.3"/>
</svg>
