<svg width="40" height="40" viewBox="0 0 40 40" fill="none" xmlns="http://www.w3.org/2000/svg">
<g clip-path="url(#clip0)">
<path d="M23.0998 5.65002H17.5998C17.2962 5.65002 17.0498 5.89643 17.0498 6.2C17.0498 6.50358 17.2962 6.74998 17.5998 6.74998H23.0998C23.4033 6.74998 23.6497 6.50358 23.6497 6.2C23.6497 5.89643 23.4033 5.65002 23.0998 5.65002Z" fill="black"/>
<path d="M26.9496 5.65002H26.3996C26.096 5.65002 25.8496 5.89643 25.8496 6.2C25.8496 6.50358 26.096 6.74998 26.3996 6.74998H26.9496C27.2531 6.74998 27.4995 6.50358 27.4995 6.2C27.4995 5.89643 27.2531 5.65002 26.9496 5.65002Z" fill="black"/>
<path d="M21.0334 32.05H19.6678C18.8313 32.05 18.1504 32.7309 18.1504 33.5675V33.8331C18.1504 34.6697 18.8313 35.35 19.6673 35.35H21.0329C21.8695 35.35 22.5503 34.6697 22.5503 33.8331V33.5675C22.5503 32.7309 21.8695 32.05 21.0334 32.05ZM21.4504 33.8331C21.4504 34.063 21.2634 34.25 21.0335 34.25H19.6678C19.4374 34.25 19.2503 34.063 19.2503 33.8331V33.5675C19.2503 33.337 19.4373 33.15 19.6678 33.15H21.0329C21.2634 33.15 21.4504 33.337 21.4504 33.5675V33.8331Z" fill="black"/>
<path d="M27.7123 4H12.9883C11.8921 4 11 4.8921 11 5.98825V35.0118C11 36.1079 11.8921 37 12.9883 37H27.7117C28.8079 37 29.7 36.1079 29.7 35.0123V5.98825C29.7 4.8921 28.8079 4 27.7123 4ZM28.6 35.0118C28.6 35.5013 28.2018 35.9 27.7123 35.9H12.9883C12.4982 35.9 12.1 35.5012 12.1 35.0123V5.98825C12.1 5.49873 12.4982 5.10002 12.9883 5.10002H27.7117C28.2018 5.10002 28.6 5.49879 28.6 5.98825V35.0118H28.6Z" fill="black"/>
<path d="M29.1499 7.30005H11.55C11.2464 7.30005 11 7.54645 11 7.85003V30.95C11 31.2536 11.2464 31.5 11.55 31.5H29.15C29.4536 31.5 29.7 31.2536 29.7 30.95V7.85003C29.7 7.54645 29.4536 7.30005 29.1499 7.30005ZM28.6 30.4H12.1V8.40007H28.6V30.4Z" fill="black"/>
</g>
<defs>
<clipPath id="clip0">
<rect width="40" height="40" fill="white"/>
</clipPath>
</defs>
</svg>
