<svg width="26" height="26" viewBox="0 0 26 26" fill="none" xmlns="http://www.w3.org/2000/svg">
<path d="M10.7048 25.3244C10.5832 25.3247 10.4621 25.3091 10.3446 25.2781C9.69226 25.1038 9.29125 24.4953 8.90341 23.9068C8.69364 23.5234 8.40745 23.1871 8.06253 22.9186C7.6512 22.7492 7.20931 22.6667 6.76456 22.6761C6.0676 22.6335 5.34801 22.5879 4.87976 22.1207C4.41152 21.6534 4.36693 20.9325 4.32402 20.2359C4.33299 19.7916 4.2503 19.3502 4.08111 18.9392C3.81276 18.594 3.47629 18.3077 3.0926 18.098C2.50409 17.7102 1.89564 17.3092 1.72166 16.6568C1.55274 16.0311 1.87199 15.3936 2.17909 14.7767C2.41524 14.3869 2.56747 13.9521 2.62605 13.5001C2.56723 13.0485 2.41501 12.6142 2.17909 12.2247C1.87199 11.6082 1.55443 10.9703 1.72166 10.3446C1.89564 9.69228 2.50443 9.29127 3.0926 8.90343C3.47626 8.69386 3.81273 8.40764 4.08111 8.06255C4.25036 7.65118 4.33293 7.20931 4.32368 6.76458C4.36693 6.0683 4.41118 5.34836 4.87943 4.87978C5.34767 4.4112 6.0676 4.36694 6.76422 4.32404C7.20853 4.333 7.64991 4.25032 8.06084 4.08113C8.40619 3.81337 8.69295 3.47762 8.90341 3.09465C9.29125 2.50613 9.69226 1.89769 10.3446 1.72336C10.9683 1.55748 11.6078 1.8737 12.225 2.1808C12.6145 2.41613 13.0487 2.56778 13.5 2.62607C13.9515 2.56726 14.3857 2.41504 14.775 2.17911C15.3923 1.87201 16.0318 1.5558 16.6554 1.72167C17.3078 1.896 17.7088 2.50444 18.0967 3.09296C18.3069 3.47655 18.5937 3.81288 18.9392 4.08113C19.3506 4.25053 19.7924 4.33312 20.2372 4.3237C20.9335 4.36661 21.6537 4.4112 22.122 4.87944C22.5902 5.34769 22.6331 6.06762 22.676 6.76424C22.6671 7.20855 22.7498 7.64993 22.919 8.06086C23.1873 8.40607 23.5238 8.6924 23.9075 8.90208C24.496 9.28992 25.1044 9.69093 25.2784 10.3433C25.4456 10.969 25.1281 11.6065 24.821 12.2234C24.5848 12.6132 24.4326 13.048 24.374 13.5001C24.4328 13.9516 24.5851 14.3859 24.821 14.7754C25.1281 15.3923 25.4456 16.0298 25.2784 16.6555C25.1044 17.3078 24.4956 17.7088 23.9075 18.0967C23.5236 18.3067 23.1872 18.5935 22.919 18.9392C22.7497 19.3506 22.6671 19.7925 22.6764 20.2372C22.6331 20.9335 22.5889 21.6534 22.1206 22.122C21.6524 22.5906 20.9325 22.6332 20.2358 22.6761C19.7911 22.6669 19.3492 22.7496 18.9379 22.919C18.5928 23.1874 18.3065 23.5237 18.0967 23.9071C17.7088 24.4957 17.3078 25.1041 16.6554 25.2784C16.0318 25.4446 15.3923 25.1281 14.775 24.821C14.3857 24.5851 13.9515 24.4328 13.5 24.374C13.0486 24.4328 12.6144 24.5851 12.225 24.821C11.7622 25.1001 11.2427 25.2721 10.7048 25.3244ZM10.7048 2.3514C10.6418 2.35086 10.5789 2.35858 10.5179 2.37438C10.1125 2.48248 9.78483 2.98248 9.46591 3.46458C9.20533 3.94008 8.84089 4.35072 8.3997 4.66593C7.89987 4.89508 7.35485 5.0087 6.8051 4.99836C6.2078 5.03519 5.64395 5.06998 5.35611 5.35749C5.06828 5.64498 5.03382 6.20917 4.99699 6.80647C5.00745 7.3562 4.89394 7.90122 4.6649 8.40107C4.35037 8.84187 3.94071 9.20627 3.46625 9.46728C2.98314 9.78586 2.48416 10.1149 2.37571 10.519C2.27436 10.8977 2.52301 11.3974 2.78551 11.9234C3.07419 12.4033 3.25066 12.9423 3.30172 13.5001C3.25015 14.0579 3.0731 14.5969 2.78382 15.0767C2.5203 15.6044 2.27334 16.1014 2.37402 16.4811C2.48247 16.8865 2.98213 17.2142 3.46456 17.5328C3.94001 17.7936 4.35061 18.1582 4.66591 18.5994C4.89506 19.0992 5.00868 19.6442 4.99834 20.194C5.03517 20.7913 5.06997 21.3551 5.35747 21.643C5.64497 21.9308 6.20916 21.9653 6.80645 22.0021C7.35619 21.9915 7.90125 22.105 8.40105 22.3342C8.84216 22.6495 9.20658 23.0601 9.46726 23.5355C9.78584 24.0183 10.1149 24.5176 10.519 24.6257C10.8977 24.7271 11.3973 24.4791 11.9237 24.2163C12.4034 23.927 12.9422 23.7499 13.5 23.6984C14.0578 23.7499 14.5967 23.927 15.0764 24.2163C15.6041 24.4791 16.1031 24.7271 16.4811 24.6257C16.8865 24.5176 17.2142 24.0176 17.5331 23.5355C17.7937 23.06 18.1582 22.6494 18.5994 22.3342C19.0992 22.105 19.6442 21.9914 20.194 22.0017C20.7913 21.9649 21.3551 21.9301 21.6429 21.6426C21.9308 21.3551 21.9652 20.7909 22.0021 20.1936C21.9916 19.6439 22.1051 19.0989 22.3342 18.599C22.6495 18.1579 23.0601 17.7935 23.5355 17.5328C24.0186 17.2142 24.5176 16.8852 24.626 16.4811C24.7274 16.1024 24.4788 15.6028 24.2163 15.0767C23.927 14.5969 23.7499 14.0579 23.6983 13.5001C23.7499 12.9422 23.927 12.4032 24.2163 11.9234C24.4788 11.3957 24.7267 10.8977 24.626 10.519C24.5176 10.1136 24.0179 9.78586 23.5355 9.46728C23.0601 9.20647 22.6495 8.84193 22.3342 8.40073C22.105 7.9009 21.9914 7.35589 22.0017 6.80613C21.9649 6.20884 21.9301 5.64499 21.6426 5.35715C21.3551 5.06931 20.7909 5.03485 20.1936 4.99803C19.6439 5.00864 19.0988 4.89513 18.599 4.66593C18.1581 4.35111 17.7937 3.94109 17.5328 3.46627C17.2142 2.9835 16.8852 2.48417 16.4811 2.37607C16.1027 2.27471 15.6044 2.52269 15.0764 2.78553C14.5966 3.07424 14.0577 3.25071 13.5 3.30174C12.9422 3.2502 12.4034 3.07314 11.9237 2.78384C11.5519 2.5573 11.1372 2.41007 10.7058 2.3514H10.7048Z" fill="white"/>
<path d="M16.1928 18.2402C15.8676 18.2404 15.5476 18.1593 15.2618 18.0042C14.976 17.8491 14.7336 17.625 14.5565 17.3523C14.3795 17.0796 14.2734 16.7669 14.2481 16.4428C14.2228 16.1186 14.2789 15.7932 14.4115 15.4963C14.544 15.1994 14.7487 14.9404 15.0069 14.7428C15.2651 14.5452 15.5687 14.4153 15.8899 14.365C16.2111 14.3147 16.5399 14.3456 16.8461 14.4548C17.1524 14.5639 17.4265 14.748 17.6434 14.9902C17.895 15.2704 18.06 15.6174 18.1184 15.9893C18.1769 16.3613 18.1264 16.7422 17.9729 17.086C17.8194 17.4298 17.5696 17.7218 17.2537 17.9267C16.9378 18.1315 16.5693 18.2404 16.1928 18.2402ZM16.1928 15.0182C15.9012 15.0185 15.6185 15.1189 15.3921 15.3025C15.1656 15.4861 15.009 15.7419 14.9484 16.0272C14.8879 16.3124 14.9271 16.6097 15.0594 16.8696C15.1918 17.1294 15.4093 17.3359 15.6756 17.4546C15.9419 17.5733 16.2409 17.597 16.5226 17.5217C16.8043 17.4465 17.0517 17.2768 17.2233 17.0411C17.3949 16.8054 17.4805 16.5179 17.4656 16.2267C17.4508 15.9355 17.3365 15.6582 17.1417 15.4412C17.0223 15.3075 16.8758 15.2007 16.712 15.1278C16.5481 15.0549 16.3707 15.0175 16.1914 15.0182H16.1928Z" fill="white"/>
<path d="M10.808 12.6571C10.4829 12.6573 10.1628 12.5762 9.87703 12.4211C9.59125 12.2661 9.34879 12.042 9.17175 11.7692C8.9947 11.4965 8.88868 11.1838 8.86335 10.8597C8.83801 10.5355 8.89417 10.2102 9.0267 9.91326C9.15923 9.61635 9.36393 9.35731 9.62215 9.15971C9.88038 8.96212 10.1839 8.83226 10.5052 8.78196C10.8264 8.73165 11.1551 8.7625 11.4614 8.87169C11.7676 8.98088 12.0417 9.16495 12.2587 9.40713C12.5102 9.68728 12.6752 10.0343 12.7337 10.4063C12.7922 10.7782 12.7416 11.1591 12.5881 11.503C12.4347 11.8468 12.1849 12.1388 11.869 12.3436C11.553 12.5484 11.1845 12.6573 10.808 12.6571ZM10.808 9.43517C10.5164 9.43553 10.2338 9.53594 10.0074 9.71962C9.78097 9.9033 9.62444 10.1591 9.56396 10.4443C9.50347 10.7296 9.54271 11.0269 9.6751 11.2867C9.8075 11.5464 10.025 11.7529 10.2914 11.8716C10.5577 11.9902 10.8567 12.0139 11.1383 11.9386C11.42 11.8633 11.6673 11.6937 11.8389 11.458C12.0106 11.2223 12.0961 10.9348 12.0812 10.6436C12.0664 10.3524 11.952 10.0752 11.7573 9.85815C11.6376 9.72465 11.491 9.61795 11.3272 9.54506C11.1634 9.47217 10.986 9.43472 10.8067 9.43517H10.808Z" fill="white"/>
<path d="M8.99766 18.2243C8.93042 18.2245 8.86468 18.2045 8.80884 18.1671C8.753 18.1296 8.7096 18.0764 8.68421 18.0141C8.65881 17.9518 8.65257 17.8834 8.66628 17.8176C8.67999 17.7518 8.71303 17.6915 8.76117 17.6446L17.7666 8.87161C17.8308 8.80889 17.9173 8.77425 18.007 8.77529C18.0968 8.77634 18.1824 8.81299 18.2451 8.87719C18.3079 8.94139 18.3425 9.02787 18.3415 9.11762C18.3404 9.20736 18.3038 9.29302 18.2396 9.35574L9.23347 18.1284C9.17039 18.1899 9.08577 18.2243 8.99766 18.2243Z" fill="white"/>
</svg>
