<svg width="26" height="26" viewBox="0 0 26 26" fill="none" xmlns="http://www.w3.org/2000/svg">
<g clip-path="url(#clip0)">
<path d="M12.8497 20.6549C12.7111 20.6549 12.5724 20.6018 12.4662 20.4967L5.50365 13.5341C5.29999 13.3305 5.29132 13.0044 5.48199 12.7899L10.7004 6.94423C14.348 2.67698 20.2879 -0.0844364 25.4673 0.0033136C25.7566 0.0098136 25.9895 0.24273 25.996 0.53198C26.1162 5.71465 23.3234 11.6513 19.0453 15.3065L13.2094 20.5173C13.1076 20.6094 12.9776 20.6549 12.8497 20.6549ZM6.6314 13.1301L12.8703 19.369L18.3336 14.4918C22.2401 11.153 24.8347 5.83165 24.9148 1.08556C20.1687 1.16465 14.8485 3.75923 11.5162 7.65706L6.6314 13.1301Z" fill="white"/>
<path d="M14.9238 24.6199C14.8718 24.6199 14.8187 24.6123 14.7689 24.596C14.5739 24.531 14.4135 24.3815 14.3854 24.1779L13.6422 18.9919C13.6 18.6962 13.8058 18.4221 14.1015 18.3788C14.3973 18.3322 14.6714 18.5413 14.7147 18.8381L15.2954 22.8898C17.1934 20.6202 18.2485 17.7429 18.2485 14.8092C18.2485 14.5102 18.4912 14.2675 18.7902 14.2675C19.0892 14.2675 19.3319 14.5102 19.3319 14.8092C19.3319 18.3983 17.878 21.9115 15.343 24.4454C15.2347 24.5538 15.0765 24.6199 14.9238 24.6199Z" fill="white"/>
<path d="M7.0858 12.3631C7.06089 12.3631 7.03489 12.362 7.00889 12.3576L1.82297 11.6145C1.6193 11.5852 1.44922 11.4433 1.3853 11.2472C1.32139 11.0522 1.37339 10.8366 1.51964 10.6926C4.09039 8.1218 7.60255 6.66797 11.1916 6.66797C11.4906 6.66797 11.7333 6.91064 11.7333 7.20964C11.7333 7.50864 11.4906 7.7513 11.1916 7.7513C8.24389 7.7513 5.35139 8.81622 3.10564 10.7034L7.16272 11.2851C7.45847 11.3285 7.6643 11.6015 7.62205 11.8983C7.58197 12.1681 7.35014 12.3631 7.0858 12.3631Z" fill="white"/>
<path d="M18.5612 10.1465C17.8668 10.1465 17.1734 9.88213 16.6459 9.35454C15.5907 8.29829 15.5907 6.58013 16.6459 5.52388C17.7021 4.46763 19.4203 4.46763 20.4765 5.52388C21.5317 6.58013 21.5317 8.29829 20.4765 9.35454C19.9479 9.88321 19.2545 10.1465 18.5612 10.1465ZM18.5612 5.81529C18.1452 5.81529 17.7281 5.97346 17.4118 6.28979C16.7791 6.92354 16.7791 7.95488 17.4118 8.58863C18.0455 9.22129 19.0769 9.22021 19.7106 8.58863C20.3433 7.95488 20.3433 6.92354 19.7106 6.28979C19.3932 5.97454 18.9772 5.81529 18.5612 5.81529ZM20.093 8.97213H20.1039H20.093Z" fill="white"/>
<path d="M0.5419 26C0.399983 26 0.2624 25.9448 0.1584 25.8419C0.0175668 25.701 -0.0344332 25.4941 0.0229834 25.3034C0.20065 24.7109 1.79207 19.474 2.95123 18.3149C4.25665 17.0094 6.38107 17.0084 7.68648 18.3149C8.9919 19.6203 8.9919 21.7447 7.68648 23.0501C6.52732 24.2093 1.29048 25.8007 0.6979 25.9784C0.6459 25.9924 0.5939 26 0.5419 26ZM5.3194 18.4178C4.73873 18.4178 4.15915 18.6388 3.71715 19.0797C3.09207 19.7059 2.05207 22.5019 1.36523 24.635C3.49723 23.9482 6.2944 22.9082 6.91948 22.2831C7.8024 21.4002 7.8024 19.9626 6.91948 19.0797C6.47857 18.6388 5.89898 18.4178 5.3194 18.4178Z" fill="white"/>
</g>
<defs>
<clipPath id="clip0">
<rect width="26" height="26" fill="white"/>
</clipPath>
</defs>
</svg>
