<svg width="40" height="40" viewBox="0 0 40 40" fill="none" xmlns="http://www.w3.org/2000/svg">
<path d="M33.6523 8H6.34766C5.99035 8.00041 5.64778 8.15623 5.39513 8.43327C5.14248 8.71031 5.00037 9.08595 5 9.47775V26.9521C5.00043 27.3439 5.14256 27.7195 5.3952 27.9965C5.64784 28.2736 5.99037 28.4294 6.34766 28.4299H8.66398L7.94492 29.571C7.73757 29.9119 7.66072 30.3286 7.73092 30.7311C7.80112 31.1337 8.01276 31.4898 8.32021 31.7229C8.62767 31.9559 9.00631 32.0471 9.37453 31.9769C9.74275 31.9066 10.0711 31.6805 10.2887 31.3473L12.1278 28.4299H27.8722L29.7106 31.3471C29.9282 31.6803 30.2565 31.9064 30.6248 31.9766C30.993 32.0469 31.3716 31.9556 31.6791 31.7226C31.9865 31.4896 32.1982 31.1334 32.2684 30.7309C32.3386 30.3284 32.2617 29.9117 32.0544 29.5707L31.3353 28.4299H33.6516C34.0091 28.4296 34.3518 28.2739 34.6046 27.9968C34.8573 27.7198 34.9996 27.3441 35 26.9521V9.47775C34.9996 9.08595 34.8575 8.71031 34.6049 8.43327C34.3522 8.15623 34.0096 8.00041 33.6523 8ZM9.61461 30.8359C9.55894 30.9241 9.48461 30.9961 9.39799 31.0459C9.31138 31.0957 9.21505 31.1217 9.11727 31.1217C9.00698 31.1217 8.89879 31.0886 8.80442 31.0261C8.71004 30.9635 8.63306 30.8738 8.58182 30.7667C8.53058 30.6596 8.50702 30.5392 8.51369 30.4185C8.52037 30.2978 8.55702 30.1814 8.61969 30.0819L9.66102 28.4299H11.1308L9.61461 30.8359ZM31.3803 30.0819C31.443 30.1814 31.4796 30.2978 31.4863 30.4185C31.493 30.5392 31.4694 30.6596 31.4182 30.7667C31.3669 30.8738 31.29 30.9635 31.1956 31.0261C31.1012 31.0886 30.993 31.1217 30.8827 31.1217C30.7849 31.1216 30.6886 31.0956 30.6019 31.0459C30.5153 30.9961 30.4409 30.9241 30.3852 30.8359L28.8692 28.4299H30.339L31.3803 30.0819ZM34.1797 26.9521C34.1795 27.1054 34.1239 27.2524 34.025 27.3608C33.9262 27.4692 33.7921 27.5302 33.6523 27.5304H6.34766C6.20785 27.5302 6.07383 27.4692 5.97497 27.3608C5.87612 27.2524 5.8205 27.1054 5.82031 26.9521V9.47775C5.8205 9.32445 5.87612 9.17749 5.97497 9.06909C6.07383 8.96069 6.20785 8.8997 6.34766 8.8995H33.6523C33.7921 8.8997 33.9262 8.96069 34.025 9.06909C34.1239 9.17749 34.1795 9.32445 34.1797 9.47775V26.9521Z" fill="black"/>
<path d="M32.7148 10.056H7.28516C7.23129 10.056 7.17794 10.0676 7.12816 10.0902C7.07838 10.1128 7.03316 10.1459 6.99506 10.1877C6.95697 10.2295 6.92676 10.279 6.90616 10.3336C6.88556 10.3882 6.87497 10.4467 6.875 10.5058V25.9242C6.875 26.0435 6.91821 26.1579 6.99513 26.2422C7.07205 26.3266 7.17638 26.3739 7.28516 26.3739H32.7148C32.8236 26.3739 32.9279 26.3266 33.0049 26.2422C33.0818 26.1579 33.125 26.0435 33.125 25.9242V10.5058C33.125 10.4467 33.1144 10.3882 33.0938 10.3336C33.0732 10.279 33.043 10.2295 33.0049 10.1877C32.9668 10.1459 32.9216 10.1128 32.8718 10.0902C32.8221 10.0676 32.7687 10.056 32.7148 10.056ZM32.3047 25.4744H7.69531V10.9555H32.3047V25.4744Z" fill="black"/>
<path d="M14.6973 15.8785H16.4082V21.001C16.4082 21.1203 16.4514 21.2347 16.5283 21.319C16.6053 21.4034 16.7096 21.4508 16.8184 21.4508C16.9271 21.4508 17.0315 21.4034 17.1084 21.319C17.1853 21.2347 17.2285 21.1203 17.2285 21.001V15.8785H18.9395C19.0482 15.8785 19.1526 15.8311 19.2295 15.7468C19.3064 15.6624 19.3496 15.548 19.3496 15.4288C19.3496 15.3095 19.3064 15.1951 19.2295 15.1107C19.1526 15.0264 19.0482 14.979 18.9395 14.979H14.6973C14.5885 14.979 14.4842 15.0264 14.4072 15.1107C14.3303 15.1951 14.2871 15.3095 14.2871 15.4288C14.2871 15.548 14.3303 15.6624 14.4072 15.7468C14.4842 15.8311 14.5885 15.8785 14.6973 15.8785Z" fill="black"/>
<path d="M22.8034 21.174C22.8345 21.256 22.887 21.3261 22.9544 21.3753C23.0218 21.4246 23.1009 21.4509 23.1819 21.4509C23.2629 21.4509 23.3421 21.4246 23.4094 21.3753C23.4768 21.3261 23.5293 21.256 23.5604 21.174L25.6808 15.602C25.7029 15.5472 25.7147 15.4882 25.7157 15.4284C25.7167 15.3685 25.7067 15.3091 25.6865 15.2535C25.6662 15.1979 25.6361 15.1473 25.5978 15.1047C25.5595 15.062 25.5138 15.0282 25.4634 15.0052C25.413 14.9822 25.3589 14.9704 25.3043 14.9706C25.2498 14.9708 25.1957 14.9829 25.1455 15.0063C25.0952 15.0296 25.0497 15.0638 25.0117 15.1067C24.9736 15.1496 24.9437 15.2004 24.9238 15.2561L23.1819 19.833L21.44 15.2561C21.3981 15.146 21.3181 15.0587 21.2175 15.0133C21.1169 14.968 21.0039 14.9683 20.9036 15.0142C20.8032 15.0602 20.7235 15.148 20.6822 15.2583C20.6408 15.3686 20.6411 15.4924 20.683 15.6025L22.8034 21.174Z" fill="black"/>
</svg>
