<svg width="35" height="45" viewBox="0 0 35 45" fill="none" xmlns="http://www.w3.org/2000/svg">
<path d="M23.125 23.2031H4.84375C4.47092 23.2036 4.1135 23.3519 3.84987 23.6155C3.58624 23.8791 3.43794 24.2365 3.4375 24.6094V27.4219C3.43794 27.7947 3.58624 28.1521 3.84987 28.4158C4.1135 28.6794 4.47092 28.8277 4.84375 28.8281H23.125C23.4978 28.8277 23.8553 28.6794 24.1189 28.4158C24.3825 28.1521 24.5308 27.7947 24.5312 27.4219V24.6094C24.5308 24.2365 24.3825 23.8791 24.1189 23.6155C23.8553 23.3519 23.4978 23.2036 23.125 23.2031ZM23.125 27.4219H4.84375V24.6094H23.125L23.1259 27.4219H23.125Z" fill="black"/>
<path d="M23.125 29.5312H4.84375C4.47092 29.5317 4.1135 29.68 3.84987 29.9436C3.58624 30.2072 3.43794 30.5647 3.4375 30.9375V33.75C3.43794 34.1228 3.58624 34.4803 3.84987 34.7439C4.1135 35.0075 4.47092 35.1558 4.84375 35.1562H23.125C23.4978 35.1558 23.8553 35.0075 24.1189 34.7439C24.3825 34.4803 24.5308 34.1228 24.5312 33.75V30.9375C24.5308 30.5647 24.3825 30.2072 24.1189 29.9436C23.8553 29.68 23.4978 29.5317 23.125 29.5312ZM23.125 33.75H4.84375V30.9375H23.125L23.1259 33.75H23.125Z" fill="black"/>
<path d="M27.3438 4.95439V3.51562C27.3429 2.76996 27.0463 2.05508 26.5191 1.52781C25.9918 1.00055 25.2769 0.703962 24.5312 0.703125H3.4375C2.69184 0.703962 1.97695 1.00055 1.44969 1.52781C0.922423 2.05508 0.625837 2.76996 0.625 3.51562V41.4844C0.625837 42.23 0.922423 42.9449 1.44969 43.4722C1.97695 43.9995 2.69184 44.296 3.4375 44.2969H24.5312C25.2769 44.296 25.9918 43.9995 26.5191 43.4722C27.0463 42.9449 27.3429 42.23 27.3438 41.4844V20.3581C29.2653 20.1828 31.0518 19.2955 32.3527 17.8705C33.6536 16.4455 34.3749 14.5857 34.3749 12.6562C34.3749 10.7268 33.6536 8.86695 32.3527 7.44196C31.0518 6.01697 29.2653 5.12971 27.3438 4.95439ZM18.7085 2.10938L18.3569 3.51562H9.59512L9.19961 2.10938H18.7085ZM25.9375 41.4844C25.937 41.8572 25.7887 42.2146 25.5251 42.4782C25.2615 42.7418 24.9041 42.8901 24.5312 42.8906H3.4375C3.06469 42.8901 2.70729 42.7418 2.44367 42.4782C2.18005 42.2146 2.03174 41.8572 2.03125 41.4844V3.51562C2.03174 3.14281 2.18005 2.78541 2.44367 2.5218C2.70729 2.25818 3.06469 2.10986 3.4375 2.10938H7.73887L8.38574 4.40947C8.42731 4.55696 8.51591 4.68683 8.63807 4.77932C8.76024 4.87182 8.90927 4.92187 9.0625 4.92188H18.9062C19.063 4.92185 19.2153 4.86942 19.3389 4.77292C19.4625 4.67641 19.5503 4.54137 19.5883 4.38926L20.1587 2.10938H24.5312C24.9041 2.10986 25.2615 2.25818 25.5251 2.5218C25.7887 2.78541 25.937 3.14281 25.9375 3.51562V4.95439C24.3815 5.09882 22.9055 5.71011 21.703 6.70809C20.5005 7.70607 19.6276 9.04415 19.1989 10.5469H4.84375C4.47094 10.5474 4.11354 10.6957 3.84992 10.9593C3.5863 11.2229 3.43799 11.5803 3.4375 11.9531V14.7656C3.43799 15.1384 3.5863 15.4958 3.84992 15.7595C4.11354 16.0231 4.47094 16.1714 4.84375 16.1719H19.7526C19.8767 16.4131 20.0131 16.6478 20.1613 16.875H4.84375C4.47094 16.8755 4.11354 17.0238 3.84992 17.2874C3.5863 17.551 3.43799 17.9084 3.4375 18.2812V21.0938C3.43799 21.4666 3.5863 21.824 3.84992 22.0876C4.11354 22.3512 4.47094 22.4995 4.84375 22.5H23.125C23.4978 22.4995 23.8552 22.3512 24.1188 22.0876C24.3824 21.824 24.5308 21.4666 24.5312 21.0938V20.0979C24.9908 20.2287 25.4616 20.3158 25.9375 20.3581V41.4844ZM19.1989 14.7656H4.84375V11.9531H18.9388C18.9177 12.1852 18.9062 12.4189 18.9062 12.6562C18.9056 13.3695 19.0041 14.0794 19.1989 14.7656ZM21.3382 18.2812C21.8712 18.7844 22.4728 19.2096 23.125 19.5442V21.0938H4.84375V18.2812H21.3382ZM26.6406 18.9844C25.7026 18.9839 24.7764 18.775 23.929 18.3727C23.0816 17.9705 22.3342 17.385 21.7407 16.6586C21.1473 15.9322 20.7226 15.083 20.4975 14.1724C20.2724 13.2618 20.2524 12.3125 20.4391 11.3933C20.4398 11.3916 20.4401 11.3898 20.4399 11.388C20.6799 10.2151 21.2476 9.13426 22.0773 8.2711C22.9069 7.40793 23.9644 6.79782 25.1269 6.51161C26.2894 6.2254 27.5092 6.27484 28.6447 6.65418C29.7803 7.03352 30.7849 7.7272 31.542 8.65467C32.299 9.58213 32.7775 10.7053 32.9217 11.8938C33.0659 13.0823 32.8701 14.2874 32.3569 15.369C31.8436 16.4506 31.0341 17.3645 30.0223 18.0044C29.0105 18.6444 27.8378 18.9842 26.6406 18.9844Z" fill="black"/>
<path d="M28.0476 9.84395V15.4689C28.0476 15.6554 27.9735 15.8343 27.8416 15.9661C27.7098 16.098 27.5309 16.1721 27.3444 16.1721C27.158 16.1721 26.9791 16.098 26.8473 15.9661C26.7154 15.8343 26.6413 15.6554 26.6413 15.4689V10.9813L26.2528 11.1764C26.0859 11.2598 25.8927 11.2736 25.7157 11.2145C25.5387 11.1555 25.3923 11.0286 25.3089 10.8617C25.2254 10.6948 25.2117 10.5016 25.2707 10.3246C25.3297 10.1476 25.4566 10.0012 25.6235 9.91778L27.0298 9.21465C27.137 9.16099 27.2562 9.13565 27.376 9.14103C27.4958 9.14641 27.6122 9.18234 27.7142 9.2454C27.8162 9.30847 27.9004 9.39657 27.9587 9.50133C28.0171 9.60609 28.0477 9.72403 28.0476 9.84395Z" fill="black"/>
</svg>
