<svg width="45" height="39" viewBox="0 0 45 39" fill="none" xmlns="http://www.w3.org/2000/svg">
<path d="M44.6924 16.6521L17.2705 0.820899C16.4831 0.367857 15.5483 0.245455 14.6708 0.48052C13.7934 0.715585 13.0449 1.28894 12.5895 2.07492L9.43242 7.54277L7.33078 11.1825C6.87748 11.9701 6.75504 12.9054 6.99032 13.7832C7.2256 14.661 7.79939 15.4096 8.58586 15.865L17.9877 21.2927L16.5255 23.786C16.3311 24.116 16.054 24.3897 15.7216 24.5801C15.3892 24.7705 15.013 24.8711 14.6299 24.872H9.14062V20.6884C9.14062 20.5252 9.07581 20.3687 8.96043 20.2534C8.84505 20.138 8.68856 20.0732 8.52539 20.0732H5.18555V19.2793C5.18471 18.557 4.89738 17.8645 4.3866 17.3537C3.87582 16.8429 3.18329 16.5556 2.46094 16.5547H0.615234C0.534428 16.5547 0.454404 16.5706 0.37974 16.6015C0.305075 16.6324 0.237234 16.6777 0.180095 16.7348C0.122956 16.792 0.07764 16.8598 0.0467379 16.9345C0.0158358 17.0091 -4.61143e-05 17.0892 1.00571e-07 17.17V38.0236C-4.61143e-05 38.1044 0.0158358 38.1844 0.0467379 38.2591C0.07764 38.3338 0.122956 38.4016 0.180095 38.4587C0.237234 38.5159 0.305075 38.5612 0.37974 38.5921C0.454404 38.623 0.534428 38.6389 0.615234 38.6388H2.46094C3.18329 38.638 3.87582 38.3507 4.3866 37.8399C4.89738 37.3291 5.18471 36.6366 5.18555 35.9142V33.9599H8.52539C8.68856 33.9599 8.84505 33.8951 8.96043 33.7797C9.07581 33.6643 9.14062 33.5078 9.14062 33.3446V30.3212H14.6299C15.9627 30.3184 17.2718 29.9686 18.4283 29.3062C19.5849 28.6439 20.549 27.6918 21.2259 26.5437L22.7071 24.018L27.8606 26.9933C28.3795 27.2944 28.9686 27.4532 29.5685 27.4539C29.8701 27.4537 30.1703 27.414 30.4615 27.3357C31.0211 27.1869 31.5335 26.8978 31.9503 26.4959C32.6244 26.8086 33.3585 26.971 34.1016 26.9719C34.557 26.9716 35.0104 26.9115 35.4502 26.7933C36.5719 26.4952 37.5596 25.826 38.2525 24.8948L39.5125 25.6222C39.5824 25.6627 39.6597 25.689 39.7398 25.6995C39.82 25.7101 39.9014 25.7048 39.9795 25.6838C40.0576 25.6629 40.1307 25.6268 40.1948 25.5775C40.2589 25.5283 40.3127 25.4669 40.353 25.3969L44.9163 17.4934C44.9569 17.4235 44.9832 17.3462 44.9939 17.2661C45.0046 17.1859 44.9994 17.1045 44.9786 17.0264C44.9578 16.9482 44.9218 16.875 44.8727 16.8108C44.8236 16.7466 44.7623 16.6926 44.6924 16.6521ZM3.95508 35.9142C3.95471 36.3104 3.79717 36.6902 3.51704 36.9703C3.23692 37.2504 2.85709 37.408 2.46094 37.4084H1.23047V17.7852H2.46094C2.85709 17.7856 3.23692 17.9431 3.51704 18.2232C3.79717 18.5034 3.95471 18.8832 3.95508 19.2793V35.9142ZM7.91016 32.7294H5.18555V21.3036H7.91016V32.7294ZM20.1642 25.9211C19.5964 26.8845 18.7875 27.6835 17.8171 28.2393C16.8467 28.7951 15.7482 29.0887 14.6299 29.0911H9.14062V26.1028H14.6299C15.2274 26.1015 15.8143 25.9446 16.3328 25.6476C16.8513 25.3506 17.2835 24.9237 17.5869 24.409L19.0547 21.9087L21.6429 23.4028L20.1642 25.9211ZM28.4766 25.9277L9.20109 14.7994C8.69686 14.5076 8.32899 14.0276 8.17819 13.4649C8.02739 12.9022 8.10598 12.3026 8.39672 11.7977L10.1897 8.69098L27.8546 18.8898L33.2705 22.0166L31.4771 25.1248L31.4747 25.1286C31.4279 25.208 31.3761 25.2843 31.3196 25.3571V25.3596C30.9952 25.7829 30.528 26.0739 30.005 26.1785C29.482 26.283 28.9388 26.1939 28.4766 25.9277ZM35.1341 25.6046C34.3282 25.8225 33.4739 25.7776 32.6953 25.4763L34.3382 22.6311L37.1834 24.2736C36.6593 24.9244 35.9411 25.3907 35.1334 25.6046H35.1341ZM39.5972 24.2476L35.6186 21.9505L34.418 21.2576L20.8346 13.4156L10.8056 7.62539L13.655 2.69016C13.947 2.18605 14.427 1.81832 14.9897 1.66765C15.5524 1.51699 16.1519 1.59569 16.6567 1.88648L43.5442 17.4104L39.5972 24.2476Z" fill="black"/>
</svg>
