<svg width="45" height="45" viewBox="0 0 45 45" fill="none" xmlns="http://www.w3.org/2000/svg">
<path d="M32.6728 31.1302L32.2151 31.0388L31.9584 30.0122C35.003 29.2402 37.2656 26.4846 37.2656 23.2031V21.7969H37.9688C39.9073 21.7969 41.4844 20.2198 41.4844 18.2812V8.7293C42.3703 7.27523 42.8906 5.57438 42.8906 3.75047C42.8906 2.84555 42.1545 2.10938 41.2502 2.10938C40.737 2.10938 40.2455 2.35477 39.9375 2.76609L39.1226 3.85313C38.6198 4.5225 37.8204 4.92188 36.9844 4.92188C36.4106 4.92188 35.8411 4.73203 35.3812 4.3875L33.8695 3.25336C31.6765 1.60875 28.9596 0.703125 26.2181 0.703125H24.9609C21.5276 0.703125 18.3087 2.45883 16.4334 5.31492C15.4477 5.06742 14.4211 4.92188 13.3594 4.92188C6.38086 4.92188 0.703125 10.5996 0.703125 17.5781C0.703125 24.5566 6.38086 30.2344 13.3594 30.2344C16.1142 30.2344 18.6581 29.34 20.7387 27.8395C21.6816 28.9104 22.9226 29.667 24.2909 30.015L24.0349 31.0388L23.5772 31.1302C17.6562 32.3142 13.3594 37.556 13.3594 43.5938V44.2969H42.8906V43.5938C42.8906 37.556 38.5938 32.3142 32.6728 31.1302ZM27.0218 35.0473L24.4891 36.7348L24.063 32.4668L24.3787 32.4035L27.0218 35.0473ZM27.4219 36.4697L28.125 36.0007L28.8281 36.4697V39.787L28.125 40.4902L27.4219 39.787V36.4697ZM29.2282 35.0473L31.8713 32.4042L32.187 32.4675L31.7609 36.7355L29.2282 35.0473ZM37.9688 20.3906H37.2656V16.1719H37.9688C39.1317 16.1719 40.0781 17.1183 40.0781 18.2812C40.0781 19.4442 39.1317 20.3906 37.9688 20.3906ZM40.0781 15.487C39.4889 15.0405 38.7633 14.7656 37.9688 14.7656H37.2656V12.4833C38.3168 12.0016 39.2709 11.3442 40.0781 10.5356V15.487ZM24.9609 2.10938H26.2181C28.6573 2.10938 31.0739 2.91516 33.0258 4.37836L34.5375 5.5125C35.2385 6.03844 36.1083 6.32812 36.9844 6.32812C38.2605 6.32812 39.4805 5.71852 40.2476 4.69687L41.0625 3.60984C41.1827 3.44672 41.4844 3.54656 41.4844 3.74977C41.4844 8.27367 37.8049 11.9531 33.281 11.9531C30.8827 11.9531 28.5377 11.501 26.3102 10.6102L23.1827 9.3593C23.0864 9.32063 22.9852 9.30023 22.8853 9.27141C21.5304 7.71961 19.8063 6.50531 17.8488 5.7593C19.4913 3.49523 22.1372 2.10938 24.9609 2.10938ZM2.10938 17.5781C2.10938 11.3752 7.15641 6.32812 13.3594 6.32812C19.5623 6.32812 24.6094 11.3752 24.6094 17.5781C24.6094 23.7811 19.5623 28.8281 13.3594 28.8281C7.15641 28.8281 2.10938 23.7811 2.10938 17.5781ZM21.8292 26.955C24.3928 24.6375 26.0156 21.2977 26.0156 17.5781C26.0156 15.312 25.4088 13.1878 24.3612 11.3456L25.7885 11.9166C28.182 12.8742 30.7034 13.3594 33.281 13.3594C34.1754 13.3594 35.0374 13.2272 35.8594 12.998V23.2031C35.8594 26.3046 33.3359 28.8281 30.2344 28.8281H26.0156C24.4132 28.8281 22.8902 28.1362 21.8292 26.955ZM26.0156 30.2344H30.2344C30.3448 30.2344 30.4516 30.2231 30.5606 30.2182L30.8623 31.4248L28.125 34.162L25.3877 31.4248L25.6901 30.2147C25.7991 30.2196 25.9059 30.2344 26.0156 30.2344ZM14.7874 42.8906C15.0785 38.224 18.2538 34.2113 22.6842 32.817L23.3227 39.2027L26.0156 37.4077V40.3692L28.125 42.4786L30.2344 40.3692V37.4077L32.9266 39.2027L33.5651 32.817C37.9955 34.2113 41.1708 38.224 41.4619 42.8906H14.7874Z" fill="black"/>
<path d="M32.3438 19.6875C33.5067 19.6875 34.4531 18.7411 34.4531 17.5781C34.4531 16.4152 33.5067 15.4688 32.3438 15.4688C31.1808 15.4688 30.2344 16.4152 30.2344 17.5781C30.2344 18.7411 31.1808 19.6875 32.3438 19.6875ZM32.3438 16.875C32.7319 16.875 33.0469 17.1907 33.0469 17.5781C33.0469 17.9655 32.7319 18.2812 32.3438 18.2812C31.9556 18.2812 31.6406 17.9655 31.6406 17.5781C31.6406 17.1907 31.9556 16.875 32.3438 16.875Z" fill="black"/>
<path d="M32.3438 23.2031H30.9375C30.9375 23.9787 30.3068 24.6094 29.5312 24.6094H25.3125V26.0156H29.5312C31.0823 26.0156 32.3438 24.7542 32.3438 23.2031Z" fill="black"/>
<path d="M23.0762 17.9803L23.3568 17.5781L23.0769 17.1759C20.7988 13.9057 17.1658 11.9531 13.3591 11.9531C9.55234 11.9531 5.91929 13.9057 3.64187 17.1759L3.36133 17.5781L3.64117 17.9803C5.91929 21.2505 9.55234 23.2031 13.3591 23.2031C17.1658 23.2031 20.7988 21.2505 23.0762 17.9803ZM17.5778 17.5781C17.5778 19.7423 15.9395 21.5283 13.8386 21.7673C13.6783 21.7758 13.5201 21.7969 13.3591 21.7969C13.198 21.7969 13.0398 21.7758 12.8795 21.7673C10.7786 21.5283 9.14031 19.7423 9.14031 17.5781C9.14031 15.4139 10.7786 13.628 12.8795 13.3889C13.0398 13.3805 13.198 13.3594 13.3591 13.3594C13.5201 13.3594 13.6783 13.3805 13.8386 13.3889C15.9395 13.628 17.5778 15.4139 17.5778 17.5781ZM5.0882 17.5781C6.05711 16.3097 7.26578 15.2986 8.60875 14.5786C8.0582 15.4484 7.73406 16.4749 7.73406 17.5781C7.73406 18.6813 8.0582 19.7079 8.60875 20.5777C7.26648 19.8577 6.05711 18.8466 5.0882 17.5781ZM18.1094 20.5777C18.6599 19.7079 18.984 18.6813 18.984 17.5781C18.984 16.4749 18.6599 15.4484 18.1094 14.5786C19.4516 15.2979 20.661 16.3097 21.6299 17.5781C20.661 18.8466 19.4516 19.8577 18.1094 20.5777Z" fill="black"/>
</svg>
