<svg width="45" height="45" viewBox="0 0 45 45" fill="none" xmlns="http://www.w3.org/2000/svg">
<path d="M43.5938 22.5H29.5312V19.3141C29.5312 17.576 28.2333 16.0798 26.5134 15.8344L24.6094 15.5623V14.58C25.5094 13.95 26.19 13.0289 26.5113 11.9531H27.4219C28.5848 11.9531 29.5312 11.0067 29.5312 9.84375C29.5312 9.22289 29.2563 8.66953 28.8281 8.28281V3.51562C28.8281 1.96453 27.5667 0.703125 26.0156 0.703125H19.6875C18.1364 0.703125 16.875 1.96453 16.875 3.51562V3.60492C15.6635 3.91711 14.7656 5.02031 14.7656 6.32812V8.28281C14.3374 8.66883 14.0625 9.22289 14.0625 9.84375C14.0625 11.0067 15.0089 11.9531 16.1719 11.9531H17.0824C17.4037 13.0289 18.0844 13.9507 18.9844 14.58V15.5623L17.081 15.8344C15.6199 16.0432 14.4724 17.1562 14.1567 18.5505L11.8645 14.4246C11.7408 14.201 11.5052 14.0625 11.25 14.0625H1.40625C1.15453 14.0625 0.921797 14.1968 0.796641 14.4155C0.671484 14.6341 0.672188 14.902 0.79875 15.12L5.10398 22.5H1.40625C1.01812 22.5 0.703125 22.8143 0.703125 23.2031V43.5938C0.703125 43.9826 1.01812 44.2969 1.40625 44.2969H4.92188C5.31 44.2969 5.625 43.9826 5.625 43.5938V41.4844H40.0781V43.5938C40.0781 43.9826 40.3931 44.2969 40.7812 44.2969H43.5938C43.9819 44.2969 44.2969 43.9826 44.2969 43.5938V23.2031C44.2969 22.8143 43.9819 22.5 43.5938 22.5ZM27.4219 10.5469H26.7188V9.14062H27.4219C27.8093 9.14062 28.125 9.45562 28.125 9.84375C28.125 10.2319 27.8093 10.5469 27.4219 10.5469ZM16.1719 10.5469C15.7845 10.5469 15.4688 10.2319 15.4688 9.84375C15.4688 9.45562 15.7845 9.14062 16.1719 9.14062H16.875V10.5469H16.1719ZM16.875 7.03125V7.73438H16.1719V6.32812C16.1719 5.55258 16.8026 4.92188 17.5781 4.92188C17.9662 4.92188 18.2812 4.60758 18.2812 4.21875V3.51562C18.2812 2.74008 18.912 2.10938 19.6875 2.10938H26.0156C26.7912 2.10938 27.4219 2.74008 27.4219 3.51562V7.73438H26.7188V7.03125C26.7188 6.64242 26.4037 6.32812 26.0156 6.32812H22.5C21.7245 6.32812 21.0938 5.69742 21.0938 4.92188C21.0938 4.53305 20.7787 4.21875 20.3906 4.21875C20.0025 4.21875 19.6875 4.53305 19.6875 4.92188C19.6875 5.69742 19.0568 6.32812 18.2812 6.32812H17.5781C17.19 6.32812 16.875 6.64242 16.875 7.03125ZM18.2812 10.5469V7.73438C19.1201 7.73438 19.8752 7.36523 20.3906 6.78023C20.906 7.36523 21.6612 7.73438 22.5 7.73438H25.3125V10.5469C25.3125 12.4854 23.7354 14.0625 21.7969 14.0625C19.8584 14.0625 18.2812 12.4854 18.2812 10.5469ZM21.7969 15.4688C22.2855 15.4688 22.7573 15.3949 23.2031 15.2613V16.1719C23.2031 16.9474 22.5724 17.5781 21.7969 17.5781C21.0213 17.5781 20.3906 16.9474 20.3906 16.1719V15.2613C20.8364 15.3949 21.3082 15.4688 21.7969 15.4688ZM2.63039 15.4688H10.8359L14.1504 21.4348C14.2748 21.6584 14.5104 21.7969 14.7656 21.7969H21.0938V20.3906H15.1791L14.5807 19.3141H15.4688C15.4688 18.2714 16.2471 17.3735 17.28 17.2266L19.1123 16.9643C19.4569 18.128 20.5235 18.9844 21.7969 18.9844C23.0709 18.9844 24.1369 18.128 24.4814 16.9643L26.3137 17.2266C27.3466 17.3735 28.125 18.2707 28.125 19.3141V22.5H6.73172L2.63039 15.4688ZM42.8906 42.8906H41.4844V40.7812C41.4844 40.3924 41.1694 40.0781 40.7812 40.0781H4.92188C4.53375 40.0781 4.21875 40.3924 4.21875 40.7812V42.8906H2.10938V23.9062H42.8906V42.8906Z" fill="black"/>
<path d="M37.2656 14.7656C41.1427 14.7656 44.2969 11.6114 44.2969 7.73438C44.2969 3.85734 41.1427 0.703125 37.2656 0.703125C33.3886 0.703125 30.2344 3.85734 30.2344 7.73438C30.2344 11.6114 33.3886 14.7656 37.2656 14.7656ZM37.2656 2.10938C40.3671 2.10938 42.8906 4.63289 42.8906 7.73438C42.8906 10.8359 40.3671 13.3594 37.2656 13.3594C34.1641 13.3594 31.6406 10.8359 31.6406 7.73438C31.6406 4.63289 34.1641 2.10938 37.2656 2.10938Z" fill="black"/>
<path d="M37.2656 8.4375H39.375V7.03125H37.9688V3.51562H36.5625V7.73438C36.5625 8.1232 36.8775 8.4375 37.2656 8.4375Z" fill="black"/>
</svg>
