<svg width="45" height="50" viewBox="0 0 45 50" fill="none" xmlns="http://www.w3.org/2000/svg">
<path d="M31.6455 30.6707V29.9495C31.6455 25.4154 27.957 21.7266 23.4229 21.7266H21.4088C16.8747 21.7266 13.1859 25.4154 13.1859 29.9495V30.637C12.0656 30.7824 11.1973 31.7425 11.1973 32.902V33.6473C11.1973 35.2076 12.43 36.485 13.9727 36.5575C15.3278 39.4358 18.1964 41.27 21.4088 41.27H23.4229C26.6349 41.27 29.5049 39.4347 30.86 36.5554C32.3684 36.4633 33.5671 35.2072 33.5671 33.6761V33.0409C33.5671 31.8769 32.7417 30.9021 31.6455 30.6707ZM21.4088 23.0607H23.4229C26.9859 23.0607 29.9257 25.7801 30.2763 29.2524C28.7947 27.974 26.8824 27.2435 24.8972 27.2435H19.9345C17.9493 27.2435 16.037 27.974 14.5554 29.2524C14.9057 25.7801 17.8455 23.0607 21.4088 23.0607ZM32.233 33.6761C32.233 34.5311 31.5375 35.2265 30.6823 35.2265C30.6383 35.2265 30.5884 35.2224 30.5252 35.2134C30.221 35.1687 29.9267 35.3389 29.8116 35.6239C28.7538 38.2436 26.2461 39.9359 23.4229 39.9359H21.4088C18.5821 39.9359 16.0734 38.2409 15.0174 35.6177C14.9143 35.3616 14.6671 35.1993 14.399 35.1993C14.3598 35.1993 14.3199 35.2028 14.2804 35.21C14.2185 35.2213 14.1632 35.2265 14.1106 35.2265C13.2399 35.2265 12.5314 34.5183 12.5314 33.6473V32.902C12.5314 32.3785 12.9573 31.9526 13.4808 31.9526H13.8528C14.2213 31.9526 14.52 31.6538 14.52 31.2853V31.2087C15.8218 29.5576 17.8293 28.5779 19.9345 28.5779H24.8969C27.0021 28.5779 29.0096 29.5576 30.3114 31.2087V31.2853C30.3114 31.6538 30.6101 31.9526 30.9786 31.9526H31.1443C31.7445 31.9526 32.233 32.4407 32.233 33.0409V33.6761Z" fill="black"/>
<path d="M20.1958 32.3078C20.1958 32.8561 19.7513 33.3003 19.2033 33.3003C18.655 33.3003 18.2106 32.8561 18.2106 32.3078C18.2106 31.7599 18.655 31.3154 19.2033 31.3154C19.7513 31.3154 20.1958 31.7599 20.1958 32.3078Z" fill="black"/>
<path d="M26.6207 32.3078C26.6207 32.8561 26.1766 33.3003 25.6283 33.3003C25.08 33.3003 24.6359 32.8561 24.6359 32.3078C24.6359 31.7599 25.08 31.3154 25.6283 31.3154C26.1766 31.3154 26.6207 31.7599 26.6207 32.3078Z" fill="black"/>
<path d="M25.4114 34.043H19.4215C19.1386 34.043 18.868 34.164 18.679 34.3747C18.4899 34.5858 18.3988 34.8683 18.4298 35.1499C18.6522 37.1856 20.3658 38.7208 22.4163 38.7208C24.4668 38.7208 26.1807 37.1856 26.4031 35.1502C26.4341 34.8683 26.3433 34.5858 26.1543 34.375C25.9649 34.164 25.6943 34.043 25.4114 34.043ZM22.4163 37.3867C21.176 37.3867 20.1203 36.5455 19.8233 35.3774H25.0096C24.7122 36.5455 23.6565 37.3867 22.4163 37.3867Z" fill="black"/>
<path d="M44.0006 24.5233L22.5137 3.11719" stroke="black" stroke-width="2" stroke-miterlimit="10" stroke-linecap="round" stroke-linejoin="round"/>
<path d="M1 24.5233L22.4877 3.11719" stroke="black" stroke-width="2" stroke-miterlimit="10" stroke-linecap="round" stroke-linejoin="round"/>
<path d="M29.6101 8.298V2.49209C29.6101 1.66826 30.2806 1 31.1051 1H34.2166C35.0416 1 35.7104 1.66826 35.7104 2.49209V14.2503" stroke="black" stroke-width="2" stroke-miterlimit="10" stroke-linecap="round" stroke-linejoin="round"/>
<path d="M39.2172 22.2227V46.8403C39.2172 47.6871 38.5299 48.3724 37.6848 48.3724H7.29006C6.44362 48.3724 5.75781 47.6871 5.75781 46.8403V22.2227" stroke="black" stroke-width="2" stroke-miterlimit="10" stroke-linecap="round" stroke-linejoin="round"/>
</svg>
