<svg width="43" height="43" viewBox="0 0 43 43" fill="none" xmlns="http://www.w3.org/2000/svg">
<path d="M38.0509 4.94992C35.4136 2.31305 31.8677 0.784625 28.1398 0.677868C24.412 0.571111 20.7844 1.8941 18.0006 4.37573C15.2167 6.85736 13.4874 10.3097 13.1669 14.0253C12.8464 17.7409 13.9591 21.4384 16.2769 24.36L14.3535 26.282L14.0441 25.9727C13.987 25.9155 13.9192 25.8701 13.8445 25.8392C13.7699 25.8082 13.6898 25.7923 13.609 25.7923C13.5282 25.7923 13.4482 25.8082 13.3735 25.8392C13.2989 25.8701 13.2311 25.9155 13.174 25.9727L0.850288 38.2974C0.79311 38.3545 0.747749 38.4223 0.7168 38.497C0.685852 38.5716 0.669922 38.6516 0.669922 38.7324C0.669922 38.8133 0.685852 38.8933 0.7168 38.9679C0.747749 39.0426 0.79311 39.1104 0.850288 39.1675L3.8333 42.1505C3.8904 42.2077 3.95822 42.253 4.03287 42.284C4.10752 42.3149 4.18754 42.3309 4.26835 42.3309C4.34917 42.3309 4.42919 42.3149 4.50384 42.284C4.57849 42.253 4.64631 42.2077 4.70341 42.1505L17.0271 29.8268C17.0843 29.7697 17.1296 29.7019 17.1606 29.6273C17.1915 29.5526 17.2075 29.4726 17.2075 29.3918C17.2075 29.311 17.1915 29.2309 17.1606 29.1563C17.1296 29.0816 17.0843 29.0138 17.0271 28.9567L16.7177 28.6473L18.6408 26.7243C21.5624 29.0428 25.2602 30.156 28.9762 29.8357C32.6922 29.5155 36.145 27.786 38.6268 25.0018C41.1087 22.2177 42.4317 18.5896 42.3246 14.8614C42.2175 11.1331 40.6885 7.58705 38.0509 4.94992ZM4.26818 40.8445L2.15529 38.7316L13.6092 27.2777L13.9108 27.5793C13.915 27.5853 13.9203 27.5906 13.9263 27.5948L15.4029 29.0713C15.4057 29.0741 15.4074 29.0777 15.4106 29.0805C15.4138 29.0833 15.4169 29.0854 15.4197 29.0882L15.7207 29.3891L4.26818 40.8445ZM15.8476 27.7772L15.2236 27.1532L17.0847 25.2899C17.1856 25.3954 17.2844 25.5054 17.3892 25.6098C17.494 25.7143 17.6001 25.8134 17.7091 25.9143L15.8476 27.7772ZM37.1797 24.7418C35.3089 26.6108 32.9259 27.8832 30.3321 28.3982C27.7383 28.9131 25.05 28.6475 22.6071 27.635C20.1642 26.6224 18.0763 24.9083 16.6074 22.7093C15.1385 20.5103 14.3544 17.9252 14.3544 15.2808C14.3544 12.6363 15.1385 10.0512 16.6074 7.85224C18.0763 5.65327 20.1642 3.93916 22.6071 2.92657C25.05 1.91398 27.7383 1.64838 30.3321 2.16333C32.9259 2.67829 35.3089 3.95069 37.1797 5.81969C39.6854 8.33081 41.0926 11.7333 41.0926 15.2808C41.0926 18.8282 39.6854 22.2307 37.1797 24.7418Z" fill="black"/>
<path d="M36.5586 6.44089C34.5129 4.39079 31.8195 3.11361 28.9375 2.82706C26.0556 2.5405 23.1634 3.26232 20.7541 4.86946C18.3447 6.4766 16.5673 8.86959 15.7248 11.6405C14.8824 14.4114 15.0269 17.3888 16.1339 20.0651C17.2409 22.7413 19.2418 24.9509 21.7955 26.317C24.3493 27.6831 27.2977 28.1213 30.1384 27.5569C32.979 26.9925 35.536 25.4604 37.3734 23.2217C39.2109 20.983 40.2151 18.1764 40.2148 15.2802C40.2203 13.6383 39.8999 12.0116 39.2723 10.4943C38.6447 8.97697 37.7223 7.59926 36.5586 6.44089ZM35.6885 23.2494C33.8441 25.0983 31.4156 26.2503 28.817 26.5091C26.2183 26.7678 23.6104 26.1173 21.4377 24.6684C19.265 23.2195 17.662 21.0619 16.9021 18.5634C16.1421 16.0649 16.2723 13.3801 17.2702 10.9668C18.2682 8.55355 20.0723 6.56106 22.3749 5.32905C24.6776 4.09703 27.3362 3.70174 29.8977 4.21057C32.4591 4.71939 34.7648 6.10083 36.4217 8.1194C38.0787 10.138 38.9842 12.6687 38.984 15.2802C38.989 16.7605 38.7002 18.227 38.1346 19.595C37.5689 20.9629 36.7375 22.205 35.6885 23.2494Z" fill="black"/>
<path d="M21.8272 8.86388C21.694 8.88223 21.5705 8.94374 21.4757 9.03899C21.3808 9.13424 21.3198 9.25797 21.302 9.39122C21.2668 9.64997 20.4674 15.7661 23.8525 19.1517C26.1194 21.4185 29.6108 21.8091 31.7479 21.8091C32.3706 21.8135 32.993 21.7783 33.6112 21.7036C33.7441 21.6853 33.8673 21.6241 33.9621 21.5293C34.0569 21.4345 34.1182 21.3113 34.1365 21.1784C34.1716 20.9193 34.9711 14.8032 31.5859 11.418C28.2007 8.03279 22.0863 8.82802 21.8272 8.86388ZM32.965 20.5277C31.5212 20.6331 27.1699 20.727 24.7227 18.2798C22.2754 15.8326 22.3672 11.4795 22.4748 10.0363C23.9162 9.92841 28.2633 9.83068 30.7179 12.2863C33.1654 14.7325 33.0723 19.0838 32.965 20.5277Z" fill="black"/>
<path d="M27.7206 12.5586C27.0912 12.5592 26.4814 12.7779 25.9951 13.1776C25.5089 13.5773 25.1763 14.1332 25.0539 14.7506C24.9315 15.3681 25.027 16.0088 25.324 16.5638C25.621 17.1187 26.1012 17.5535 26.6829 17.7941C27.2645 18.0347 27.9116 18.0663 28.5138 17.8834C29.1161 17.7004 29.6363 17.3144 29.9859 16.7909C30.3355 16.2675 30.4928 15.6391 30.431 15.0127C30.3693 14.3863 30.0922 13.8007 29.6472 13.3556C29.3947 13.102 29.0944 12.901 28.7637 12.7642C28.433 12.6274 28.0785 12.5575 27.7206 12.5586ZM28.7781 16.3386C28.4976 16.6183 28.1177 16.7753 27.7217 16.7753C27.3256 16.7753 26.9457 16.6183 26.6652 16.3386C26.4566 16.1297 26.3146 15.8637 26.2571 15.5741C26.1997 15.2845 26.2293 14.9844 26.3424 14.7117C26.4555 14.439 26.6468 14.2059 26.8923 14.0419C27.1378 13.8779 27.4264 13.7904 27.7217 13.7904C28.0169 13.7904 28.3055 13.8779 28.551 14.0419C28.7965 14.2059 28.9878 14.439 29.1009 14.7117C29.214 14.9844 29.2437 15.2845 29.1862 15.5741C29.1287 15.8637 28.9867 16.1297 28.7781 16.3386Z" fill="black"/>
</svg>
