<svg width="45" height="45" viewBox="0 0 45 45" fill="none" xmlns="http://www.w3.org/2000/svg">
<path d="M30.6561 19.8833C30.5888 19.7641 30.4904 19.6657 30.3713 19.5985L18.3713 12.8485C18.0113 12.6434 17.5534 12.769 17.3483 13.1289C17.2837 13.2425 17.2497 13.371 17.25 13.5017V27.0017C17.2508 27.2688 17.3936 27.5154 17.625 27.6489C17.8551 27.7834 18.1391 27.7856 18.3713 27.6549L30.3713 20.905C30.732 20.7014 30.8595 20.244 30.6561 19.8833ZM18.75 25.7192V14.7842L28.47 20.2517L18.75 25.7192Z" fill="black"/>
<path d="M15 35.25V33.75H13.5V35.25H3V36.75H13.5V38.25H15V36.75H42V35.25H15Z" fill="black"/>
<path d="M22.5 8.25C15.8726 8.25 10.5 13.6226 10.5 20.25C10.5079 26.8742 15.8758 32.2421 22.5 32.25C29.1274 32.25 34.5 26.8774 34.5 20.25C34.5 13.6226 29.1274 8.25 22.5 8.25ZM22.5 30.75C16.701 30.75 12 26.049 12 20.25C12.0062 14.4536 16.7036 9.75619 22.5 9.75C28.299 9.75 33 14.451 33 20.25C33 26.049 28.299 30.75 22.5 30.75Z" fill="black"/>
<path d="M42.75 3.75H2.25C1.00734 3.75 0 4.75734 0 6V39C0 40.2427 1.00734 41.25 2.25 41.25H42.75C43.9927 41.25 45 40.2427 45 39V6C45 4.75734 43.9927 3.75 42.75 3.75ZM43.5 39C43.5 39.4142 43.1642 39.75 42.75 39.75H2.25C1.83581 39.75 1.5 39.4142 1.5 39V6C1.5 5.58581 1.83581 5.25 2.25 5.25H42.75C43.1642 5.25 43.5 5.58581 43.5 6V39Z" fill="black"/>
</svg>
