<svg width="45" height="45" viewBox="0 0 45 45" fill="none" xmlns="http://www.w3.org/2000/svg">
<path d="M40.4911 10.4542C40.4874 10.3945 40.4764 10.3352 40.4581 10.2781C40.4523 10.2524 40.4446 10.2275 40.4351 10.203C40.4032 10.1246 40.3578 10.0521 40.3007 9.98914L31.3007 0.239136C31.2366 0.171753 31.1604 0.117188 31.0758 0.0787354C31.0531 0.0681152 31.0297 0.0593261 31.0059 0.0516357C30.9377 0.0263672 30.866 0.0109864 30.7931 0.0065918C30.7788 0.00842286 30.7653 0 30.7502 0H5.25024C4.83606 0 4.50024 0.335815 4.50024 0.75V44.25C4.50024 44.6642 4.83606 45 5.25024 45H39.7502C40.1644 45 40.5002 44.6642 40.5002 44.25V10.5C40.5002 10.4843 40.4929 10.47 40.4911 10.4542ZM38.0371 9.75H31.5002V2.66858L38.0371 9.75ZM6.00024 43.5V1.5H30.0002V10.5C30.0002 10.9142 30.3361 11.25 30.7502 11.25H39.0002V43.5H6.00024Z" fill="black"/>
<path d="M28.9167 25.6257L19.9167 19.6257C19.6864 19.4723 19.3905 19.458 19.1466 19.5884C18.9027 19.7188 18.7504 19.9733 18.7504 20.2498V32.2498C18.7504 32.5263 18.9027 32.7808 19.1466 32.9111C19.3905 33.0415 19.6864 33.0272 19.9167 32.8738L28.9167 26.8738C29.1251 26.7346 29.2504 26.5006 29.2504 26.2498C29.2504 25.9989 29.1251 25.7649 28.9167 25.6257ZM20.2504 30.8479V21.6516L27.1505 26.2498L20.2504 30.8479Z" fill="black"/>
<path d="M22.5 15.0002C16.2869 15.0002 11.25 20.037 11.25 26.2502C11.25 32.4633 16.2869 37.5002 22.5 37.5002C28.7131 37.5002 33.75 32.4633 33.75 26.2502C33.743 20.04 28.7102 15.0071 22.5 15.0002ZM22.5 36.0002C17.1152 36.0002 12.75 31.6349 12.75 26.2502C12.75 20.8654 17.1152 16.5002 22.5 16.5002C27.8848 16.5002 32.25 20.8654 32.25 26.2502C32.2438 31.6324 27.8822 35.994 22.5 36.0002Z" fill="black"/>
</svg>
