<svg width="45" height="45" viewBox="0 0 45 45" fill="none" xmlns="http://www.w3.org/2000/svg">
<path d="M0.75016 35.25C1.16421 35.25 1.49998 34.9142 1.49998 34.5001V32.9998C1.49998 32.5858 1.16421 32.25 0.75016 32.25C0.33577 32.25 0 32.5858 0 32.9998V34.5001C0 34.9142 0.33577 35.25 0.75016 35.25Z" fill="black"/>
<path d="M3.7501 35.25V32.25C3.7501 31.8356 3.41433 31.4999 2.99994 31.4999C2.58589 31.4999 2.25012 31.8356 2.25012 32.25V35.25C2.25012 35.6644 2.58589 36.0002 2.99994 36.0002C3.41433 36.0002 3.7501 35.6644 3.7501 35.25Z" fill="black"/>
<path d="M12.75 35.25V32.25C12.75 31.8356 12.4142 31.4999 12.0002 31.4999C11.5858 31.4999 11.25 31.8356 11.25 32.25V35.25C11.25 35.6644 11.5858 36.0002 12.0002 36.0002C12.4142 36.0002 12.75 35.6644 12.75 35.25Z" fill="black"/>
<path d="M6.7501 36.7499V30.75C6.7501 30.3356 6.41433 29.9999 5.99994 29.9999C5.58589 29.9999 5.25012 30.3356 5.25012 30.75V36.7499C5.25012 37.1643 5.58589 37.5001 5.99994 37.5001C6.41433 37.5001 6.7501 37.1643 6.7501 36.7499Z" fill="black"/>
<path d="M9.7501 36.7499V30.75C9.7501 30.3356 9.41433 29.9999 8.99994 29.9999C8.58589 29.9999 8.25012 30.3356 8.25012 30.75V36.7499C8.25012 37.1643 8.58589 37.5001 8.99994 37.5001C9.41433 37.5001 9.7501 37.1643 9.7501 36.7499Z" fill="black"/>
<path d="M15.7499 38.2499V29.25C15.7499 28.8356 15.4141 28.4999 15 28.4999C14.5856 28.4999 14.2499 28.8356 14.2499 29.25V38.2499C14.2499 38.6643 14.5856 39.0001 15 39.0001C15.4141 39.0001 15.7499 38.6643 15.7499 38.2499Z" fill="black"/>
<path d="M18.7499 39.7499V27.75C18.7499 27.3356 18.4141 26.9999 18 26.9999C17.5856 26.9999 17.2499 27.3356 17.2499 27.75V39.7499C17.2499 40.1642 17.5856 40.5 18 40.5C18.4141 40.5 18.7499 40.1642 18.7499 39.7499Z" fill="black"/>
<path d="M21.7499 44.2498V23.2502C21.7499 22.8358 21.4141 22.5 21 22.5C20.5856 22.5 20.2499 22.8358 20.2499 23.2502V44.2498C20.2499 44.6642 20.5856 45 21 45C21.4141 45 21.7499 44.6642 21.7499 44.2498Z" fill="black"/>
<path d="M44.2498 32.25C43.8358 32.25 43.5 32.5858 43.5 32.9998V34.5001C43.5 34.9142 43.8358 35.25 44.2498 35.25C44.6642 35.25 45 34.9142 45 34.5001V32.9998C45 32.5858 44.6642 32.25 44.2498 32.25Z" fill="black"/>
<path d="M42.7499 35.25V32.25C42.7499 31.8356 42.4141 31.4999 42 31.4999C41.5856 31.4999 41.2499 31.8356 41.2499 32.25V35.25C41.2499 35.6644 41.5856 36.0002 42 36.0002C42.4141 36.0002 42.7499 35.6644 42.7499 35.25Z" fill="black"/>
<path d="M33.75 35.25V32.25C33.75 31.8356 33.4142 31.4999 32.9998 31.4999C32.5858 31.4999 32.25 31.8356 32.25 32.25V35.25C32.25 35.6644 32.5858 36.0002 32.9998 36.0002C33.4142 36.0002 33.75 35.6644 33.75 35.25Z" fill="black"/>
<path d="M39.7499 36.7499V30.75C39.7499 30.3356 39.4141 29.9999 39 29.9999C38.5856 29.9999 38.2499 30.3356 38.2499 30.75V36.7499C38.2499 37.1643 38.5856 37.5001 39 37.5001C39.4141 37.5001 39.7499 37.1643 39.7499 36.7499Z" fill="black"/>
<path d="M36.75 36.7499V30.75C36.75 30.3356 36.4142 29.9999 36.0002 29.9999C35.5858 29.9999 35.25 30.3356 35.25 30.75V36.7499C35.25 37.1643 35.5858 37.5001 36.0002 37.5001C36.4142 37.5001 36.75 37.1643 36.75 36.7499Z" fill="black"/>
<path d="M30.7501 38.2499V29.25C30.7501 28.8356 30.4143 28.4999 29.9999 28.4999C29.5859 28.4999 29.2501 28.8356 29.2501 29.25V38.2499C29.2501 38.6643 29.5859 39.0001 29.9999 39.0001C30.4143 39.0001 30.7501 38.6643 30.7501 38.2499Z" fill="black"/>
<path d="M27.7501 39.7499V27.75C27.7501 27.3356 27.4143 26.9999 26.9999 26.9999C26.5859 26.9999 26.2501 27.3356 26.2501 27.75V39.7499C26.2501 40.1642 26.5859 40.5 26.9999 40.5C27.4143 40.5 27.7501 40.1642 27.7501 39.7499Z" fill="black"/>
<path d="M24.7501 44.2498V23.2502C24.7501 22.8358 24.4143 22.5 23.9999 22.5C23.5859 22.5 23.2501 22.8358 23.2501 23.2502V44.2498C23.2501 44.6642 23.5859 45 23.9999 45C24.4143 45 24.7501 44.6642 24.7501 44.2498Z" fill="black"/>
<path d="M40.5 0H25.4999C23.016 0.00274658 21.0027 2.01599 21 4.49993V15.0001C21.0027 17.4841 23.016 19.4973 25.4999 19.5H26.8066L26.2559 23.9069C26.2188 24.2036 26.3613 24.494 26.6188 24.6458C26.8763 24.7979 27.1994 24.7824 27.4414 24.6063L34.4624 19.5H40.5C42.984 19.4973 44.9972 17.4841 45 15.0001V4.49993C44.9972 2.01599 42.984 0.00274658 40.5 0V0ZM43.5 15.0001C43.4983 16.6563 42.1562 17.9984 40.5 18.0001H35.9867C35.9919 17.8428 35.9462 17.6883 35.8563 17.5592C35.7395 17.3979 35.5634 17.2897 35.367 17.2588C35.1703 17.2276 34.9695 17.2763 34.8088 17.3934L27.9592 22.3754L28.494 18.0931C28.5311 17.8253 28.4213 17.5586 28.2063 17.3944C27.9914 17.2303 27.7051 17.1946 27.4565 17.3007C27.2083 17.4068 27.036 17.6385 27.0057 17.907L26.9941 18.0001H25.4999C23.8437 17.9984 22.5017 16.6563 22.5 15.0001V4.49993C22.5017 2.84374 23.8437 1.50169 25.4999 1.49998H40.5C42.1562 1.50169 43.4983 2.84374 43.5 4.49993V15.0001Z" fill="black"/>
<path d="M26.9999 7.49988C25.7574 7.49988 24.7501 8.50719 24.7501 9.75002C24.7501 10.9925 25.7574 12.0002 26.9999 12.0002C28.2427 12.0002 29.2501 10.9925 29.2501 9.75002C29.2487 8.50787 28.2421 7.50125 26.9999 7.49988ZM26.9999 10.4998C26.5859 10.4998 26.2501 10.1641 26.2501 9.75002C26.2501 9.33562 26.5859 8.99986 26.9999 8.99986C27.4143 8.99986 27.7501 9.33562 27.7501 9.75002C27.7497 10.1641 27.414 10.4995 26.9999 10.4998Z" fill="black"/>
<path d="M32.9999 7.49988C31.7574 7.49988 30.7501 8.50719 30.7501 9.75002C30.7501 10.9925 31.7574 12.0002 32.9999 12.0002C34.2427 12.0002 35.2501 10.9925 35.2501 9.75002C35.2487 8.50787 34.2421 7.50125 32.9999 7.49988ZM32.9999 10.4998C32.5859 10.4998 32.2501 10.1641 32.2501 9.75002C32.2501 9.33562 32.5859 8.99986 32.9999 8.99986C33.4143 8.99986 33.7501 9.33562 33.7501 9.75002C33.7497 10.1641 33.4143 10.4995 32.9999 10.4998Z" fill="black"/>
<path d="M39 7.49988C37.7572 7.49988 36.7499 8.50719 36.7499 9.75002C36.7499 10.9925 37.7572 12.0002 39 12.0002C40.2425 12.0002 41.2498 10.9925 41.2498 9.75002C41.2484 8.50787 40.2422 7.50125 39 7.49988ZM39 10.4998C38.5856 10.4998 38.2499 10.1641 38.2499 9.75002C38.2499 9.33562 38.5856 8.99986 39 8.99986C39.4141 8.99986 39.7498 9.33562 39.7498 9.75002C39.7495 10.1641 39.4141 10.4995 39 10.4998Z" fill="black"/>
</svg>
