<svg width="22" height="22" viewBox="0 0 22 22" fill="none" xmlns="http://www.w3.org/2000/svg">
<path fill-rule="evenodd" clip-rule="evenodd" d="M10.9053 5.2983C7.81249 5.2983 5.30527 7.80547 5.30527 10.8983C5.30527 13.9911 7.81249 16.4983 10.9053 16.4983C13.9981 16.4983 16.5052 13.9911 16.5052 10.8983C16.5052 7.80547 13.9981 5.2983 10.9053 5.2983ZM10.9053 14.5334C8.89768 14.5334 7.27017 12.9058 7.27017 10.8983C7.27017 8.89067 8.89768 7.2632 10.9053 7.2632C12.9129 7.2632 14.5404 8.89067 14.5404 10.8983C14.5404 12.9058 12.9129 14.5334 10.9053 14.5334Z" fill="#9CAAD1"/>
<path d="M16.8 6.47727C17.5054 6.47727 18.0772 5.90547 18.0772 5.20008C18.0772 4.49469 17.5054 3.92289 16.8 3.92289C16.0946 3.92289 15.5228 4.49469 15.5228 5.20008C15.5228 5.90547 16.0946 6.47727 16.8 6.47727Z" fill="#9CAAD1"/>
<path fill-rule="evenodd" clip-rule="evenodd" d="M11 0C8.01258 0 7.63794 0.0126627 6.46472 0.0661955C5.29385 0.119597 4.49426 0.305565 3.79454 0.577508C3.07123 0.858576 2.45775 1.2347 1.84623 1.84623C1.23466 2.45779 0.858577 3.07123 0.577464 3.79454C0.305521 4.49426 0.119597 5.29385 0.0661519 6.46471C0.0126191 7.63798 0 8.01254 0 11C0 13.9874 0.0126191 14.362 0.0661519 15.5353C0.119597 16.7061 0.305521 17.5057 0.577464 18.2054C0.858577 18.9287 1.23466 19.5422 1.84623 20.1537C2.45775 20.7653 3.07123 21.1414 3.79454 21.4225C4.49426 21.6944 5.29385 21.8804 6.46472 21.9338C7.63794 21.9873 8.01258 22 11 22C13.9874 22 14.362 21.9873 15.5352 21.9338C16.7061 21.8804 17.5057 21.6944 18.2054 21.4225C18.9288 21.1414 19.5422 20.7653 20.1537 20.1537C20.7653 19.5422 21.1414 18.9288 21.4225 18.2054C21.6944 17.5057 21.8804 16.7061 21.9338 15.5353C21.9873 14.362 22 13.9874 22 11C22 8.01258 21.9873 7.63798 21.9338 6.46471C21.8804 5.29385 21.6944 4.49426 21.4225 3.79454C21.1414 3.07123 20.7653 2.45779 20.1537 1.84623C19.5422 1.2347 18.9288 0.858576 18.2054 0.577508C17.5057 0.305565 16.7061 0.119597 15.5352 0.0661955C14.362 0.0126627 13.9874 0 11 0ZM11 1.98198C13.9371 1.98198 14.285 1.99316 15.4449 2.04608C16.5174 2.09503 17.0998 2.27423 17.4874 2.42487C18.0009 2.62442 18.3674 2.86278 18.7523 3.24768C19.1372 3.63263 19.3755 3.99906 19.5751 4.51251C19.7257 4.90013 19.9049 5.48257 19.9539 6.55506C20.0068 7.71496 20.018 8.06288 20.018 11C20.018 13.9371 20.0068 14.285 19.9539 15.4449C19.9049 16.5174 19.7257 17.0999 19.5751 17.4875C19.3755 18.0009 19.1372 18.3674 18.7523 18.7523C18.3674 19.1372 18.0009 19.3756 17.4874 19.5751C17.0998 19.7257 16.5174 19.905 15.4449 19.9539C14.2852 20.0068 13.9373 20.018 11 20.018C8.06262 20.018 7.71479 20.0068 6.55506 19.9539C5.48257 19.905 4.90008 19.7257 4.51247 19.5751C3.99906 19.3756 3.63259 19.1372 3.24768 18.7523C2.86278 18.3674 2.62437 18.0009 2.42482 17.4875C2.27423 17.0999 2.09503 16.5174 2.04608 15.4449C1.99316 14.285 1.98198 13.9371 1.98198 11C1.98198 8.06288 1.99316 7.71496 2.04608 6.55506C2.09503 5.48257 2.27423 4.90013 2.42482 4.51251C2.62437 3.99906 2.86278 3.63263 3.24768 3.24773C3.63259 2.86278 3.99906 2.62442 4.51247 2.42487C4.90008 2.27423 5.48257 2.09503 6.55501 2.04608C7.71496 1.99316 8.06284 1.98198 11 1.98198Z" fill="#9CAAD1"/>
</svg>
