<svg width="14" height="24" viewBox="0 0 14 24" fill="none" xmlns="http://www.w3.org/2000/svg">
<path d="M9.52485 17.4401C10.7959 17.1526 12.0199 16.6527 13.1463 15.9496C13.999 15.4153 14.257 14.2966 13.7189 13.4467C13.1809 12.5967 12.0545 12.3405 11.1987 12.8748C8.64398 14.4715 5.35608 14.4685 2.80113 12.8748C1.94534 12.3405 0.818945 12.5967 0.281004 13.4467C-0.256936 14.2936 0.00102991 15.4153 0.853581 15.9496C1.97997 16.6527 3.20396 17.1527 4.47503 17.4401L0.992125 20.9025C0.277938 21.6118 0.277938 22.7587 0.992125 23.468C1.35075 23.8211 1.81653 23.9992 2.28214 23.9992C2.75098 23.9992 3.21659 23.8211 3.57539 23.468L7.00165 20.0649L10.4281 23.468C11.1423 24.1773 12.297 24.1773 13.0112 23.468C13.7254 22.7587 13.7254 21.6086 13.0112 20.9025L9.52485 17.4401ZM7.00147 3.63118C8.42678 3.63118 9.58456 4.78107 9.58456 6.19667C9.58456 7.60904 8.42678 8.75912 7.00147 8.75912C5.57941 8.75912 4.41838 7.60922 4.41838 6.19667C4.41838 4.78107 5.57941 3.63118 7.00147 3.63118ZM7.00147 12.3871C10.4405 12.3871 13.2376 9.60908 13.2376 6.19667C13.2376 2.77798 10.4405 0 7.00147 0C3.56259 0 0.765548 2.77798 0.765548 6.19362C0.765548 9.60926 3.56259 12.3871 7.00147 12.3871Z" fill="#9CAAD1"/>
</svg>
