<svg width="24" height="20" viewBox="0 0 24 20" fill="none" xmlns="http://www.w3.org/2000/svg">
<path d="M24 2.30824C23.1167 2.69994 22.1689 2.96559 21.173 3.08419C22.1898 2.47484 22.9682 1.50832 23.3371 0.360186C22.3833 0.924482 21.3305 1.33423 20.2087 1.55636C19.3103 0.597341 18.0326 0 16.6153 0C13.8963 0 11.6917 2.20621 11.6917 4.92569C11.6917 5.31139 11.7352 5.6881 11.8192 6.04832C7.72801 5.84268 4.1002 3.88112 1.67216 0.900465C1.24773 1.62688 1.00628 2.47331 1.00628 3.37683C1.00628 5.08628 1.87612 6.59461 3.19589 7.47706C2.38902 7.45006 1.63016 7.22793 0.965806 6.85872V6.92026C0.965806 9.30656 2.66349 11.2981 4.91456 11.7514C4.50212 11.8625 4.06722 11.924 3.6173 11.924C3.29938 11.924 2.99193 11.8925 2.69047 11.8324C3.31734 13.791 5.13503 15.2153 7.28864 15.2543C5.60444 16.5751 3.48083 17.36 1.17428 17.36C0.776864 17.36 0.385412 17.336 0 17.2925C2.1791 18.6927 4.76613 19.5092 7.5466 19.5092C16.6034 19.5092 21.554 12.0021 21.554 5.49152L21.5375 4.85368C22.5048 4.16325 23.3416 3.29579 24 2.30824Z" fill="#9CAAD1"/>
</svg>
