<svg width="24" height="24" viewBox="0 0 24 24" fill="none" xmlns="http://www.w3.org/2000/svg">
<path fill-rule="evenodd" clip-rule="evenodd" d="M15.6838 0H8.31616C1.5921 0 0 1.5921 0 8.31616V15.6838C0 22.4079 1.5921 24 8.31616 24H15.6838C22.4079 24 24 22.4079 24 15.6838V8.31616C24 1.5921 22.391 0 15.6838 0ZM19.3761 17.1235H17.6316C16.971 17.1235 16.7678 16.5985 15.5822 15.3959C14.5491 14.3966 14.0918 14.2611 13.8377 14.2611C13.482 14.2611 13.3804 14.3627 13.3804 14.8539V16.4291C13.3804 16.8525 13.2449 17.1066 12.127 17.1066C10.2809 17.1066 8.23147 15.9887 6.79182 13.9054C4.62385 10.8568 4.03105 8.57022 4.03105 8.09598C4.03105 7.84192 4.13267 7.6048 4.62385 7.6048H6.36838C6.80875 7.6048 6.97812 7.80805 7.1475 8.28229C8.01129 10.772 9.45092 12.957 10.0437 12.957C10.264 12.957 10.3656 12.8553 10.3656 12.2964V9.72194C10.2978 8.53635 9.67117 8.43472 9.67117 8.01129C9.67117 7.80804 9.84055 7.6048 10.1115 7.6048H12.8553C13.228 7.6048 13.3635 7.80804 13.3635 8.24841V11.7205C13.3635 12.0931 13.5328 12.2286 13.6344 12.2286C13.8546 12.2286 14.0409 12.0931 14.4474 11.6866C15.7008 10.2809 16.5984 8.11291 16.5984 8.11291C16.717 7.85886 16.9203 7.62174 17.3606 7.62174H19.1051C19.6302 7.62174 19.7488 7.89273 19.6302 8.26535C19.41 9.28154 17.2759 12.2964 17.2759 12.2964C17.0897 12.6013 17.0219 12.7368 17.2759 13.0755C17.4622 13.3296 18.072 13.8546 18.4784 14.3288C19.2237 15.1758 19.7995 15.8871 19.952 16.3782C20.1214 16.8694 19.8673 17.1235 19.3761 17.1235Z" fill="#9CAAD1"/>
</svg>
