<svg width="26" height="19" viewBox="0 0 26 19" fill="none" xmlns="http://www.w3.org/2000/svg">
<path fill-rule="evenodd" clip-rule="evenodd" d="M10.3409 13.5098V5.49023L17.1364 9.50015L10.3409 13.5098ZM25.4567 2.96691C25.1577 1.79902 24.2766 0.879363 23.158 0.567242C21.1305 -1.12477e-07 13 0 13 0C13 0 4.86953 -1.12477e-07 2.84198 0.567242C1.72339 0.879363 0.842341 1.79902 0.543341 2.96691C0 5.08357 0 9.5 0 9.5C0 9.5 0 13.9163 0.543341 16.0331C0.842341 17.201 1.72339 18.1206 2.84198 18.4329C4.86953 19 13 19 13 19C13 19 21.1305 19 23.158 18.4329C24.2766 18.1206 25.1577 17.201 25.4567 16.0331C26 13.9163 26 9.5 26 9.5C26 9.5 26 5.08357 25.4567 2.96691Z" fill="#9CAAD1"/>
</svg>
