<svg width="45" height="45" viewBox="0 0 45 45" fill="none" xmlns="http://www.w3.org/2000/svg">
<g clip-path="url(#clip0_956_35220)">
<path d="M44.7905 14.5438C32.5099 2.23074 12.5728 2.20439 0.259832 14.485C0.240208 14.5046 0.220584 14.5242 0.200959 14.5438C-0.0740512 14.8286 -0.0661657 15.2825 0.218612 15.5575C0.4964 15.8258 0.936829 15.8258 1.21462 15.5575C12.9369 3.80544 31.9666 3.78134 43.7186 15.5036C43.7367 15.5216 43.7546 15.5396 43.7725 15.5575C44.0524 15.8386 44.5072 15.8396 44.7883 15.5596C45.0694 15.2797 45.0703 14.8249 44.7905 14.5438Z" fill="white"/>
<path d="M40.7383 18.5962C35.912 13.7393 29.3432 11.0152 22.4961 11.0311C15.649 11.0152 9.08016 13.7393 4.25382 18.5962C3.97881 18.881 3.98669 19.3349 4.27147 19.6099C4.54926 19.8782 4.98969 19.8782 5.26747 19.6099C14.7659 10.0948 30.1793 10.0813 39.6945 19.5797C39.7046 19.5897 39.7147 19.5999 39.7247 19.6099C40.0095 19.885 40.4632 19.8771 40.7383 19.5923C41.0066 19.3145 41.0066 18.874 40.7383 18.5962Z" fill="white"/>
<path d="M36.6815 22.6536C32.9306 18.8729 27.8215 16.7524 22.496 16.7659C17.1704 16.7524 12.0614 18.8729 8.3105 22.6536C8.03074 22.9339 8.03128 23.388 8.31157 23.6676C8.59187 23.9473 9.04592 23.9469 9.32559 23.6666C16.5776 16.3927 28.3531 16.3751 35.6269 23.627C35.64 23.6402 35.6532 23.6534 35.6664 23.6666C35.9461 23.9469 36.4001 23.9473 36.6804 23.6676C36.9607 23.3879 36.9611 22.9339 36.6815 22.6536Z" fill="white"/>
<path d="M32.6302 26.7043C29.949 24.0059 26.2997 22.4924 22.4957 22.5013C18.6918 22.4924 15.0425 24.0059 12.3613 26.7043C12.0862 26.9891 12.0941 27.4428 12.3789 27.7179C12.6567 27.9862 13.0971 27.9862 13.375 27.7179C18.4027 22.6807 26.5619 22.673 31.5992 27.7006C31.605 27.7064 31.6108 27.7121 31.6165 27.7179C31.9013 27.993 32.3551 27.9851 32.6302 27.7004C32.8985 27.4226 32.8985 26.9821 32.6302 26.7043Z" fill="white"/>
<path d="M28.5959 30.7707C28.5901 30.7648 28.5843 30.759 28.5784 30.7533C26.9666 29.1383 24.7774 28.2324 22.4957 28.2363C20.214 28.2324 18.0249 29.1383 16.4131 30.7533C16.1276 31.0276 16.1185 31.4814 16.3928 31.7669C16.6671 32.0523 17.1209 32.0614 17.4064 31.7871C17.4123 31.7815 17.4181 31.7756 17.4239 31.7697C20.2256 28.97 24.7659 28.97 27.5676 31.7697C27.8435 32.0537 28.2974 32.0601 28.5813 31.7842C28.8653 31.5083 28.8718 31.0546 28.5959 30.7707Z" fill="white"/>
<path d="M24.5249 34.8138C24.5241 34.813 24.5235 34.8124 24.5228 34.8117C23.3894 33.7272 21.603 33.7272 20.4696 34.8117C19.3492 35.9309 19.3483 37.7466 20.4675 38.867C21.5868 39.9873 23.4024 39.9882 24.5228 38.869C25.6432 37.7497 25.6441 35.9341 24.5249 34.8138ZM22.4962 38.272C21.7043 38.272 21.0625 37.6302 21.0625 36.8383C21.0625 36.0464 21.7043 35.4045 22.4962 35.4045C23.2881 35.4045 23.9299 36.0464 23.9299 36.8383C23.9299 37.6302 23.288 38.272 22.4962 38.272Z" fill="white"/>
</g>
<defs>
<clipPath id="clip0_956_35220">
<rect width="45" height="45" fill="white"/>
</clipPath>
</defs>
</svg>
