<svg width="45" height="37" viewBox="0 0 45 37" fill="none" xmlns="http://www.w3.org/2000/svg">
<path d="M42.9785 0H2.02148C1.48552 0.000629298 0.971677 0.240854 0.592696 0.667962C0.213715 1.09507 0.000558389 1.67417 0 2.27819L0 29.2179C0.000651249 29.8219 0.213838 30.4009 0.592798 30.828C0.971759 31.2551 1.48555 31.4954 2.02148 31.4961H5.49598L4.41738 33.2552C4.10636 33.7809 3.99107 34.4233 4.09638 35.0438C4.20168 35.6644 4.51914 36.2135 4.98032 36.5728C5.4415 36.932 6.00947 37.0726 6.5618 36.9643C7.11413 36.8561 7.60658 36.5075 7.93301 35.9938L10.6917 31.4961H34.3083L37.0659 35.9934C37.3924 36.5071 37.8848 36.8557 38.4371 36.964C38.9895 37.0722 39.5574 36.9316 40.0186 36.5724C40.4798 36.2131 40.7973 35.664 40.9026 35.0434C41.0079 34.4229 40.8926 33.7805 40.5816 33.2548L39.503 31.4961H42.9775C43.5136 31.4957 44.0276 31.2555 44.4068 30.8284C44.786 30.4013 44.9993 29.8221 45 29.2179V2.27819C44.9994 1.67417 44.7863 1.09507 44.4073 0.667962C44.0283 0.240854 43.5145 0.000629298 42.9785 0ZM6.92191 35.2054C6.8384 35.3413 6.72692 35.4523 6.59699 35.5291C6.46707 35.6058 6.32258 35.6459 6.1759 35.646C6.01047 35.646 5.84819 35.595 5.70662 35.4985C5.56506 35.4021 5.44959 35.2638 5.37273 35.0987C5.29587 34.9336 5.26053 34.748 5.27054 34.5619C5.28055 34.3758 5.33553 34.1963 5.42953 34.0429L6.99152 31.4961H9.19617L6.92191 35.2054ZM39.5705 34.0429C39.6645 34.1963 39.7195 34.3758 39.7295 34.5619C39.7395 34.748 39.7041 34.9336 39.6273 35.0987C39.5504 35.2638 39.4349 35.4021 39.2934 35.4985C39.1518 35.595 38.9895 35.646 38.8241 35.646C38.6774 35.6459 38.5329 35.6058 38.4029 35.529C38.2729 35.4523 38.1613 35.3413 38.0777 35.2054L35.8038 31.4961H38.0085L39.5705 34.0429ZM43.7695 29.2179C43.7693 29.4542 43.6858 29.6808 43.5375 29.8479C43.3893 30.015 43.1882 30.109 42.9785 30.1094H2.02148C1.81178 30.109 1.61074 30.015 1.46246 29.8479C1.31418 29.6808 1.23075 29.4542 1.23047 29.2179V2.27819C1.23075 2.04186 1.31418 1.81529 1.46246 1.64818C1.61074 1.48106 1.81178 1.38704 2.02148 1.38672H42.9785C43.1882 1.38704 43.3893 1.48106 43.5375 1.64818C43.6858 1.81529 43.7693 2.04186 43.7695 2.27819V29.2179Z" fill="white"/>
<path d="M41.5723 3.16919H3.42773C3.34693 3.16914 3.2669 3.18704 3.19224 3.22186C3.11758 3.25669 3.04973 3.30776 2.9926 3.37215C2.93546 3.43655 2.89014 3.51301 2.85924 3.59715C2.82834 3.6813 2.81245 3.77148 2.8125 3.86255V27.6326C2.8125 27.8165 2.87732 27.9929 2.9927 28.1229C3.10808 28.2529 3.26456 28.326 3.42773 28.326H41.5723C41.7354 28.326 41.8919 28.2529 42.0073 28.1229C42.1227 27.9929 42.1875 27.8165 42.1875 27.6326V3.86255C42.1875 3.77148 42.1717 3.6813 42.1408 3.59715C42.1099 3.51301 42.0645 3.43655 42.0074 3.37215C41.9503 3.30776 41.8824 3.25669 41.8078 3.22186C41.7331 3.18704 41.6531 3.16914 41.5723 3.16919ZM40.957 26.9392H4.04297V4.55591H40.957V26.9392Z" fill="white"/>
<path d="M14.5459 12.147H17.1123V20.0442C17.1123 20.2281 17.1771 20.4044 17.2925 20.5345C17.4079 20.6645 17.5644 20.7375 17.7275 20.7375C17.8907 20.7375 18.0472 20.6645 18.1626 20.5345C18.278 20.4044 18.3428 20.2281 18.3428 20.0442V12.147H20.9092C21.0724 12.147 21.2288 12.0739 21.3442 11.9439C21.4596 11.8139 21.5244 11.6375 21.5244 11.4536C21.5244 11.2697 21.4596 11.0934 21.3442 10.9633C21.2288 10.8333 21.0724 10.7603 20.9092 10.7603H14.5459C14.3827 10.7603 14.2262 10.8333 14.1109 10.9633C13.9955 11.0934 13.9307 11.2697 13.9307 11.4536C13.9307 11.6375 13.9955 11.8139 14.1109 11.9439C14.2262 12.0739 14.3827 12.147 14.5459 12.147Z" fill="white"/>
<path d="M26.7046 20.3102C26.7512 20.4366 26.8301 20.5446 26.9311 20.6206C27.0322 20.6966 27.1509 20.7371 27.2724 20.7371C27.3939 20.7371 27.5126 20.6966 27.6137 20.6206C27.7147 20.5446 27.7935 20.4366 27.8402 20.3102L31.0207 11.72C31.0538 11.6356 31.0716 11.5446 31.0731 11.4523C31.0745 11.3601 31.0596 11.2684 31.0293 11.1827C30.9989 11.097 30.9536 11.019 30.8962 10.9533C30.8387 10.8876 30.7702 10.8354 30.6946 10.7999C30.619 10.7644 30.5379 10.7463 30.456 10.7466C30.3741 10.7469 30.2931 10.7656 30.2178 10.8016C30.1424 10.8376 30.0741 10.8902 30.017 10.9564C29.9599 11.0225 29.9151 11.1008 29.8852 11.1867L27.2724 18.2428L24.6596 11.1867C24.5967 11.017 24.4766 10.8824 24.3257 10.8125C24.1748 10.7425 24.0054 10.7431 23.8548 10.8139C23.7043 10.8847 23.5848 11.02 23.5228 11.1901C23.4607 11.3602 23.4612 11.5511 23.524 11.7208L26.7046 20.3102Z" fill="white"/>
</svg>
