<svg width="45" height="45" viewBox="0 0 45 45" fill="none" xmlns="http://www.w3.org/2000/svg">
<path d="M17.2505 30.7497H14.2509V27.7497C14.2509 27.3356 13.9151 26.9998 13.501 26.9998H10.5014C10.0873 26.9998 9.75153 27.3356 9.75153 27.7497V30.7497H6.75197C6.33784 30.7497 6.00208 31.0855 6.00208 31.4997V34.4997C6.00208 34.9138 6.33784 35.2496 6.75197 35.2496H9.75153V38.2496C9.75153 38.6638 10.0873 38.9996 10.5014 38.9996H13.501C13.9151 38.9996 14.2509 38.6638 14.2509 38.2496V35.2496H17.2505C17.6646 35.2496 18.0003 34.9138 18.0003 34.4997V31.4997C18.0003 31.0855 17.6646 30.7497 17.2505 30.7497ZM16.5006 33.7497H13.501C13.0869 33.7497 12.7511 34.0855 12.7511 34.4997V37.4996H11.2513V34.4997C11.2513 34.0855 10.9156 33.7497 10.5014 33.7497H7.50186V32.2497H10.5014C10.9156 32.2497 11.2513 31.9139 11.2513 31.4997V28.4997H12.7511V31.4997C12.7511 31.9139 13.0869 32.2497 13.501 32.2497H16.5006V33.7497Z" fill="white"/>
<path d="M44.9216 31.6293C44.3465 26.4611 39.4932 21.626 34.3212 21.0747C33.8819 21.0263 33.4403 21.0012 32.9984 20.9997H24.7496V17.9998H23.2498V16.4998C23.2498 14.843 21.9068 13.4998 20.2502 13.4998H16.5008C15.6724 13.4998 15.001 12.8283 15.001 11.9998C15.001 11.1714 15.6724 10.4999 16.5008 10.4999H28.499C30.1556 10.4999 31.4986 9.15672 31.4986 7.4999C31.4986 5.84308 30.1556 4.49994 28.499 4.49994H24.7496C23.9212 4.49994 23.2498 3.82842 23.2498 2.99996V0H21.75V2.99996C21.75 4.65678 23.093 5.99992 24.7496 5.99992H28.499C29.3274 5.99992 29.9988 6.67144 29.9988 7.4999C29.9988 8.32836 29.3274 8.99988 28.499 8.99988H16.5008C14.8442 8.99988 13.5012 10.343 13.5012 11.9998C13.5012 13.6567 14.8442 14.9998 16.5008 14.9998H20.2502C21.0786 14.9998 21.75 15.6713 21.75 16.4998V17.9998H20.2502V20.9997H12.0014C11.559 21.0008 11.1168 21.0258 10.6771 21.0747C5.50286 21.6297 0.652567 26.4649 0.0789008 31.6331C-0.674458 38.2174 4.05173 44.166 10.6353 44.9194C13.3162 45.2263 16.0221 44.6203 18.3162 43.1995C19.3039 42.5528 20.4329 42.1538 21.6075 42.0363C22.1877 41.9904 22.7705 41.9884 23.351 42.0303C24.5442 42.1457 25.6913 42.5493 26.694 43.2063C32.3309 46.6904 39.7245 44.9447 43.2081 39.307C44.6256 37.013 45.2293 34.3084 44.9216 31.6293ZM21.75 19.4997H23.2498V20.9997H21.75V19.4997ZM40.8235 40C37.4331 43.7927 31.8109 44.6066 27.4844 41.9312C26.2762 41.1444 24.8941 40.6647 23.4583 40.534C23.1418 40.511 22.8223 40.4995 22.4999 40.4995C22.1587 40.4995 21.825 40.5137 21.489 40.54C20.075 40.6754 18.7147 41.1504 17.5236 41.9244C12.5929 44.9755 6.12274 43.4513 3.072 38.52C1.83008 36.5124 1.30085 34.1449 1.56968 31.7996C2.06311 27.3581 6.39298 23.0442 10.8383 22.5665C11.2245 22.5232 11.6128 22.501 12.0014 22.4997H32.9984C33.3869 22.5 33.7752 22.5207 34.1614 22.562C38.606 23.0397 42.9352 27.3536 43.4301 31.7951C43.7837 34.7779 42.8337 37.7683 40.8235 40Z" fill="white"/>
<path d="M32.9979 25.4995C31.3413 25.4995 29.9983 26.8427 29.9983 28.4995C29.9983 30.1563 31.3413 31.4994 32.9979 31.4994C34.6545 31.4994 35.9974 30.1563 35.9974 28.4995C35.9974 26.8427 34.6545 25.4995 32.9979 25.4995ZM32.9979 29.9995C32.1695 29.9995 31.4981 29.3279 31.4981 28.4995C31.4981 27.671 32.1695 26.9995 32.9979 26.9995C33.8262 26.9995 34.4976 27.671 34.4976 28.4995C34.4976 29.3279 33.8261 29.9995 32.9979 29.9995Z" fill="white"/>
<path d="M32.9979 34.4998C31.3413 34.4998 29.9983 35.8429 29.9983 37.4997C29.9983 39.1565 31.3413 40.4997 32.9979 40.4997C34.6545 40.4997 35.9974 39.1565 35.9974 37.4997C35.9974 35.8429 34.6545 34.4998 32.9979 34.4998ZM32.9979 38.9997C32.1695 38.9997 31.4981 38.3282 31.4981 37.4997C31.4981 36.6713 32.1695 35.9997 32.9979 35.9997C33.8262 35.9997 34.4976 36.6713 34.4976 37.4997C34.4976 38.3282 33.8261 38.9997 32.9979 38.9997Z" fill="white"/>
<path d="M27.7487 29.9993C26.0921 29.9993 24.7491 31.3424 24.7491 32.9992C24.7491 34.6561 26.0921 35.9992 27.7487 35.9992C29.4053 35.9992 30.7483 34.6561 30.7483 32.9992C30.7483 31.3424 29.4053 29.9993 27.7487 29.9993ZM27.7487 34.4992C26.9204 34.4992 26.2489 33.8277 26.2489 32.9992C26.2489 32.1708 26.9204 31.4992 27.7487 31.4992C28.5771 31.4992 29.2485 32.1708 29.2485 32.9992C29.2485 33.8277 28.577 34.4992 27.7487 34.4992Z" fill="white"/>
<path d="M38.2471 29.9993C36.5905 29.9993 35.2476 31.3424 35.2476 32.9992C35.2476 34.6561 36.5905 35.9992 38.2471 35.9992C39.9037 35.9992 41.2467 34.6561 41.2467 32.9992C41.2467 31.3424 39.9037 29.9993 38.2471 29.9993ZM38.2471 34.4992C37.4188 34.4992 36.7473 33.8277 36.7473 32.9992C36.7473 32.1708 37.4188 31.4992 38.2471 31.4992C39.0755 31.4992 39.7469 32.1708 39.7469 32.9992C39.7469 33.8277 39.0754 34.4992 38.2471 34.4992Z" fill="white"/>
</svg>
