<svg width="45" height="38" viewBox="0 0 45 38" fill="none" xmlns="http://www.w3.org/2000/svg">
<path d="M37.5 0H0V37.5H45V0H37.5ZM6 36H1.5V31.5H6V36ZM6 30H1.5V25.5H6V30ZM6 24H1.5V19.5H6V24ZM6 18H1.5V13.5H6V18ZM6 12H1.5V7.5H6V12ZM6 6H1.5V1.5H6V6ZM37.5 36H7.5V1.5H37.5V36ZM43.5 36H39V31.5H43.5V36ZM43.5 30H39V25.5H43.5V30ZM43.5 24H39V19.5H43.5V24ZM43.5 18H39V13.5H43.5V18ZM43.5 12H39V7.5H43.5V12ZM43.5 6H39V1.5H43.5V6Z" fill="white"/>
<path d="M28.4041 18.3752C28.3377 18.2592 28.2416 18.1631 28.1256 18.0967L17.6256 12.0967C17.2669 11.8896 16.8082 12.0125 16.6011 12.3712C16.5346 12.4863 16.4999 12.617 16.5006 12.7499V24.7499C16.5009 25.0176 16.6437 25.2648 16.8756 25.3987C17.1076 25.5327 17.3936 25.5327 17.6256 25.3987L28.1256 19.3987C28.4851 19.193 28.6098 18.7348 28.4041 18.3752ZM18.0006 23.4569V14.0429L26.2386 18.7499L18.0006 23.4569Z" fill="white"/>
</svg>
