<svg width="40" height="46" viewBox="0 0 40 46" fill="none" xmlns="http://www.w3.org/2000/svg">
<path d="M9.40612 32.6827C8.42198 32.0329 7.12453 32.0686 6.17781 32.7714C5.88076 32.9919 5.81869 33.4115 6.0392 33.7085C6.17067 33.8855 6.37278 33.9791 6.57758 33.9791C6.71637 33.9791 6.85632 33.9361 6.97627 33.847C7.47241 33.4786 8.15226 33.4601 8.66795 33.8006C8.97662 34.0044 9.39219 33.9195 9.596 33.6107C9.79982 33.302 9.71488 32.8865 9.40612 32.6827Z" fill="white"/>
<path d="M11.1279 30.3908C9.14343 28.9892 6.48895 29.0061 4.52245 30.433C4.22298 30.6503 4.15644 31.0692 4.37365 31.3686C4.50468 31.5492 4.70902 31.6451 4.91641 31.6451C5.05279 31.6451 5.19042 31.6036 5.30921 31.5174C6.81128 30.4274 8.83896 30.4144 10.355 31.4851C10.6572 31.6985 11.0752 31.6265 11.2886 31.3244C11.502 31.0222 11.43 30.6042 11.1279 30.3908Z" fill="white"/>
<path d="M12.7678 28.041C9.80463 25.9551 5.83412 25.9712 2.88786 28.081C2.58705 28.2964 2.51783 28.7148 2.73326 29.0155C2.86401 29.1982 3.0697 29.2954 3.27843 29.2954C3.41347 29.2954 3.54976 29.2547 3.66783 29.1701C6.15154 27.3915 9.49856 27.3781 11.9966 29.1365C12.2991 29.3495 12.717 29.2768 12.9299 28.9743C13.1429 28.6719 13.0703 28.254 12.7678 28.041Z" fill="white"/>
<path d="M13.5569 18.6147H2.10172C0.942791 18.6147 0 19.5576 0 20.7165V43.6267C0 44.7857 0.94288 45.7285 2.10172 45.7285H13.5569C14.7158 45.7285 15.6586 44.7856 15.6586 43.6267V20.7166C15.6586 19.5576 14.7158 18.6147 13.5569 18.6147ZM14.3189 43.6268C14.3189 44.047 13.977 44.3888 13.5569 44.3888H2.10172C1.6815 44.3888 1.3397 44.047 1.3397 43.6268V20.7166C1.3397 20.2963 1.68159 19.9545 2.10172 19.9545H13.5569C13.9771 19.9545 14.3189 20.2964 14.3189 20.7166V43.6268Z" fill="white"/>
<path d="M12.1246 40.0925H3.53322C3.16329 40.0925 2.86337 40.3924 2.86337 40.7624C2.86337 41.1323 3.16329 41.4322 3.53322 41.4322H12.1246C12.4946 41.4322 12.7945 41.1323 12.7945 40.7624C12.7945 40.3924 12.4946 40.0925 12.1246 40.0925Z" fill="white"/>
<path d="M8.54476 42.2407H7.11289C6.74295 42.2407 6.44304 42.5406 6.44304 42.9106C6.44304 43.2805 6.74295 43.5804 7.11289 43.5804H8.54476C8.91469 43.5804 9.21461 43.2805 9.21461 42.9106C9.21461 42.5406 8.91469 42.2407 8.54476 42.2407Z" fill="white"/>
<path d="M38.6141 21.4784H38.5681V2.81765C38.5681 1.26396 37.3041 0 35.7504 0H8.54441C6.99072 0 5.72676 1.26396 5.72676 2.81765V16.4207C5.72676 16.7906 6.02667 17.0905 6.39661 17.0905C6.76655 17.0905 7.06646 16.7906 7.06646 16.4207V2.81765C7.06646 2.00267 7.72943 1.3397 8.54441 1.3397H35.7504C36.5654 1.3397 37.2283 2.00267 37.2283 2.81765V21.4784H17.8517C17.4818 21.4784 17.1819 21.7783 17.1819 22.1483C17.1819 22.5182 17.4818 22.8181 17.8517 22.8181H20.0481C20.047 22.8334 20.0457 22.8487 20.0457 22.8642C20.0457 23.2341 20.3456 23.534 20.7156 23.534H23.5793C23.9493 23.534 24.2492 23.2341 24.2492 22.8642C24.2492 22.8487 24.2479 22.8334 24.2468 22.8181H38.6142C38.6397 22.8181 38.6603 22.8387 38.6603 22.8642V24.2961C38.6603 24.3215 38.6397 24.3421 38.6142 24.3421H17.8517C17.4818 24.3421 17.1819 24.6421 17.1819 25.012C17.1819 25.3819 17.4818 25.6818 17.8517 25.6818H38.6142C39.3784 25.6818 40 25.0602 40 24.2961V22.8642C40 22.1 39.3783 21.4784 38.6141 21.4784Z" fill="white"/>
<path d="M35.0341 2.86328H9.25998C8.89005 2.86328 8.59013 3.1632 8.59013 3.53313V16.4202C8.59013 16.7902 8.89005 17.0901 9.25998 17.0901C9.62992 17.0901 9.92983 16.7902 9.92983 16.4202V4.20298H34.3642V18.6141H17.8514C17.4814 18.6141 17.1815 18.914 17.1815 19.284C17.1815 19.6539 17.4814 19.9538 17.8514 19.9538H35.0341C35.404 19.9538 35.7039 19.6539 35.7039 19.284V3.53313C35.7039 3.1632 35.404 2.86328 35.0341 2.86328Z" fill="white"/>
</svg>
