<svg width="47" height="40" viewBox="0 0 47 40" fill="none" xmlns="http://www.w3.org/2000/svg">
<g clip-path="url(#clip0_956_32399)">
<path d="M21.7143 3.15637H1.14286C0.511667 3.15637 0 3.68631 0 4.34005V16.9659C0 17.6196 0.511667 18.1496 1.14286 18.1496H7.66933L6.65333 19.7278H4.57143C4.36105 19.7278 4.19048 19.9045 4.19048 20.1224C4.19048 20.3403 4.36105 20.5169 4.57143 20.5169H18.2857C18.4961 20.5169 18.6667 20.3403 18.6667 20.1224C18.6667 19.9045 18.4961 19.7278 18.2857 19.7278H16.2038L15.1878 18.1496H21.7143C22.3455 18.1496 22.8571 17.6196 22.8571 16.9659V4.34005C22.8571 3.68631 22.3455 3.15637 21.7143 3.15637ZM15.288 19.7278H7.56914L8.58476 18.1496H14.2724L15.288 19.7278ZM22.0952 16.9659C22.0952 17.1838 21.9247 17.3605 21.7143 17.3605H1.14286C0.932476 17.3605 0.761905 17.1838 0.761905 16.9659V4.34005C0.761905 4.12215 0.932476 3.94549 1.14286 3.94549H21.7143C21.9247 3.94549 22.0952 4.12215 22.0952 4.34005V16.9659Z" fill="white"/>
<path d="M1.14276 4.33997V16.9658H21.7142V4.33997H1.14276ZM20.9523 16.1767H1.90467V5.12908H20.9523V16.1767Z" fill="white"/>
</g>
<g clip-path="url(#clip1_956_32399)">
<path d="M45.3467 20.1904H24.0405C23.3868 20.1904 22.8569 20.7021 22.8569 21.3333V33.5238C22.8569 34.155 23.3868 34.6666 24.0405 34.6666H30.8001L29.7478 36.1904H27.5916C27.3737 36.1904 27.197 36.361 27.197 36.5714C27.197 36.7818 27.3737 36.9523 27.5916 36.9523H41.7956C42.0135 36.9523 42.1902 36.7818 42.1902 36.5714C42.1902 36.361 42.0135 36.1904 41.7956 36.1904H39.6394L38.5871 34.6666H45.3467C46.0004 34.6666 46.5303 34.155 46.5303 33.5238V21.3333C46.5303 20.7021 46.0004 20.1904 45.3467 20.1904ZM38.6909 36.1904H30.6963L31.7482 34.6666H37.639L38.6909 36.1904ZM45.7412 33.5238C45.7412 33.7341 45.5646 33.9047 45.3467 33.9047H24.0405C23.8227 33.9047 23.646 33.7341 23.646 33.5238V21.3333C23.646 21.1229 23.8227 20.9523 24.0405 20.9523H45.3467C45.5646 20.9523 45.7412 21.1229 45.7412 21.3333V33.5238Z" fill="white"/>
<path d="M24.0406 21.3334V33.5238H45.3467V21.3334H24.0406ZM44.5576 32.7619H24.8297V22.0953H44.5576V32.7619Z" fill="white"/>
</g>
<defs>
<clipPath id="clip0_956_32399">
<rect width="22.8571" height="23.6735" fill="white"/>
</clipPath>
<clipPath id="clip1_956_32399">
<rect width="23.6735" height="22.8571" fill="white" transform="translate(22.8569 17.1431)"/>
</clipPath>
</defs>
</svg>
