<svg width="45" height="45" viewBox="0 0 45 45" fill="none" xmlns="http://www.w3.org/2000/svg">
<path d="M41.9901 8.20276C41.9864 8.13721 41.9736 8.07202 41.952 8.01013C41.9435 7.98596 41.9377 7.96289 41.9271 7.93945C41.8908 7.85779 41.8403 7.78345 41.7773 7.71973L34.2773 0.219727C34.2121 0.156006 34.1359 0.105103 34.0521 0.0695801C34.0305 0.0600586 34.0096 0.053833 33.9876 0.0465088C33.9221 0.0234375 33.8539 0.00952144 33.7844 0.00585938C33.777 0.00732422 33.7642 0 33.7499 0H3.74994C3.33575 0 2.99994 0.335815 2.99994 0.75V44.25C2.99994 44.6642 3.33575 45 3.74994 45H41.2499C41.6641 45 41.9999 44.6642 41.9999 44.25V8.25C41.9999 8.23352 41.9915 8.21924 41.9901 8.20276ZM39.4394 7.5H34.4999V2.56055L39.4394 7.5ZM4.49994 43.5V1.5H32.9999V8.25C32.9999 8.66418 33.3358 9 33.7499 9H40.4999V43.5H4.49994Z" fill="white"/>
<path d="M9.75006 4.5H6.75006C6.33588 4.5 6.00006 4.83582 6.00006 5.25V9.75C6.00006 10.1642 6.33588 10.5 6.75006 10.5H9.75006C10.1642 10.5 10.5001 10.1642 10.5001 9.75V5.25C10.5001 4.83582 10.1642 4.5 9.75006 4.5ZM9.00006 9H7.50006V6H9.00006V9Z" fill="white"/>
<path d="M9.75006 12H6.75006C6.33588 12 6.00006 12.3358 6.00006 12.75V17.25C6.00006 17.6642 6.33588 18 6.75006 18H9.75006C10.1642 18 10.5001 17.6642 10.5001 17.25V12.75C10.5001 12.3358 10.1642 12 9.75006 12ZM9.00006 16.5H7.50006V13.5H9.00006V16.5Z" fill="white"/>
<path d="M9.75006 19.5H6.75006C6.33588 19.5 6.00006 19.8358 6.00006 20.25V24.75C6.00006 25.1642 6.33588 25.5 6.75006 25.5H9.75006C10.1642 25.5 10.5001 25.1642 10.5001 24.75V20.25C10.5001 19.8358 10.1642 19.5 9.75006 19.5ZM9.00006 24H7.50006V21H9.00006V24Z" fill="white"/>
<path d="M9.75006 27H6.75006C6.33588 27 6.00006 27.3358 6.00006 27.75V32.25C6.00006 32.6642 6.33588 33 6.75006 33H9.75006C10.1642 33 10.5001 32.6642 10.5001 32.25V27.75C10.5001 27.3358 10.1642 27 9.75006 27ZM9.00006 31.5H7.50006V28.5H9.00006V31.5Z" fill="white"/>
<path d="M9.75006 34.5H6.75006C6.33588 34.5 6.00006 34.8358 6.00006 35.25V39.75C6.00006 40.1642 6.33588 40.5 6.75006 40.5H9.75006C10.1642 40.5 10.5001 40.1642 10.5001 39.75V35.25C10.5001 34.8358 10.1642 34.5 9.75006 34.5ZM9.00006 39H7.50006V36H9.00006V39Z" fill="white"/>
<path d="M38.2499 12H35.2499C34.8358 12 34.4999 12.3358 34.4999 12.75V17.25C34.4999 17.6642 34.8358 18 35.2499 18H38.2499C38.6641 18 38.9999 17.6642 38.9999 17.25V12.75C38.9999 12.3358 38.6641 12 38.2499 12ZM37.4999 16.5H35.9999V13.5H37.4999V16.5Z" fill="white"/>
<path d="M38.2499 19.5H35.2499C34.8358 19.5 34.4999 19.8358 34.4999 20.25V24.75C34.4999 25.1642 34.8358 25.5 35.2499 25.5H38.2499C38.6641 25.5 38.9999 25.1642 38.9999 24.75V20.25C38.9999 19.8358 38.6641 19.5 38.2499 19.5ZM37.4999 24H35.9999V21H37.4999V24Z" fill="white"/>
<path d="M38.2499 27H35.2499C34.8358 27 34.4999 27.3358 34.4999 27.75V32.25C34.4999 32.6642 34.8358 33 35.2499 33H38.2499C38.6641 33 38.9999 32.6642 38.9999 32.25V27.75C38.9999 27.3358 38.6641 27 38.2499 27ZM37.4999 31.5H35.9999V28.5H37.4999V31.5Z" fill="white"/>
<path d="M38.2499 34.5H35.2499C34.8358 34.5 34.4999 34.8358 34.4999 35.25V39.75C34.4999 40.1642 34.8358 40.5 35.2499 40.5H38.2499C38.6641 40.5 38.9999 40.1642 38.9999 39.75V35.25C38.9999 34.8358 38.6641 34.5 38.2499 34.5ZM37.4999 39H35.9999V36H37.4999V39Z" fill="white"/>
<path d="M28.835 21.8284L16.835 15.8284C16.6024 15.7123 16.3263 15.7248 16.1055 15.8614C15.8843 15.9984 15.7499 16.2397 15.7499 16.4997V28.4997C15.7484 28.7605 15.8825 29.0029 16.1036 29.1406C16.3252 29.2783 16.6021 29.2911 16.835 29.1746L28.835 23.1746C29.0899 23.0479 29.2506 22.7879 29.2506 22.5034C29.2506 22.2192 29.0899 21.9592 28.835 21.8321V21.8284ZM17.2499 27.2861V17.7133L26.823 22.4997L17.2499 27.2861Z" fill="white"/>
</svg>
