<svg width="43" height="43" viewBox="0 0 43 43" fill="none" xmlns="http://www.w3.org/2000/svg">
<g clip-path="url(#clip0_956_32491)">
<path d="M21.2505 34.1592C21.0212 34.1592 20.7919 34.0715 20.6163 33.8977L9.10125 22.3826C8.76442 22.0458 8.75008 21.5065 9.06542 21.1517L17.6959 11.4839C23.7284 4.42654 33.5521 -0.140422 42.1181 0.00470315C42.5965 0.0154532 42.9817 0.400662 42.9924 0.879037C43.1913 9.45037 38.5724 19.2687 31.4971 25.3138L21.8454 33.9317C21.677 34.084 21.462 34.1592 21.2505 34.1592ZM10.9664 21.7143L21.2846 32.0325L30.32 23.9665C36.7807 18.4445 41.0718 9.64387 41.2043 1.79458C33.355 1.92537 24.5562 6.21641 19.045 12.6628L10.9664 21.7143Z" fill="white"/>
<path d="M24.6816 40.7175C24.5956 40.7175 24.5078 40.7049 24.4254 40.6781C24.1029 40.5706 23.8378 40.3233 23.7912 39.9865L22.5621 31.4098C22.4922 30.9206 22.8326 30.4674 23.3218 30.3957C23.8109 30.3186 24.2642 30.6644 24.3358 31.1554L25.2962 37.8562C28.4352 34.1026 30.1802 29.344 30.1802 24.4921C30.1802 23.9976 30.5816 23.5963 31.0761 23.5963C31.5706 23.5963 31.9719 23.9976 31.9719 24.4921C31.9719 30.4279 29.5675 36.2383 25.375 40.429C25.1958 40.6082 24.9342 40.7175 24.6816 40.7175Z" fill="white"/>
<path d="M11.719 20.4465C11.6778 20.4465 11.6348 20.4447 11.5918 20.4375L3.01508 19.2085C2.67825 19.1601 2.39696 18.9254 2.29125 18.6011C2.18554 18.2786 2.27154 17.922 2.51341 17.6838C6.76504 13.4321 12.5736 11.0277 18.5094 11.0277C19.0039 11.0277 19.4052 11.429 19.4052 11.9235C19.4052 12.418 19.0039 12.8194 18.5094 12.8194C13.6343 12.8194 8.85054 14.5806 5.13641 17.7017L11.8462 18.6638C12.3353 18.7355 12.6757 19.187 12.6059 19.6779C12.5396 20.124 12.1562 20.4465 11.719 20.4465Z" fill="white"/>
<path d="M30.6964 16.7806C29.548 16.7806 28.4013 16.3435 27.5288 15.4709C25.7837 13.7241 25.7837 10.8825 27.5288 9.1356C29.2756 7.38872 32.1172 7.38872 33.8641 9.1356C35.6092 10.8825 35.6092 13.7241 33.8641 15.4709C32.9897 16.3453 31.8431 16.7806 30.6964 16.7806ZM30.6964 9.61755C30.0084 9.61755 29.3186 9.87914 28.7955 10.4023C27.7491 11.4504 27.7491 13.1561 28.7955 14.2042C29.8436 15.2506 31.5492 15.2488 32.5974 14.2042C33.6437 13.1561 33.6437 11.4504 32.5974 10.4023C32.0724 9.88093 31.3844 9.61755 30.6964 9.61755ZM33.2298 14.8385H33.2477H33.2298Z" fill="white"/>
<path d="M0.895502 43.0003C0.660794 43.0003 0.433252 42.9089 0.261252 42.7387C0.0283356 42.5058 -0.0576645 42.1636 0.0372939 41.8482C0.331127 40.8682 2.96309 32.2073 4.88017 30.2902C7.03913 28.1312 10.5526 28.1294 12.7115 30.2902C14.8705 32.4491 14.8705 35.9626 12.7115 38.1216C10.7945 40.0386 2.13354 42.6706 1.1535 42.9644C1.0675 42.9877 0.981502 43.0003 0.895502 43.0003ZM8.79675 30.4604C7.83642 30.4604 6.87788 30.8259 6.14688 31.5551C5.11309 32.5907 3.39309 37.215 2.25717 40.7428C5.78317 39.6068 10.4093 37.8868 11.443 36.8531C12.9033 35.3928 12.9033 33.0153 11.443 31.5551C10.7138 30.8259 9.75529 30.4604 8.79675 30.4604Z" fill="white"/>
</g>
<defs>
<clipPath id="clip0_956_32491">
<rect width="43" height="43" fill="white"/>
</clipPath>
</defs>
</svg>
