<svg width="43" height="43" viewBox="0 0 43 43" fill="none" xmlns="http://www.w3.org/2000/svg">
<g clip-path="url(#clip0_956_32503)">
<path d="M10.0329 35.8331H8.59959C7.80798 35.8331 7.16626 36.4749 7.16626 37.2665V38.6998C7.16626 39.4914 7.80798 40.1331 8.59959 40.1331H10.0329C10.8245 40.1331 11.4663 39.4914 11.4663 38.6998V37.2665C11.4663 36.4749 10.8245 35.8331 10.0329 35.8331ZM8.59959 38.6998V37.2665H10.0329V38.6998H8.59959Z" fill="white"/>
<path d="M15.767 35.8331H14.3337C13.5421 35.8331 12.9004 36.4749 12.9004 37.2665V38.6998C12.9004 39.4914 13.5421 40.1331 14.3337 40.1331H15.767C16.5586 40.1331 17.2004 39.4914 17.2004 38.6998V37.2665C17.2004 36.4749 16.5586 35.8331 15.767 35.8331ZM14.3337 38.6998V37.2665H15.767V38.6998H14.3337Z" fill="white"/>
<path d="M21.4995 35.8331H20.0662C19.2746 35.8331 18.6329 36.4749 18.6329 37.2665V38.6998C18.6329 39.4914 19.2746 40.1331 20.0662 40.1331H21.4995C22.2911 40.1331 22.9329 39.4914 22.9329 38.6998V37.2665C22.9329 36.4749 22.2911 35.8331 21.4995 35.8331ZM20.0662 38.6998V37.2665H21.4995V38.6998H20.0662Z" fill="white"/>
<path d="M27.2338 35.8331H25.8005C25.0089 35.8331 24.3671 36.4749 24.3671 37.2665V38.6998C24.3671 39.4914 25.0089 40.1331 25.8005 40.1331H27.2338C28.0254 40.1331 28.6671 39.4914 28.6671 38.6998V37.2665C28.6671 36.4749 28.0254 35.8331 27.2338 35.8331ZM25.8005 38.6998V37.2665H27.2338V38.6998H25.8005Z" fill="white"/>
<path d="M15.7673 21.4998H20.0673C20.4631 21.4998 20.7839 21.1789 20.7839 20.7831C20.7839 20.3873 20.4631 20.0664 20.0673 20.0664H15.7673C15.3715 20.0664 15.0506 20.3873 15.0506 20.7831C15.0506 21.1789 15.3715 21.4998 15.7673 21.4998Z" fill="white"/>
<path d="M19.3493 22.9335C19.3493 22.5377 19.0284 22.2168 18.6326 22.2168H17.1993C16.8035 22.2168 16.4826 22.5377 16.4826 22.9335C16.4826 23.3293 16.8035 23.6501 17.1993 23.6501H18.6326C19.0284 23.6501 19.3493 23.3293 19.3493 22.9335Z" fill="white"/>
<path d="M40.172 -5.1946e-05H40.0946C38.9241 -0.00942017 37.9621 0.921034 37.9325 2.09118L37.4222 20.7833H35.8333C35.831 18.8052 34.228 17.2023 32.25 17.1999H3.58333C1.6053 17.2023 0.00236939 18.8052 0 20.7833V39.4166C0.00236939 41.3947 1.6053 42.9976 3.58333 43H32.25C34.228 42.9976 35.831 41.3947 35.8333 39.4166V26.5166H37.2667C37.2667 26.8974 37.4182 27.2625 37.6877 27.5314C37.9573 27.8003 38.3228 27.9509 38.7036 27.95H41.5574C41.9459 27.9526 42.3189 27.7974 42.5909 27.5199C42.8629 27.2424 43.0105 26.8663 43 26.4779L42.3342 2.0919C42.3049 0.921469 41.3428 -0.00941249 40.172 -5.1946e-05ZM34.4 39.4166C34.4 40.604 33.4374 41.5666 32.25 41.5666H3.58333C2.39592 41.5666 1.43333 40.604 1.43333 39.4166V20.7833C1.43333 19.5959 2.39592 18.6333 3.58333 18.6333H32.25C33.4374 18.6333 34.4 19.5959 34.4 20.7833V39.4166ZM35.8333 22.2166H37.3828L37.3047 25.0833H35.8333V22.2166ZM38.7 26.5166L39.3658 2.1306C39.3763 1.73759 39.7015 1.42646 40.0946 1.43328H40.172C40.5651 1.42646 40.8903 1.73759 40.9009 2.1306L41.5602 26.5166H38.7Z" fill="white"/>
<path d="M7.72821 8.72266C10.172 5.63071 13.8964 3.82714 17.8375 3.82714C21.7786 3.82714 25.503 5.63071 27.9468 8.72266C28.1955 9.02261 28.6383 9.06889 28.9437 8.82687C29.249 8.58484 29.3051 8.14319 29.0698 7.83256C26.3541 4.39753 22.216 2.39392 17.8371 2.39392C13.4583 2.39392 9.32015 4.39753 6.60447 7.83256C6.35868 8.14287 6.41098 8.59368 6.72129 8.83948C7.0316 9.08527 7.48241 9.03297 7.72821 8.72266Z" fill="white"/>
<path d="M24.5821 11.3897C24.7409 11.5917 24.9957 11.6932 25.2499 11.6558C25.5041 11.6185 25.7188 11.4479 25.8127 11.2087C25.9066 10.9696 25.8653 10.6985 25.7044 10.4981C23.8013 8.09625 20.9049 6.6958 17.8405 6.6958C14.776 6.6958 11.8796 8.09625 9.97647 10.4981C9.73279 10.8082 9.78538 11.2568 10.0942 11.5021C10.4029 11.7474 10.8519 11.6972 11.0988 11.3897C12.73 9.33007 15.2132 8.1291 17.8405 8.1291C20.4678 8.1291 22.9509 9.33007 24.5821 11.3897Z" fill="white"/>
<path d="M17.8372 10.9939C16.0834 10.9871 14.4251 11.7923 13.3459 13.1748C13.1017 13.4869 13.1567 13.9378 13.4688 14.182C13.7809 14.4263 14.2319 14.3712 14.4761 14.0591C15.288 13.0287 16.5275 12.4274 17.8394 12.4274C19.1512 12.4274 20.3907 13.0287 21.2027 14.0591C21.3607 14.2606 21.6142 14.3626 21.8677 14.3265C22.1211 14.2904 22.3361 14.1219 22.4317 13.8843C22.5272 13.6467 22.4887 13.3763 22.3307 13.1748C21.2511 11.7917 19.5918 10.9864 17.8372 10.9939Z" fill="white"/>
</g>
<defs>
<clipPath id="clip0_956_32503">
<rect width="43" height="43" fill="white"/>
</clipPath>
</defs>
</svg>
