<svg width="48" height="34" viewBox="0 0 48 34" fill="none" xmlns="http://www.w3.org/2000/svg">
<path d="M39.52 13.1172C41.4303 11.8279 42.689 9.64354 42.689 7.1707C42.689 3.21689 39.4723 0.000187339 35.5185 0.000187339C31.5647 0.000187339 28.348 3.21689 28.348 7.1707C28.348 9.64241 29.6054 11.8259 31.5143 13.1155C30.1237 13.5863 28.8217 14.3032 27.6658 15.2431C26.6877 14.3024 25.375 13.7606 23.9927 13.7606C22.6105 13.7606 21.2979 14.3026 20.3204 15.2431C19.164 14.3032 17.8619 13.5863 16.471 13.1154C18.38 11.8258 19.6374 9.64232 19.6374 7.17052C19.6374 3.2167 16.4207 0 12.4669 0C8.51354 0 5.29731 3.2167 5.29731 7.17052C5.29731 9.64335 6.55571 11.8276 8.46575 13.117C3.55588 14.7854 0.0119026 19.4362 0.0013121 24.9008C0.00103093 24.9091 0 24.917 0 24.9253C0 26.3698 0.820811 28.5017 4.73142 30.4548C7.51794 31.8466 11.3472 32.8928 15.8053 33.4801C18.4203 33.825 21.175 34 23.9927 34C26.8111 34 29.566 33.8251 32.181 33.4801C36.6387 32.8928 40.4677 31.8466 43.2541 30.4548C47.1645 28.5016 47.9853 26.3698 47.9853 24.9253C47.9853 19.4502 44.4375 14.7881 39.52 13.1172ZM30.2298 7.1707C30.2298 4.25447 32.6023 1.88202 35.5185 1.88202C38.4346 1.88202 40.8072 4.25457 40.8072 7.1707C40.8072 10.0865 38.4346 12.4585 35.5185 12.4585C32.6023 12.4585 30.2298 10.0865 30.2298 7.1707ZM21.1853 17.1124C21.8246 16.192 22.8739 15.6424 23.9926 15.6424C25.1119 15.6424 26.1616 16.192 26.8008 17.1124C26.8009 17.1127 26.8011 17.1128 26.8012 17.113C27.2001 17.6865 27.4107 18.3599 27.4107 19.0606C27.4107 20.9455 25.8774 22.4789 23.9925 22.4789C22.1082 22.4789 20.5753 20.9454 20.5753 19.0606C20.5753 18.3588 20.7859 17.6856 21.1853 17.1124ZM7.17895 7.1707C7.17895 4.25447 9.55104 1.88202 12.4667 1.88202C15.3829 1.88202 17.7554 4.25457 17.7554 7.1707C17.7554 10.0865 15.3828 12.4585 12.4667 12.4585C9.55104 12.4585 7.17895 10.0865 7.17895 7.1707ZM14.9878 31.4633C11.1935 30.8855 7.9545 29.9612 5.57238 28.7714C3.19936 27.5863 1.88989 26.2247 1.8823 24.9365C1.8823 24.9328 1.88286 24.9291 1.88286 24.9253C1.88277 19.0888 6.63078 14.3403 12.4668 14.3403C14.9497 14.3403 17.3185 15.198 19.2141 16.7691C18.8723 17.4794 18.6936 18.2581 18.6936 19.0607C18.6936 20.6987 19.4407 22.1654 20.6116 23.1384C17.3229 24.4755 14.9963 27.7021 14.9878 31.4633ZM31.117 31.7152C28.8285 31.9822 26.4365 32.1184 23.9926 32.1184C21.5493 32.1184 19.1577 31.9822 16.8692 31.7152V31.4841C16.8692 27.5562 20.0647 24.3607 23.9926 24.3607C27.9211 24.3607 31.117 27.5562 31.117 31.4841V31.7152ZM42.4132 28.7713C40.0312 29.9612 36.7926 30.8855 32.9987 31.4632C32.9902 27.702 30.6634 24.4756 27.3744 23.1383C28.5456 22.1653 29.2929 20.6986 29.2929 19.0606C29.2929 18.2589 29.1142 17.4799 28.772 16.769C30.6668 15.1978 33.0353 14.3401 35.5187 14.3401C41.3551 14.3402 46.1035 19.0887 46.1035 24.9252C46.1035 26.2168 44.7929 27.5827 42.4132 28.7713Z" fill="white"/>
</svg>
