<svg width="45" height="45" viewBox="0 0 45 45" fill="none" xmlns="http://www.w3.org/2000/svg">
<g clip-path="url(#clip0_956_32550)">
<path d="M5.76825 30.6H11.9046V29.475H7.03643V20.1273H5.76825V30.6ZM15.1364 20.1273H13.8683V30.6H15.1364V20.1273ZM17.6792 20.1273V30.6H18.8655V22.6432H18.9678L22.2405 30.6H23.386L26.6587 22.6432H26.761V30.6H27.9474V20.1273H26.4337L22.8747 28.8205H22.7519L19.1928 20.1273H17.6792ZM31.7583 20.1273H30.4901V30.6H31.7583V20.1273ZM33.7284 21.2523H37.0215V30.6H38.2897V21.2523H41.5829V20.1273H33.7284V21.2523Z" fill="white"/>
<path fill-rule="evenodd" clip-rule="evenodd" d="M22.5 1.89996C11.1229 1.89996 1.89996 11.1229 1.89996 22.5C1.89996 33.877 11.1229 43.1 22.5 43.1C33.877 43.1 43.1 33.877 43.1 22.5C43.1 11.1229 33.877 1.89996 22.5 1.89996ZM-0.100037 22.5C-0.100037 10.0183 10.0183 -0.100037 22.5 -0.100037C34.9816 -0.100037 45.1 10.0183 45.1 22.5C45.1 34.9816 34.9816 45.1 22.5 45.1C10.0183 45.1 -0.100037 34.9816 -0.100037 22.5Z" fill="white"/>
<path fill-rule="evenodd" clip-rule="evenodd" d="M41.0908 34.9877L3.80908 10.9745L4.89208 9.29309L42.1738 33.3063L41.0908 34.9877Z" fill="white"/>
</g>
<defs>
<clipPath id="clip0_956_32550">
<rect width="45" height="45" fill="white"/>
</clipPath>
</defs>
</svg>
