<svg width="50" height="50" viewBox="0 0 50 50" fill="none" xmlns="http://www.w3.org/2000/svg">
<path d="M8.76287 41.9245C8.58368 41.9245 8.41185 41.8533 8.28517 41.7266C4.40525 37.8451 1.99586 32.7351 1.46979 27.2722C0.943723 21.8093 2.33372 16.3335 5.40165 11.783C8.46957 7.23238 13.0245 3.89029 18.2859 2.32927C23.5474 0.768244 29.188 1.08546 34.2412 3.22656C34.4063 3.29645 34.5368 3.42904 34.6041 3.59516C34.6714 3.76129 34.6699 3.94733 34.6 4.11238C34.5301 4.27742 34.3976 4.40794 34.2314 4.47522C34.0653 4.54251 33.8793 4.54105 33.7142 4.47116C28.9492 2.44718 23.6284 2.14438 18.6645 3.6147C13.7006 5.08503 9.40304 8.23683 6.50901 12.5294C3.61498 16.8221 2.30486 21.988 2.80339 27.141C3.30192 32.294 5.57802 37.1129 9.24125 40.7712C9.33571 40.8657 9.40004 40.986 9.4261 41.1171C9.45216 41.2481 9.43878 41.384 9.38765 41.5074C9.33652 41.6309 9.24994 41.7364 9.13885 41.8106C9.02777 41.8849 8.89716 41.9245 8.76354 41.9245H8.76287Z" fill="black"/>
<path d="M24.9322 48.6253C21.0653 48.6323 17.2566 47.6832 13.8451 45.8625C13.7656 45.8213 13.6952 45.7647 13.6378 45.6961C13.5804 45.6274 13.5372 45.5481 13.5107 45.4626C13.4842 45.3771 13.475 45.2872 13.4836 45.1982C13.4921 45.1091 13.5182 45.0226 13.5605 44.9437C13.6027 44.8648 13.6602 44.7951 13.7296 44.7386C13.799 44.6821 13.8789 44.64 13.9647 44.6147C14.0506 44.5893 14.1406 44.5813 14.2295 44.591C14.3185 44.6007 14.4046 44.628 14.4829 44.6713C19.1986 47.1922 24.6632 47.9349 29.8806 46.7639C35.0981 45.5929 39.7212 42.5863 42.9073 38.2918C46.0934 33.9974 47.6304 28.7011 47.2382 23.3683C46.8461 18.0354 44.5508 13.021 40.7707 9.23883C40.6477 9.11139 40.5796 8.94071 40.5811 8.76355C40.5826 8.58639 40.6537 8.41693 40.779 8.29165C40.9043 8.16637 41.0737 8.09532 41.2509 8.09378C41.428 8.09224 41.5987 8.16034 41.7262 8.28342C45.0419 11.5913 47.2993 15.8101 48.2117 20.404C49.1241 24.9978 48.6502 29.7592 46.8502 34.083C45.0502 38.4069 42.0054 42.098 38.1028 44.6874C34.2001 47.2768 29.6157 48.6475 24.9322 48.6253Z" fill="black"/>
<path d="M41.2567 14.8466C41.0775 14.8466 40.9057 14.7754 40.779 14.6487C40.6522 14.522 40.5811 14.3501 40.5811 14.1709V8.76552C40.5811 8.58632 40.6522 8.41446 40.779 8.28774C40.9057 8.16103 41.0775 8.08984 41.2567 8.08984H46.6621C46.8413 8.08984 47.0132 8.16103 47.1399 8.28774C47.2666 8.41446 47.3378 8.58632 47.3378 8.76552C47.3378 8.94472 47.2666 9.11658 47.1399 9.24329C47.0132 9.37001 46.8413 9.4412 46.6621 9.4412H41.9324V14.1709C41.9324 14.3501 41.8612 14.522 41.7345 14.6487C41.6078 14.7754 41.4359 14.8466 41.2567 14.8466Z" fill="black"/>
<path d="M8.76663 41.9296H3.36122C3.18202 41.9296 3.01016 41.8584 2.88345 41.7317C2.75673 41.605 2.68555 41.4331 2.68555 41.2539C2.68555 41.0747 2.75673 40.9029 2.88345 40.7761C3.01016 40.6494 3.18202 40.5782 3.36122 40.5782H8.09095V35.8485C8.09095 35.6693 8.16214 35.4975 8.28885 35.3708C8.41557 35.244 8.58743 35.1729 8.76663 35.1729C8.94583 35.1729 9.11769 35.244 9.2444 35.3708C9.37112 35.4975 9.4423 35.6693 9.4423 35.8485V41.2539C9.4423 41.4331 9.37112 41.605 9.2444 41.7317C9.11769 41.8584 8.94583 41.9296 8.76663 41.9296Z" fill="black"/>
<path d="M24.9995 40.5734C21.7866 40.5734 18.6458 39.6207 15.9744 37.8357C13.303 36.0507 11.2209 33.5136 9.99137 30.5452C8.76188 27.5769 8.44022 24.3106 9.06707 21.1594C9.69393 18.0083 11.2411 15.1137 13.5131 12.8419C15.785 10.5701 18.6796 9.02301 21.8307 8.39629C24.9819 7.76956 28.2482 8.09136 31.2165 9.32098C34.1848 10.5506 36.7218 12.6328 38.5067 15.3043C40.2916 17.9758 41.2442 21.1166 41.2441 24.3295C41.2391 28.6362 39.526 32.7651 36.4806 35.8104C33.4352 38.8557 29.3062 40.5686 24.9995 40.5734ZM24.9995 9.43626C22.0539 9.43626 19.1744 10.3097 16.7252 11.9462C14.2761 13.5827 12.3672 15.9087 11.2399 18.6301C10.1127 21.3515 9.81775 24.346 10.3924 27.235C10.9671 30.124 12.3855 32.7778 14.4684 34.8606C16.5512 36.9435 19.205 38.3619 22.094 38.9366C24.983 39.5112 27.9775 39.2163 30.6989 38.0891C33.4203 36.9618 35.7463 35.0529 37.3828 32.6038C39.0193 30.1546 39.8927 27.2751 39.8927 24.3295C39.8884 20.3809 38.318 16.5952 35.5259 13.8031C32.7338 11.011 28.9481 9.44056 24.9995 9.43626Z" fill="black"/>
<path d="M24.9999 40.574C20.8283 40.574 17.5601 33.4388 17.5601 24.3294C17.5601 15.2199 20.8283 8.08545 24.9999 8.08545C29.1715 8.08545 32.4398 15.2206 32.4398 24.33C32.4398 33.4395 29.1715 40.574 24.9999 40.574ZM24.9999 9.4368C21.6999 9.4368 18.9114 16.2571 18.9114 24.33C18.9114 32.403 21.6999 39.2226 24.9999 39.2226C28.2999 39.2226 31.0884 32.4023 31.0884 24.3294C31.0884 16.2564 28.2999 9.4368 24.9999 9.4368Z" fill="black"/>
<path d="M24.9999 40.574C24.8207 40.574 24.6488 40.5028 24.5221 40.3761C24.3954 40.2493 24.3242 40.0775 24.3242 39.8983V8.76112C24.3242 8.58192 24.3954 8.41006 24.5221 8.28335C24.6488 8.15664 24.8207 8.08545 24.9999 8.08545C25.1791 8.08545 25.351 8.15664 25.4777 8.28335C25.6044 8.41006 25.6756 8.58192 25.6756 8.76112V39.8983C25.6756 40.0775 25.6044 40.2493 25.4777 40.3761C25.351 40.5028 25.1791 40.574 24.9999 40.574Z" fill="black"/>
<path d="M40.5684 25.0044H9.43056C9.25136 25.0044 9.0795 24.9333 8.95278 24.8065C8.82607 24.6798 8.75488 24.508 8.75488 24.3288C8.75488 24.1496 8.82607 23.9777 8.95278 23.851C9.0795 23.7243 9.25136 23.6531 9.43056 23.6531H40.5684C40.7476 23.6531 40.9195 23.7243 41.0462 23.851C41.1729 23.9777 41.2441 24.1496 41.2441 24.3288C41.2441 24.508 41.1729 24.6798 41.0462 24.8065C40.9195 24.9333 40.7476 25.0044 40.5684 25.0044Z" fill="black"/>
<path d="M38.6831 17.5742H11.3183C11.1391 17.5742 10.9672 17.5031 10.8405 17.3763C10.7138 17.2496 10.6426 17.0778 10.6426 16.8986C10.6426 16.7194 10.7138 16.5475 10.8405 16.4208C10.9672 16.2941 11.1391 16.2229 11.3183 16.2229H38.6831C38.8623 16.2229 39.0342 16.2941 39.1609 16.4208C39.2876 16.5475 39.3588 16.7194 39.3588 16.8986C39.3588 17.0778 39.2876 17.2496 39.1609 17.3763C39.0342 17.5031 38.8623 17.5742 38.6831 17.5742Z" fill="black"/>
<path d="M38.6831 32.4383H11.3183C11.1391 32.4383 10.9672 32.3671 10.8405 32.2404C10.7138 32.1137 10.6426 31.9418 10.6426 31.7626C10.6426 31.5834 10.7138 31.4115 10.8405 31.2848C10.9672 31.1581 11.1391 31.0869 11.3183 31.0869H38.6831C38.8623 31.0869 39.0342 31.1581 39.1609 31.2848C39.2876 31.4115 39.3588 31.5834 39.3588 31.7626C39.3588 31.9418 39.2876 32.1137 39.1609 32.2404C39.0342 32.3671 38.8623 32.4383 38.6831 32.4383Z" fill="black"/>
</svg>
