<svg width="40" height="47" viewBox="0 0 40 47" fill="none" xmlns="http://www.w3.org/2000/svg">
<g clip-path="url(#clip0_956_15124)">
<path d="M10.8975 37.0944H10.8207C8.4841 37.0944 6.58301 35.2247 6.58301 32.9263V13.161C6.58301 10.8626 8.4841 8.99292 10.8207 8.99292H10.8975C12.6162 8.99292 14.0993 10.0044 14.7635 11.454H29.2404C31.5444 11.454 33.4189 13.2977 33.4189 15.5638V30.2712C33.4189 32.6764 31.4296 34.6332 28.9842 34.6332H14.7637C14.0993 36.0831 12.6164 37.0944 10.8975 37.0944ZM10.8207 9.85699C8.96851 9.85699 7.46151 11.3392 7.46151 13.161V32.9263C7.46151 34.7481 8.96851 36.2304 10.8207 36.2304H10.8975C12.7498 36.2304 14.2569 34.7481 14.2569 32.9263V13.161C14.2569 11.3392 12.7499 9.85699 10.8975 9.85699H10.8207ZM15.1354 33.7693H28.9844C30.9452 33.7693 32.5406 32.2001 32.5406 30.2714V15.5638C32.5406 13.7742 31.0601 12.318 29.2406 12.318H15.1354V33.7693ZM27.4337 30.227C26.6404 30.227 25.995 29.5922 25.995 28.812C25.995 28.0317 26.6404 27.3969 27.4337 27.3969C28.227 27.3969 28.8723 28.0317 28.8723 28.812C28.8723 29.5922 28.2268 30.227 27.4337 30.227ZM27.4337 28.2612C27.1248 28.2612 26.8735 28.5083 26.8735 28.8121C26.8735 29.1159 27.1248 29.3631 27.4337 29.3631C27.7425 29.3631 27.9938 29.1159 27.9938 28.8121C27.9938 28.5083 27.7424 28.2612 27.4337 28.2612ZM23.8381 30.227C23.0448 30.227 22.3995 29.5922 22.3995 28.812C22.3995 28.0317 23.0448 27.3969 23.8381 27.3969C24.6314 27.3969 25.2768 28.0317 25.2768 28.812C25.2768 29.5922 24.6312 30.227 23.8381 30.227ZM23.8381 28.2612C23.5292 28.2612 23.278 28.5083 23.278 28.8121C23.278 29.1159 23.5292 29.3631 23.8381 29.3631C24.147 29.3631 24.3982 29.1159 24.3982 28.8121C24.3982 28.5083 24.147 28.2612 23.8381 28.2612ZM20.2424 30.227C19.4491 30.227 18.8037 29.5922 18.8037 28.812C18.8037 28.0317 19.4491 27.3969 20.2424 27.3969C21.0357 27.3969 21.681 28.0317 21.681 28.812C21.681 29.5922 21.0357 30.227 20.2424 30.227ZM20.2424 28.2612C19.9335 28.2612 19.6822 28.5083 19.6822 28.8121C19.6822 29.1159 19.9335 29.3631 20.2424 29.3631C20.5513 29.3631 20.8025 29.1159 20.8025 28.8121C20.8025 28.5083 20.5513 28.2612 20.2424 28.2612ZM27.4337 26.7111C26.6404 26.7111 25.995 26.0763 25.995 25.296C25.995 24.5158 26.6404 23.881 27.4337 23.881C28.227 23.881 28.8723 24.516 28.8723 25.296C28.8723 26.0761 28.2268 26.7111 27.4337 26.7111ZM27.4337 24.7451C27.1248 24.7451 26.8735 24.9924 26.8735 25.296C26.8735 25.5997 27.1248 25.847 27.4337 25.847C27.7425 25.847 27.9938 25.5999 27.9938 25.296C27.9938 24.9922 27.7424 24.7451 27.4337 24.7451ZM23.8381 26.7111C23.0448 26.7111 22.3995 26.0763 22.3995 25.296C22.3995 24.5158 23.0448 23.881 23.8381 23.881C24.6314 23.881 25.2768 24.516 25.2768 25.296C25.2768 26.0761 24.6312 26.7111 23.8381 26.7111ZM23.8381 24.7451C23.5292 24.7451 23.278 24.9924 23.278 25.296C23.278 25.5997 23.5292 25.847 23.8381 25.847C24.147 25.847 24.3982 25.5999 24.3982 25.296C24.3982 24.9922 24.147 24.7451 23.8381 24.7451ZM20.2424 26.7111C19.4491 26.7111 18.8037 26.0763 18.8037 25.296C18.8037 24.5158 19.4491 23.881 20.2424 23.881C21.0357 23.881 21.681 24.516 21.681 25.296C21.681 26.0761 21.0357 26.7111 20.2424 26.7111ZM20.2424 24.7451C19.9335 24.7451 19.6822 24.9924 19.6822 25.296C19.6822 25.5997 19.9335 25.847 20.2424 25.847C20.5513 25.847 20.8025 25.5999 20.8025 25.296C20.8025 24.9922 20.5513 24.7451 20.2424 24.7451ZM27.4337 23.1951C26.6404 23.1951 25.995 22.5604 25.995 21.7801C25.995 20.9999 26.6404 20.3651 27.4337 20.3651C28.227 20.3651 28.8723 20.9999 28.8723 21.7801C28.8723 22.5604 28.2268 23.1951 27.4337 23.1951ZM27.4337 21.2294C27.1248 21.2294 26.8735 21.4765 26.8735 21.7803C26.8735 22.0841 27.1248 22.3312 27.4337 22.3312C27.7425 22.3312 27.9938 22.0841 27.9938 21.7803C27.9938 21.4765 27.7424 21.2294 27.4337 21.2294ZM23.8381 23.1951C23.0448 23.1951 22.3995 22.5604 22.3995 21.7801C22.3995 20.9999 23.0448 20.3651 23.8381 20.3651C24.6314 20.3651 25.2768 20.9999 25.2768 21.7801C25.2768 22.5604 24.6312 23.1951 23.8381 23.1951ZM23.8381 21.2294C23.5292 21.2294 23.278 21.4765 23.278 21.7803C23.278 22.0841 23.5292 22.3312 23.8381 22.3312C24.147 22.3312 24.3982 22.0841 24.3982 21.7803C24.3982 21.4765 24.147 21.2294 23.8381 21.2294ZM20.2424 23.1951C19.4491 23.1951 18.8037 22.5604 18.8037 21.7801C18.8037 20.9999 19.4491 20.3651 20.2424 20.3651C21.0357 20.3651 21.681 20.9999 21.681 21.7801C21.681 22.5604 21.0357 23.1951 20.2424 23.1951ZM20.2424 21.2294C19.9335 21.2294 19.6822 21.4765 19.6822 21.7803C19.6822 22.0841 19.9335 22.3312 20.2424 22.3312C20.5513 22.3312 20.8025 22.0841 20.8025 21.7803C20.8025 21.4765 20.5513 21.2294 20.2424 21.2294ZM30.5367 17.5785H17.1395C16.8969 17.5785 16.7002 17.3851 16.7002 17.1465V14.3814C16.7002 14.1428 16.8969 13.9494 17.1395 13.9494H28.9911C30.0855 13.9494 30.9762 14.8251 30.9762 15.9017V17.1465C30.976 17.3851 30.7794 17.5785 30.5367 17.5785ZM17.5786 16.7144H30.0973V15.9017C30.0973 15.3017 29.6009 14.8135 28.9907 14.8135H17.5786V16.7144Z" fill="black"/>
</g>
<path d="M30.8569 7.86758L34.8569 3.37134" stroke="black"/>
<path d="M8 8.42961L3.42864 3.37134" stroke="black"/>
<path d="M3.4292 42.7145L7.42913 37.6562" stroke="black"/>
<path d="M37.1426 42.1523L33.1426 37.094" stroke="black"/>
<path d="M39.4994 23.0424C39.4994 33.6225 30.7769 42.2134 19.9997 42.2134C9.22246 42.2134 0.5 33.6225 0.5 23.0424C0.5 12.4623 9.22246 3.87134 19.9997 3.87134C30.7769 3.87134 39.4994 12.4623 39.4994 23.0424Z" stroke="black"/>
<ellipse cx="2.8571" cy="2.81015" rx="2.8571" ry="2.81015" fill="#100D23"/>
<ellipse cx="37.1427" cy="42.1529" rx="2.8571" ry="2.81015" fill="#100D23"/>
<ellipse cx="2.8571" cy="43.2755" rx="2.8571" ry="2.81015" fill="#100D23"/>
<ellipse cx="35.9982" cy="2.81015" rx="2.8571" ry="2.81015" fill="#100D23"/>
<defs>
<clipPath id="clip0_956_15124">
<rect width="28.571" height="28.1015" fill="white" transform="translate(5.71484 8.99292)"/>
</clipPath>
</defs>
</svg>
