<svg width="50" height="50" viewBox="0 0 50 50" fill="none" xmlns="http://www.w3.org/2000/svg">
<path d="M38.2812 25C37.4183 25 36.7188 23.9507 36.7188 22.6563C36.7188 21.3618 37.4183 20.3125 38.2812 20.3125C39.1442 20.3125 39.8438 21.3618 39.8438 22.6563C39.8438 23.9507 39.1442 25 38.2812 25Z" fill="black"/>
<path d="M1.5625 25.7819C1.7697 25.7819 1.96841 25.8642 2.11493 26.0107C2.26144 26.1572 2.34375 26.3559 2.34375 26.5631C2.34483 27.4633 2.65625 28.3356 3.2255 29.0329C3.79475 29.7303 4.58702 30.21 5.46875 30.3913V23.8288C5.46128 21.5125 6.22353 19.2594 7.63574 17.4235C8.83208 15.8667 10.4358 14.6712 12.2695 13.9694C11.7907 12.6976 11.6203 11.3304 11.7724 9.97998C11.9244 8.62957 12.3945 7.33447 13.1441 6.20098C13.8937 5.06749 14.9015 4.12793 16.0846 3.45941C17.2677 2.7909 18.5925 2.41251 19.9503 2.35528C21.308 2.29805 22.66 2.56363 23.8951 3.13021C25.1303 3.6968 26.2136 4.54823 27.0559 5.61462C27.8982 6.68102 28.4756 7.93197 28.7408 9.2648C29.0059 10.5976 28.9512 11.9743 28.5811 13.2819H29.1787C29.707 11.0576 30.97 9.07645 32.7635 7.65877C34.5571 6.24109 36.7763 5.46973 39.0625 5.46939C39.2697 5.46939 39.4684 5.5517 39.6149 5.69822C39.7614 5.84473 39.8438 6.04344 39.8438 6.25064V14.194C41.6442 14.9976 43.1835 16.2896 44.287 17.9235C45.3905 19.5574 46.014 21.4678 46.0869 23.4381H46.4844C47.2093 23.4389 47.9044 23.7273 48.417 24.2399C48.9296 24.7525 49.2179 25.4476 49.2188 26.1725V30.0788C49.2179 30.8037 48.9296 31.4988 48.417 32.0114C47.9044 32.524 47.2093 32.8123 46.4844 32.8131H46.0869C45.9933 35.3385 44.996 37.7462 43.2767 39.5982C41.5573 41.4502 39.2302 42.6233 36.7188 42.904V44.9225C36.7179 45.6475 36.4296 46.3425 35.917 46.8551C35.4044 47.3678 34.7093 47.6561 33.9844 47.6569H33.2031C32.4782 47.6561 31.7831 47.3678 31.2705 46.8551C30.7579 46.3425 30.4696 45.6475 30.4688 44.9225V42.9694H21.0938V44.9225C21.0929 45.6475 20.8046 46.3425 20.292 46.8551C19.7794 47.3678 19.0843 47.6561 18.3594 47.6569H17.5781C16.8532 47.6561 16.1581 47.3678 15.6455 46.8551C15.1329 46.3425 14.8446 45.6475 14.8438 44.9225V42.904C12.2655 42.6158 9.88389 41.3875 8.15434 39.4538C6.42479 37.5202 5.46865 35.0168 5.46875 32.4225V31.9753C4.16801 31.7857 2.97881 31.1348 2.11824 30.1412C1.25767 29.1476 0.783127 27.8776 0.78125 26.5631C0.78125 26.3559 0.86356 26.1572 1.01007 26.0107C1.15659 25.8642 1.3553 25.7819 1.5625 25.7819ZM20.3125 3.90689C19.122 3.90947 17.9516 4.21361 16.9105 4.79095C15.8694 5.36828 14.9915 6.19998 14.3588 7.20841C13.7261 8.21685 13.3592 9.36914 13.2924 10.5577C13.2255 11.7464 13.4609 12.9325 13.9766 14.0055C14.0115 14.0574 14.0397 14.1135 14.0605 14.1725C14.7312 15.4693 15.7908 16.5237 17.0908 17.1881H23.5342C24.9356 16.4659 26.0536 15.2936 26.7087 13.8595C27.3637 12.4254 27.5178 10.8128 27.1461 9.28062C26.7744 7.74845 25.8986 6.38566 24.6593 5.4111C23.42 4.43654 21.8891 3.90678 20.3125 3.90689ZM7.03125 32.4225C7.03091 34.743 7.9286 36.9735 9.53622 38.6469C11.1438 40.3202 13.3367 41.3065 15.6553 41.3991C15.8571 41.4066 16.0482 41.4921 16.1882 41.6376C16.3283 41.7832 16.4065 41.9774 16.4062 42.1794V44.9225C16.4065 45.2332 16.5301 45.5312 16.7498 45.7509C16.9695 45.9706 17.2674 46.0941 17.5781 46.0944H18.3594C18.6701 46.0941 18.968 45.9706 19.1877 45.7509C19.4074 45.5312 19.531 45.2332 19.5312 44.9225V42.1881C19.5312 41.9809 19.6136 41.7822 19.7601 41.6357C19.9066 41.4892 20.1053 41.4069 20.3125 41.4069H31.25C31.4572 41.4069 31.6559 41.4892 31.8024 41.6357C31.9489 41.7822 32.0312 41.9809 32.0312 42.1881V44.9225C32.0315 45.2332 32.1551 45.5312 32.3748 45.7509C32.5945 45.9706 32.8924 46.0941 33.2031 46.0944H33.9844C34.2951 46.0941 34.593 45.9706 34.8127 45.7509C35.0324 45.5312 35.156 45.2332 35.1562 44.9225V42.1794C35.156 41.9774 35.2342 41.7832 35.3743 41.6376C35.5143 41.4921 35.7054 41.4066 35.9072 41.3991C38.2258 41.3065 40.4187 40.3202 42.0263 38.6469C43.6339 36.9735 44.5316 34.743 44.5312 32.4225V32.0319C44.5312 31.8247 44.6136 31.626 44.7601 31.4795C44.9066 31.333 45.1053 31.2506 45.3125 31.2506H46.4844C46.7951 31.2504 47.093 31.1268 47.3127 30.9071C47.5324 30.6874 47.656 30.3895 47.6562 30.0788V26.1725C47.656 25.8618 47.5324 25.5639 47.3127 25.3442C47.093 25.1245 46.7951 25.0009 46.4844 25.0006H45.3125C45.1053 25.0006 44.9066 24.9183 44.7601 24.7718C44.6136 24.6253 44.5312 24.4266 44.5312 24.2194V23.8288C44.5311 22.0141 43.9818 20.242 42.9555 18.7454C41.9292 17.2488 40.474 16.0979 38.7812 15.444C38.634 15.3874 38.5074 15.2875 38.4181 15.1574C38.3288 15.0273 38.2811 14.8732 38.2812 14.7155V7.06705C36.3928 7.24017 34.6146 8.03272 33.2234 9.32135C31.8321 10.61 30.9059 12.3224 30.5889 14.1921C30.5584 14.3744 30.4642 14.54 30.3231 14.6594C30.1821 14.7788 30.0032 14.8444 29.8184 14.8444H28.125C28.0748 14.8445 28.0248 14.8396 27.9756 14.8297C27.8486 15.0788 27.71 15.3229 27.5586 15.5592C27.1778 16.1557 26.7249 16.7028 26.21 17.1881H29.6875C29.8947 17.1881 30.0934 17.2705 30.2399 17.417C30.3864 17.5635 30.4688 17.7622 30.4688 17.9694C30.4688 18.1766 30.3864 18.3753 30.2399 18.5218C30.0934 18.6683 29.8947 18.7506 29.6875 18.7506H14.0625C13.8553 18.7506 13.6566 18.6683 13.5101 18.5218C13.3636 18.3753 13.2812 18.1766 13.2812 17.9694C13.2812 17.7622 13.3636 17.5635 13.5101 17.417C13.6566 17.2705 13.8553 17.1881 14.0625 17.1881H14.415C13.9001 16.7028 13.4472 16.1557 13.0664 15.5592C13.0283 15.5006 12.9922 15.4411 12.957 15.3815C11.2241 16.0148 9.72699 17.164 8.66743 18.6744C7.60788 20.1849 7.03683 21.9838 7.03125 23.8288V32.4225Z" fill="black"/>
<path d="M16.4062 9.375C16.4071 8.75365 16.6543 8.15799 17.0936 7.71863C17.533 7.27927 18.1286 7.03208 18.75 7.03125H18.7568C18.7805 6.84254 18.8722 6.66895 19.0148 6.5431C19.1574 6.41726 19.3411 6.34781 19.5312 6.34781C19.7214 6.34781 19.9051 6.41726 20.0477 6.5431C20.1903 6.66895 20.282 6.84254 20.3057 7.03125H21.0937C21.0937 6.82405 21.1761 6.62534 21.3226 6.47882C21.4691 6.33231 21.6678 6.25 21.875 6.25C22.0822 6.25 22.2809 6.33231 22.4274 6.47882C22.5739 6.62534 22.6562 6.82405 22.6562 7.03125H23.4375C23.6447 7.03125 23.8434 7.11356 23.9899 7.26007C24.1364 7.40659 24.2188 7.6053 24.2188 7.8125C24.2188 8.0197 24.1364 8.21841 23.9899 8.36493C23.8434 8.51144 23.6447 8.59375 23.4375 8.59375V13.2812C23.6447 13.2812 23.8434 13.3636 23.9899 13.5101C24.1364 13.6566 24.2188 13.8553 24.2188 14.0625C24.2188 14.2697 24.1364 14.4684 23.9899 14.6149C23.8434 14.7614 23.6447 14.8438 23.4375 14.8438H22.6562C22.6562 15.051 22.5739 15.2497 22.4274 15.3962C22.2809 15.5427 22.0822 15.625 21.875 15.625C21.6678 15.625 21.4691 15.5427 21.3226 15.3962C21.1761 15.2497 21.0937 15.051 21.0937 14.8438H20.3125C20.3125 15.051 20.2302 15.2497 20.0837 15.3962C19.9372 15.5427 19.7384 15.625 19.5312 15.625C19.324 15.625 19.1253 15.5427 18.9788 15.3962C18.8323 15.2497 18.75 15.051 18.75 14.8438C18.2974 14.844 17.8545 14.7132 17.4747 14.4671C17.0949 14.221 16.7946 13.8701 16.61 13.4569C16.4254 13.0437 16.3644 12.5858 16.4345 12.1387C16.5046 11.6916 16.7027 11.2744 17.0049 10.9375C16.6191 10.5086 16.4058 9.95192 16.4062 9.375ZM18.75 13.2812H21.875V11.7188H18.75C18.5428 11.7188 18.3441 11.8011 18.1976 11.9476C18.0511 12.0941 17.9687 12.2928 17.9687 12.5C17.9687 12.7072 18.0511 12.9059 18.1976 13.0524C18.3441 13.1989 18.5428 13.2812 18.75 13.2812ZM18.75 10.1562H21.875V8.59375H18.75C18.5428 8.59375 18.3441 8.67606 18.1976 8.82257C18.0511 8.96909 17.9687 9.1678 17.9687 9.375C17.9687 9.5822 18.0511 9.78091 18.1976 9.92743C18.3441 10.0739 18.5428 10.1562 18.75 10.1562Z" fill="black"/>
</svg>
