<svg width="50" height="50" viewBox="0 0 50 50" fill="none" xmlns="http://www.w3.org/2000/svg">
<path d="M6.40909 34H13.2273V32.75H7.81818V22.3636H6.40909V34ZM16.8182 22.3636H15.4091V34H16.8182V22.3636ZM19.6435 22.3636V34H20.9616V25.1591H21.0753L24.7116 34H25.9844L29.6207 25.1591H29.7344V34H31.0526V22.3636H29.3707L25.4162 32.0227H25.2798L21.3253 22.3636H19.6435ZM35.2869 22.3636H33.8778V34H35.2869V22.3636ZM37.4759 23.6136H41.1349V34H42.544V23.6136H46.2031V22.3636H37.4759V23.6136Z" fill="black"/>
<circle cx="25" cy="25" r="24" stroke="black" stroke-width="2"/>
<path d="M4.83398 11.2598L46.2581 37.9411" stroke="black" stroke-width="2"/>
</svg>
