<svg width="28" height="28" viewBox="0 0 28 28" fill="#000" xmlns="http://www.w3.org/2000/svg">
<path d="M9.51183 3.19499H5.57846L7.87367 0.898511L6.97515 0L3.146 3.83043L6.98024 7.66594L7.87875 6.76743L5.57846 4.46587H9.51183V3.19499Z" fill="#000"/>
<path d="M22.2608 0L21.3623 0.898511L23.6588 3.19499H19.6924V4.46587H23.6588L21.3572 6.76743L22.2557 7.66594L26.0912 3.83043L22.2608 0Z" fill="#000"/>
<path d="M24.5138 15.7194C24.463 15.6686 24.4083 15.6241 24.3499 15.5898C23.5263 15.0713 22.5872 14.8095 21.648 14.8095C20.3479 14.8095 19.049 15.3051 18.0577 16.2964L17.1592 17.1962V5.10377C17.1592 3.7058 16.0154 2.56201 14.6175 2.56201C13.2195 2.56201 12.0757 3.7058 12.0757 5.10377V10.6956C11.6119 10.1263 10.9129 9.75518 10.1211 9.75518C9.57082 9.75518 9.06374 9.93565 8.64816 10.2343L3.17449 13.4026C2.41831 13.8423 1.90869 14.657 1.90869 15.5923V19.7723C1.90869 24.3169 5.5917 27.9999 10.1364 27.9999C12.3375 27.9999 14.3315 27.1306 15.807 25.7225L15.8083 25.7339L15.9494 25.5929C15.9519 25.5903 15.9544 25.5878 15.9557 25.5865L24.5138 17.0272C24.876 16.6662 24.876 16.0803 24.5138 15.7194ZM14.9301 24.8024C13.6275 26.044 11.9245 26.7278 10.1364 26.7278C6.29958 26.7278 3.17957 23.6078 3.17957 19.771V15.5911C3.17957 15.1437 3.41722 14.7383 3.81628 14.5057L9.38781 11.2663C9.54032 11.157 9.79195 11.0248 10.1198 11.0248C10.6282 11.0248 10.9459 11.3209 11.0908 11.4976L12.2193 12.8803C12.3896 13.0887 12.6718 13.1675 12.9247 13.0773C13.1776 12.987 13.3466 12.7481 13.3466 12.4787V5.10377C13.3466 4.40351 13.9172 3.83289 14.6175 3.83289C15.3177 3.83289 15.8884 4.40351 15.8884 5.10377V17.8087C15.8884 18.3489 16.2277 18.8026 16.7043 18.9843C16.9089 19.0618 17.1402 19.0123 17.2952 18.8572L18.9563 17.1962C19.6756 16.4769 20.6313 16.0816 21.648 16.0816C22.2211 16.0816 22.7816 16.2087 23.2925 16.4527L14.9301 24.8024Z" fill="#000"/>
</svg>
