<svg width="45" height="41" viewBox="0 0 45 41" fill="none" xmlns="http://www.w3.org/2000/svg">
<path d="M26.2565 12.7722C26.2565 12.4082 25.9614 12.113 25.5973 12.113H7.23975C6.87562 12.113 6.58057 12.4082 6.58057 12.7722C6.58057 13.1363 6.87562 13.4314 7.23975 13.4314H25.5973C25.9614 13.4314 26.2565 13.1363 26.2565 12.7722Z" fill="#181518"/>
<path d="M22.4907 18.1709H7.23975C6.87562 18.1709 6.58057 18.466 6.58057 18.8301C6.58057 19.1941 6.87562 19.4893 7.23975 19.4893H22.4906C22.8547 19.4893 23.1498 19.1941 23.1498 18.8301C23.1498 18.466 22.8547 18.1709 22.4907 18.1709Z" fill="#181518"/>
<path d="M22.4907 24.2285H7.23975C6.87562 24.2285 6.58057 24.5237 6.58057 24.8877C6.58057 25.2517 6.87562 25.5469 7.23975 25.5469H22.4906C22.8547 25.5469 23.1498 25.2517 23.1498 24.8877C23.1498 24.5237 22.8547 24.2285 22.4907 24.2285Z" fill="#181518"/>
<path d="M44.4249 16.8852C42.2081 15.0973 40.9366 12.4384 40.9366 9.5902V8.80876C40.9366 6.62591 39.7133 4.72352 37.9164 3.75065V2.84494C37.9164 1.34096 36.6928 0.117432 35.1888 0.117432C33.6849 0.117432 32.4613 1.34105 32.4613 2.84494V3.75065C30.6643 4.72352 29.441 6.62591 29.441 8.80885V9.59028C29.441 12.4386 28.1695 15.0974 25.9529 16.8851C25.3539 17.3678 25.1975 18.2102 25.6034 18.8738C25.8831 19.331 26.37 19.604 26.9059 19.604H31.1197C31.6861 21.3426 33.3178 22.5548 35.1889 22.5548C37.06 22.5548 38.6916 21.3426 39.2579 19.604H43.4718C44.0077 19.604 44.4945 19.3311 44.7741 18.8739C45.1808 18.2088 45.0224 17.3665 44.4249 16.8852ZM33.7796 2.84494C33.7796 2.0679 34.4118 1.4357 35.1889 1.4357C35.9659 1.4357 36.598 2.0679 36.598 2.84494V3.23641C35.683 3.0049 34.7131 3.00024 33.7796 3.23641V2.84494ZM35.1889 21.2363C34.0465 21.2363 33.0335 20.5835 32.5416 19.6039H37.836C37.3442 20.5835 36.3313 21.2363 35.1889 21.2363ZM43.4718 18.2856C41.5953 18.2856 29.8554 18.2856 26.906 18.2856C26.7192 18.2856 26.6124 18.0469 26.7803 17.9114C29.3091 15.8721 30.7593 12.8391 30.7593 9.5902V8.80876C30.7593 6.36637 32.7464 4.37934 35.1888 4.37934C37.6312 4.37934 39.6183 6.36637 39.6183 8.80876V9.5902C39.6183 12.8391 41.0686 15.8721 43.5975 17.9116C43.7653 18.0468 43.6585 18.2856 43.4718 18.2856Z" fill="#181518"/>
<path d="M39.1637 21.6515C38.7996 21.6515 38.5045 21.9467 38.5045 22.3107V27.9519C38.5045 30.1333 36.7298 31.9081 34.5484 31.9081H14.5576C14.003 31.9081 13.476 32.1184 13.0738 32.5002L5.93982 39.2724L6.99047 33.4385C7.13426 32.6405 6.52061 31.9082 5.71122 31.9082H5.27449C3.09305 31.9082 1.31836 30.1334 1.31836 27.952V9.93563C1.31836 7.75418 3.09305 5.97949 5.27449 5.97949H28.1956C28.5597 5.97949 28.8548 5.68436 28.8548 5.32031C28.8548 4.95627 28.5597 4.66113 28.1956 4.66113H5.27449C2.36619 4.66113 0 7.02724 0 9.93563V27.9519C0 30.8603 2.36619 33.2265 5.27449 33.2265H5.68907L4.5559 39.5188C4.46687 40.013 4.70408 40.5053 5.14591 40.7437C5.5858 40.9809 6.12765 40.9117 6.49362 40.5643L13.9815 33.4563C14.1376 33.308 14.3423 33.2264 14.5577 33.2264H34.5485C37.4569 33.2264 39.823 30.8602 39.823 27.9518V22.3106C39.8229 21.9467 39.5278 21.6515 39.1637 21.6515Z" fill="#181518"/>
</svg>
