<svg width="40" height="43" viewBox="0 0 40 43" fill="none" xmlns="http://www.w3.org/2000/svg">
<path d="M14.0424 24.0315C16.0202 26.0092 18.7027 27.1202 21.4997 27.1202C24.2967 27.1202 26.9792 26.0092 28.9571 24.0315L27.9642 23.0359C27.1154 23.885 26.1076 24.5586 24.9984 25.0182C23.8892 25.4777 22.7003 25.7143 21.4997 25.7143C20.2991 25.7143 19.1102 25.4777 18.001 25.0182C16.8918 24.5586 15.884 23.885 15.0352 23.0359L14.0424 24.0315Z" fill="#181518"/>
<path d="M16.0325 22.0443C16.7504 22.7627 17.6028 23.3327 18.5411 23.7215C19.4793 24.1104 20.485 24.3105 21.5007 24.3105C22.5163 24.3105 23.522 24.1104 24.4603 23.7215C25.3985 23.3327 26.251 22.7627 26.9689 22.0443L25.9747 21.05C24.788 22.2364 23.1787 22.9028 21.5007 22.9028C19.8227 22.9028 18.2134 22.2364 17.0267 21.05L16.0325 22.0443Z" fill="#181518"/>
<path d="M18.0192 20.0525C18.4756 20.5107 19.018 20.8742 19.6153 21.1223C20.2125 21.3704 20.8529 21.4981 21.4996 21.4981C22.1464 21.4981 22.7867 21.3704 23.384 21.1223C23.9813 20.8742 24.5237 20.5107 24.9801 20.0525L23.9817 19.0625C23.6559 19.3888 23.269 19.6477 22.8431 19.8243C22.4172 20.0009 21.9607 20.0918 21.4996 20.0918C21.0386 20.0918 20.582 20.0009 20.1561 19.8243C19.7302 19.6477 19.3434 19.3888 19.0176 19.0625L18.0192 20.0525Z" fill="#181518"/>
<path d="M23.6094 16.5781C23.6094 16.1609 23.4857 15.7531 23.2539 15.4062C23.0221 15.0593 22.6927 14.789 22.3072 14.6293C21.9218 14.4697 21.4977 14.4279 21.0885 14.5093C20.6793 14.5907 20.3035 14.7916 20.0084 15.0866C19.7134 15.3816 19.5125 15.7574 19.4312 16.1666C19.3498 16.5758 19.3915 16.9999 19.5512 17.3853C19.7108 17.7708 19.9812 18.1002 20.3281 18.332C20.675 18.5638 21.0828 18.6875 21.5 18.6875C22.0594 18.6875 22.596 18.4653 22.9916 18.0697C23.3871 17.6741 23.6094 17.1376 23.6094 16.5781ZM20.7969 16.5781C20.7969 16.4391 20.8381 16.3031 20.9154 16.1875C20.9926 16.0719 21.1025 15.9817 21.2309 15.9285C21.3594 15.8753 21.5008 15.8614 21.6372 15.8885C21.7736 15.9156 21.8989 15.9826 21.9972 16.0809C22.0955 16.1793 22.1625 16.3046 22.1896 16.441C22.2168 16.5773 22.2028 16.7187 22.1496 16.8472C22.0964 16.9757 22.0063 17.0855 21.8906 17.1628C21.775 17.24 21.6391 17.2813 21.5 17.2813C21.3135 17.2813 21.1347 17.2072 21.0028 17.0753C20.871 16.9435 20.7969 16.7646 20.7969 16.5781Z" fill="#181518"/>
<path d="M38.8102 34.5148C38.5091 34.288 38.159 34.135 37.7879 34.0684C37.4169 34.0017 37.0354 34.0231 36.6741 34.1309L27.0237 36.9688H21.68L17.8831 34.8594H25.0156C25.2021 34.8594 25.3809 34.7853 25.5128 34.6534C25.6447 34.5216 25.7187 34.3427 25.7187 34.1562V32.0469C25.7187 31.8604 25.6446 31.6816 25.5127 31.5498L24.1065 30.1435C24.0083 30.0455 23.8833 29.9787 23.7472 29.9516L13.2003 27.8422C13.1549 27.833 13.1088 27.8283 13.0625 27.8281H8.84375C8.75441 27.828 8.66588 27.845 8.58289 27.878L6.03125 28.899V27.125C6.03125 26.9385 5.95717 26.7597 5.82531 26.6278C5.69345 26.496 5.51461 26.4219 5.32812 26.4219H1.10937C0.922895 26.4219 0.744052 26.496 0.61219 26.6278C0.480329 26.7597 0.40625 26.9385 0.40625 27.125V41.1875C0.40625 41.374 0.480329 41.5528 0.61219 41.6847C0.744052 41.8165 0.922895 41.8906 1.10937 41.8906H5.32812C5.51461 41.8906 5.69345 41.8165 5.82531 41.6847C5.95717 41.5528 6.03125 41.374 6.03125 41.1875V39.7812H8.02672L16.3559 42.5572C16.4276 42.5812 16.5026 42.5936 16.5781 42.5938H27.125C27.2047 42.5935 27.2839 42.5799 27.3591 42.5537L38.1641 38.7399C38.5777 38.5937 38.944 38.338 39.2237 38C39.5034 37.662 39.6862 37.2544 39.7524 36.8207C39.8187 36.387 39.766 35.9435 39.5999 35.5374C39.4339 35.1313 39.1607 34.7779 38.8095 34.5148H38.8102ZM4.625 40.4844H1.8125V27.8281H4.625V40.4844ZM37.6965 37.4138L27.0048 41.1875H16.692L8.36281 38.4116C8.29119 38.3875 8.21617 38.3752 8.14062 38.375H6.03125V30.4135L8.97875 29.2344H12.9922L23.262 31.2882L24.3125 32.338V33.4531H15.1719C15.0162 33.4533 14.8649 33.5051 14.7418 33.6005C14.6188 33.6958 14.5308 33.8293 14.4918 33.9801C14.4528 34.1308 14.4649 34.2902 14.5263 34.4333C14.5877 34.5764 14.6948 34.6951 14.8309 34.7708L21.159 38.2864C21.2632 38.3447 21.3806 38.3752 21.5 38.375H27.125C27.1921 38.3749 27.2589 38.3652 27.3233 38.3462L37.0714 35.4795C37.2231 35.4348 37.3831 35.426 37.5387 35.454C37.6943 35.482 37.8413 35.5459 37.9679 35.6407C38.0945 35.7354 38.1972 35.8584 38.2679 35.9999C38.3385 36.1413 38.3752 36.2973 38.375 36.4555C38.3747 36.6657 38.3093 36.8707 38.1878 37.0423C38.0663 37.2139 37.8947 37.3437 37.6965 37.4138Z" fill="#181518"/>
<path d="M31.3438 0.40625H11.6562C11.4698 0.40625 11.2909 0.480329 11.1591 0.612191C11.0272 0.744052 10.9531 0.922895 10.9531 1.10938V2.51562C10.9531 5.31283 12.0643 7.99547 14.0422 9.97339C16.0202 11.9513 18.7028 13.0625 21.5 13.0625C24.2972 13.0625 26.9798 11.9513 28.9578 9.97339C30.9357 7.99547 32.0469 5.31283 32.0469 2.51562V1.10938C32.0469 0.922895 31.9728 0.744052 31.8409 0.612191C31.7091 0.480329 31.5302 0.40625 31.3438 0.40625ZM20.7969 1.8125H22.2031V3.21875H20.7969V1.8125ZM30.6406 2.51562C30.6406 4.93987 29.6776 7.26482 27.9634 8.97902C26.2492 10.6932 23.9242 11.6562 21.5 11.6562C19.0758 11.6562 16.7508 10.6932 15.0366 8.97902C13.3224 7.26482 12.3594 4.93987 12.3594 2.51562V1.8125H19.3906V3.92188C19.3906 4.10836 19.4647 4.2872 19.5966 4.41906C19.7284 4.55092 19.9073 4.625 20.0938 4.625H22.9062C23.0927 4.625 23.2716 4.55092 23.4034 4.41906C23.5353 4.2872 23.6094 4.10836 23.6094 3.92188V1.8125H30.6406V2.51562Z" fill="#181518"/>
</svg>
