<svg width="45" height="46" viewBox="0 0 45 46" fill="none" xmlns="http://www.w3.org/2000/svg">
<g clip-path="url(#clip0_956_35145)">
<path d="M12.074 32.541C11.1055 31.9016 9.82872 31.9367 8.89707 32.6283C8.60475 32.8453 8.54367 33.2582 8.76067 33.5505C8.89004 33.7247 9.08894 33.8168 9.29047 33.8168C9.42706 33.8168 9.56478 33.7745 9.68282 33.6868C10.171 33.3243 10.8401 33.306 11.3476 33.6412C11.6513 33.8417 12.0603 33.7581 12.2608 33.4543C12.4614 33.1505 12.3778 32.7416 12.074 32.541Z" fill="white"/>
<path d="M13.7689 30.2853C11.8161 28.9061 9.20387 28.9227 7.26869 30.3269C6.97399 30.5408 6.90851 30.953 7.12226 31.2476C7.2512 31.4253 7.45229 31.5197 7.65637 31.5197C7.79058 31.5197 7.92602 31.4788 8.04292 31.394C9.52106 30.3214 11.5164 30.3086 13.0083 31.3623C13.3057 31.5722 13.7171 31.5014 13.927 31.2041C14.1371 30.9067 14.0662 30.4954 13.7689 30.2853Z" fill="white"/>
<path d="M15.3827 27.9736C12.4667 25.9209 8.55944 25.9367 5.6601 28.0129C5.36409 28.2248 5.29597 28.6366 5.50796 28.9325C5.63664 29.1123 5.83905 29.208 6.04445 29.208C6.17734 29.208 6.31146 29.1679 6.42765 29.0847C8.87181 27.3344 12.1655 27.3212 14.6237 29.0515C14.9214 29.2612 15.3327 29.1896 15.5422 28.8919C15.7518 28.5943 15.6804 28.1832 15.3827 27.9736Z" fill="white"/>
<path d="M16.1587 18.6973H4.886C3.74552 18.6973 2.81775 19.6251 2.81775 20.7655V43.3109C2.81775 44.4514 3.74561 45.3792 4.886 45.3792H16.1587C17.2992 45.3792 18.2269 44.4513 18.2269 43.3109V20.7656C18.2269 19.6251 17.2992 18.6973 16.1587 18.6973ZM16.9086 43.311C16.9086 43.7245 16.5721 44.0609 16.1587 44.0609H4.886C4.47247 44.0609 4.13611 43.7244 4.13611 43.311V20.7656C4.13611 20.3521 4.47256 20.0157 4.886 20.0157H16.1587C16.5722 20.0157 16.9086 20.3522 16.9086 20.7656V43.311Z" fill="white"/>
<path d="M14.7491 39.8335H6.29456C5.93051 39.8335 5.63538 40.1286 5.63538 40.4927C5.63538 40.8567 5.93051 41.1519 6.29456 41.1519H14.7491C15.1132 41.1519 15.4083 40.8567 15.4083 40.4927C15.4083 40.1286 15.1132 39.8335 14.7491 39.8335Z" fill="white"/>
<path d="M11.2273 41.9468H9.81824C9.45419 41.9468 9.15906 42.2419 9.15906 42.606C9.15906 42.97 9.45419 43.2651 9.81824 43.2651H11.2273C11.5913 43.2651 11.8865 42.97 11.8865 42.606C11.8865 42.2419 11.5913 41.9468 11.2273 41.9468Z" fill="white"/>
<path d="M40.8177 21.5152H40.7723V3.15169C40.7723 1.62274 39.5285 0.378906 37.9996 0.378906H11.2269C9.69793 0.378906 8.4541 1.62274 8.4541 3.15169V16.5381C8.4541 16.9021 8.74924 17.1973 9.11328 17.1973C9.47733 17.1973 9.77246 16.9021 9.77246 16.5381V3.15169C9.77246 2.34968 10.4249 1.69727 11.2269 1.69727H37.9996C38.8016 1.69727 39.454 2.34968 39.454 3.15169V21.5152H20.386C20.0219 21.5152 19.7268 21.8104 19.7268 22.1744C19.7268 22.5385 20.0219 22.8336 20.386 22.8336H22.5473C22.5462 22.8486 22.545 22.8637 22.545 22.879C22.545 23.243 22.8402 23.5381 23.2042 23.5381H26.0223C26.3864 23.5381 26.6815 23.243 26.6815 22.879C26.6815 22.8637 26.6803 22.8486 26.6792 22.8336H40.8178C40.8428 22.8336 40.8631 22.8539 40.8631 22.879V24.288C40.8631 24.3131 40.8428 24.3334 40.8178 24.3334H20.386C20.0219 24.3334 19.7268 24.6285 19.7268 24.9925C19.7268 25.3566 20.0219 25.6517 20.386 25.6517H40.8178C41.5698 25.6517 42.1815 25.04 42.1815 24.288V22.879C42.1815 22.127 41.5697 21.5152 40.8177 21.5152Z" fill="white"/>
<path d="M37.2946 3.19727H11.931C11.567 3.19727 11.2719 3.4924 11.2719 3.85645V16.5383C11.2719 16.9023 11.567 17.1975 11.931 17.1975C12.2951 17.1975 12.5902 16.9023 12.5902 16.5383V4.51563H36.6355V18.6972H20.3856C20.0216 18.6972 19.7264 18.9924 19.7264 19.3564C19.7264 19.7205 20.0216 20.0156 20.3856 20.0156H37.2946C37.6587 20.0156 37.9538 19.7205 37.9538 19.3564V3.85645C37.9538 3.4924 37.6587 3.19727 37.2946 3.19727Z" fill="white"/>
</g>
<defs>
<clipPath id="clip0_956_35145">
<rect width="45" height="45" fill="white" transform="translate(0 0.378906)"/>
</clipPath>
</defs>
</svg>
