<svg width="45" height="46" viewBox="0 0 45 46" fill="none" xmlns="http://www.w3.org/2000/svg">
<g clip-path="url(#clip0_956_35176)">
<path d="M32.6909 19.859V11.3429C32.6909 11.0992 32.5783 10.8739 32.419 10.6958L22.8712 0.669701C22.693 0.482246 22.4396 0.378906 22.1866 0.378906H7.04878C4.25414 0.378906 2.02185 2.65788 2.02185 5.45287V34.0774C2.02185 36.8724 4.25414 39.114 7.04878 39.114H18.9978C21.2579 42.8654 25.3661 45.3789 30.0459 45.3789C37.1551 45.3789 42.9607 39.6015 42.9607 32.483C42.9703 26.2648 38.5057 21.0689 32.6909 19.859ZM23.1245 3.67103L29.5302 10.4142H25.3754C24.1373 10.4142 23.1245 9.39216 23.1245 8.15414V3.67103ZM7.04878 37.238C5.29509 37.238 3.89777 35.8311 3.89777 34.0774V5.45287C3.89777 3.68957 5.29509 2.25482 7.04878 2.25482H21.2486V8.15414C21.2486 10.4331 23.0964 12.2901 25.3754 12.2901H30.815V19.6149C30.5338 19.6057 30.3086 19.5775 30.0648 19.5775C26.7916 19.5775 23.781 20.8344 21.5113 22.8041H9.60001C9.084 22.8041 8.66206 23.226 8.66206 23.7417C8.66206 24.2577 9.084 24.6796 9.60001 24.6796H19.7668C19.1008 25.6176 18.5473 26.5555 18.1161 27.5872H9.60001C9.084 27.5872 8.66206 28.0092 8.66206 28.5252C8.66206 29.0409 9.084 29.4632 9.60001 29.4632H17.5064C17.2719 30.4011 17.15 31.4421 17.15 32.483C17.15 34.1711 17.4782 35.8407 18.0691 37.2477H7.04878V37.238ZM30.0555 43.5126C23.978 43.5126 19.0352 38.5698 19.0352 32.4923C19.0352 26.4148 23.9684 21.472 30.0555 21.472C36.1423 21.472 41.0755 26.4148 41.0755 32.4923C41.0755 38.5698 36.133 43.5126 30.0555 43.5126Z" fill="white"/>
<path d="M9.60007 19.9809H19.1008C19.6169 19.9809 20.0388 19.5586 20.0388 19.0429C20.0388 18.5269 19.6169 18.105 19.1008 18.105H9.60007C9.08405 18.105 8.66211 18.5269 8.66211 19.0429C8.66211 19.5586 9.08405 19.9809 9.60007 19.9809Z" fill="white"/>
<path d="M34.857 32.2952L31.0025 36.4501V26.2085C31.0025 25.6925 30.5802 25.2705 30.0645 25.2705C29.5485 25.2705 29.1266 25.6925 29.1266 26.2085V36.4501L25.2436 32.2952C24.8872 31.9203 24.2871 31.8922 23.9118 32.2485C23.5366 32.6049 23.5084 33.1958 23.8651 33.571L29.3518 39.4703C29.53 39.6578 29.7737 39.7704 30.0364 39.7704C30.299 39.7704 30.5428 39.6578 30.721 39.4703L36.2172 33.571C36.5736 33.1958 36.5547 32.5956 36.1795 32.2485C35.7949 31.8922 35.2137 31.9203 34.857 32.2952Z" fill="white"/>
</g>
<defs>
<clipPath id="clip0_956_35176">
<rect width="45" height="45" fill="white" transform="translate(0 0.378906)"/>
</clipPath>
</defs>
</svg>
