<svg width="45" height="45" viewBox="0 0 45 45" fill="none" xmlns="http://www.w3.org/2000/svg">
<g clip-path="url(#clip0_956_35109)">
<path d="M22.4973 14.0625L22.4932 23.9008C22.4932 24.2744 22.6415 24.6314 22.9052 24.8951L29.9433 31.9318L31.9318 29.9433L25.3057 23.3185L25.3098 14.0625H22.4973Z" fill="white"/>
<path d="M25.3125 2.8125C15.414 2.8125 7.22182 10.1637 5.84976 19.6875H0L7.03124 26.7188L14.0625 19.6875H8.69152C10.0369 11.7193 16.9672 5.62503 25.3125 5.62503C34.6179 5.62503 42.1875 13.1946 42.1875 22.5001C42.1875 31.8055 34.618 39.3751 25.3125 39.3751C20.0817 39.3751 15.2312 37.0075 12.0053 32.8794L9.78883 34.6097C13.5516 39.4245 19.2096 42.1875 25.3125 42.1875C36.1684 42.1875 45 33.3545 45 22.5001C45 11.6456 36.1684 2.81258 25.3125 2.8125Z" fill="white"/>
</g>
<defs>
<clipPath id="clip0_956_35109">
<rect width="45" height="45" fill="white"/>
</clipPath>
</defs>
</svg>
