<svg width="45" height="45" viewBox="0 0 45 45" fill="none" xmlns="http://www.w3.org/2000/svg">
<path d="M22.5 0C17.6459 0 13.6957 4.10674 13.6957 9.15359V22.5C13.6957 27.5478 17.6459 31.6536 22.5 31.6536C27.3541 31.6536 31.3044 27.5478 31.3044 22.5V9.15359C31.3044 4.10674 27.3541 0 22.5 0ZM22.5 29.6971C19.0409 29.6971 16.1795 26.9843 15.7226 23.4783H29.2764C28.8206 26.9853 25.9592 29.6971 22.5 29.6971ZM29.3478 21.5217H15.6522V9.15359C15.6522 5.18478 18.7239 1.95652 22.5 1.95652C26.2761 1.95652 29.3478 5.18478 29.3478 9.15359V21.5217Z" fill="white"/>
<path d="M36.1957 17.6089C35.6557 17.6089 35.2175 18.0471 35.2175 18.5871V22.5002C35.2175 29.5124 29.5123 35.2176 22.5001 35.2176C15.4879 35.2176 9.78269 29.5124 9.78269 22.5002V18.5871C9.78269 18.0471 9.34443 17.6089 8.80443 17.6089C8.26443 17.6089 7.82617 18.0471 7.82617 18.5871V22.5002C7.82617 30.2607 13.8865 36.6175 21.5218 37.1242V43.0437H16.6305C16.0905 43.0437 15.6523 43.4819 15.6523 44.0219C15.6523 44.5619 16.0905 45.0002 16.6305 45.0002H28.3696C28.9097 45.0002 29.3479 44.5619 29.3479 44.0219C29.3479 43.4819 28.9097 43.0437 28.3696 43.0437H23.4783V37.1242C31.1137 36.6175 37.174 30.2607 37.174 22.5002V18.5871C37.174 18.0471 36.7357 17.6089 36.1957 17.6089Z" fill="white"/>
</svg>
