<svg width="45" height="45" viewBox="0 0 45 45" fill="none" xmlns="http://www.w3.org/2000/svg">
<g clip-path="url(#clip0_956_35131)">
<path d="M32.7464 18.3207C31.914 18.3207 31.2391 17.6458 31.2391 16.8134C31.2391 15.981 31.914 15.3061 32.7464 15.3061V15.3146C33.2154 15.3146 33.5956 14.9344 33.5956 14.4654C33.5956 13.9964 33.2154 13.6162 32.7464 13.6162H14.0643C12.2981 13.6209 10.8676 15.0514 10.8629 16.8176V39.8985C10.8627 41.1507 11.8776 42.166 13.1298 42.1662C13.1441 42.1662 13.1584 42.1661 13.1727 42.1658H31.3368C32.5823 42.1611 33.5909 41.1525 33.5956 39.907V19.1699C33.5956 18.7008 33.2154 18.3207 32.7464 18.3207ZM14.0898 15.3061L14.0643 15.3146H29.9186C29.8154 15.5093 29.7329 15.7141 29.6724 15.926H24.6961C24.2272 15.926 23.847 16.3062 23.847 16.7752C23.847 17.2441 24.2272 17.6244 24.6961 17.6244H29.6469C29.7103 17.8662 29.8014 18.0999 29.9186 18.3207H14.0898C13.2574 18.3207 12.5825 17.6458 12.5825 16.8134C12.5825 15.9809 13.2574 15.3061 14.0898 15.3061ZM31.8972 39.8985C31.8972 40.208 31.6463 40.4589 31.3368 40.4589H13.1727C12.8632 40.4589 12.6122 40.208 12.6122 39.8985V19.6454C13.0748 19.8918 13.5911 20.0201 14.1153 20.0191L31.8972 20.0276V39.8985Z" fill="white"/>
<path d="M41.841 23.5518V22.5838C42.0649 11.9025 33.5875 3.06218 22.9061 2.83832C12.2248 2.61445 3.38453 11.0919 3.16066 21.7731C3.15503 22.0433 3.15503 22.3135 3.16066 22.5838V23.4754C1.00097 23.9393 -0.37386 26.0661 0.0900073 28.2258C0.420446 29.7643 1.62225 30.966 3.16066 31.2964V31.5002C3.16066 32.4382 3.921 33.1986 4.85903 33.1986H8.07744C9.01547 33.1986 9.77581 32.4382 9.77581 31.5002V23.433C9.77581 22.4949 9.01547 21.7346 8.07744 21.7346H4.90149C5.37905 12.0147 13.6456 4.52236 23.3655 4.99992C32.4172 5.44468 39.6554 12.6829 40.1002 21.7346H36.9497C36.0117 21.7346 35.2514 22.4949 35.2514 23.433V31.5002C35.2514 32.4382 36.0117 33.1986 36.9497 33.1986H40.1342C41.0722 33.1986 41.8325 32.4382 41.8325 31.5002V31.3813C43.6786 30.9853 44.998 29.3546 45 27.4666C44.9988 25.5811 43.6838 23.9513 41.841 23.5518ZM3.16066 27.8912C3.15822 27.9279 3.15822 27.9648 3.16066 28.0016V29.4961C2.30044 29.1443 1.73488 28.311 1.72554 27.3817L1.69157 27.3902C1.69624 26.4431 2.27857 25.5949 3.16066 25.2502V27.8912ZM8.07744 23.433V31.5002H4.8845V23.433H8.07744ZM40.1342 30.6256V31.4747L36.9497 31.5002V23.433H40.1342V30.6256ZM43.1328 28.3147C42.898 28.9095 42.4273 29.3802 41.8325 29.615V25.3182C43.0191 25.7865 43.6013 27.1281 43.1328 28.3147Z" fill="white"/>
</g>
<defs>
<clipPath id="clip0_956_35131">
<rect width="45" height="45" fill="white"/>
</clipPath>
</defs>
</svg>
