<svg width="78" height="78" viewBox="0 0 78 78" fill="none" xmlns="http://www.w3.org/2000/svg">
<path d="M65.9455 11.0839C50.6441 -3.69465 26.3854 -3.69465 11.084 11.0839C-4.06565 26.7696 -3.63116 51.7664 12.0545 66.9161C27.3559 81.6946 51.6146 81.6946 66.916 66.9161C82.0657 51.2306 81.6312 26.2336 65.9455 11.0839ZM65.0602 65.0603L65.0471 65.0471C50.6486 79.4326 27.3147 79.4219 12.9293 65.0234C-1.45609 50.6249 -1.44544 27.2911 12.9531 12.9057C27.3516 -1.47977 50.6854 -1.46913 65.0708 12.9293C71.9806 19.8453 75.8592 29.2235 75.8529 39C75.8535 48.7743 71.9713 58.1485 65.0602 65.0603Z" fill="#FF4F12"/>
<g clip-path="url(#clip0_956_32182)">
<path d="M33.5953 26.6652C33.5953 31.9946 37.9396 36.3308 43.2795 36.3308C48.6193 36.3308 52.9636 31.9946 52.9636 26.6652C52.9636 21.3358 48.6193 17 43.2795 17C37.9396 17 33.5953 21.3358 33.5953 26.6652ZM51.203 26.6652C51.203 31.0258 47.6485 34.5733 43.2795 34.5733C38.9104 34.5733 35.3559 31.0258 35.3559 26.6652C35.3559 22.305 38.9104 18.7575 43.2795 18.7575C47.6485 18.7575 51.203 22.305 51.203 26.6652Z" fill="black"/>
<path d="M27.1847 61.7401C27.5259 62.0834 28.0815 62.0872 28.4272 61.7473L32.6955 57.5506C33.4206 56.8268 33.6411 55.7553 33.3222 54.8239L34.2403 53.9402C34.7347 53.4636 35.3855 53.201 36.0735 53.201H47.7772C49.8536 53.201 51.8161 52.4052 53.3038 50.9601C53.3651 50.9007 52.8391 51.5191 61.2883 41.4405C62.5415 39.9608 62.354 37.7388 60.87 36.4867C59.3953 35.2462 57.1861 35.4244 55.9295 36.8787L50.7345 42.2078C50.0785 41.402 49.0782 40.8997 47.9974 40.8997H38.1801C36.7831 40.3164 35.3009 40.0212 33.7715 40.0212C29.5321 40.0212 25.8304 41.9754 23.8438 45.6393C23.0068 45.481 22.1242 45.7337 21.4891 46.3675L17.301 50.5598C16.9591 50.9021 16.9584 51.4559 17.2996 51.7992L27.1847 61.7401ZM33.7711 41.7783C35.1196 41.7783 36.4233 42.0492 37.6469 42.5834C37.7584 42.6322 37.8784 42.6572 37.9999 42.6572H47.9974C48.952 42.6572 49.7583 43.4342 49.7583 44.4143C49.7583 45.3835 48.9685 46.1718 47.9974 46.1718H40.8144C40.3284 46.1718 39.9341 46.5653 39.9341 47.0504C39.9341 47.5358 40.3284 47.9289 40.8144 47.9289H47.9974C49.9392 47.9289 51.5188 46.3524 51.5188 44.4143C51.5188 44.2598 51.5078 44.1067 51.4879 43.955C56.5133 38.7993 57.2219 38.0749 57.2522 38.0388C57.8796 37.2997 58.9935 37.2059 59.7345 37.8294C60.4761 38.4553 60.57 39.5663 59.9409 40.3096L52.0445 49.731C50.8914 50.8358 49.3775 51.4439 47.7772 51.4439H36.0735C34.9266 51.4439 33.841 51.8816 33.0174 52.6757L32.2692 53.3964L25.3722 46.5131C26.9841 43.4949 30.0089 41.7783 33.7711 41.7783ZM22.7351 47.6093C23.0254 47.3195 23.4712 47.2674 23.8252 47.4857C23.9776 47.5784 23.54 47.1808 31.4505 55.0649C31.8024 55.4161 31.7835 55.9757 31.4554 56.3033L27.8166 59.881L19.1661 51.1816L22.7351 47.6093Z" fill="black"/>
<path d="M42.2228 21.3936V22.4232C41.1981 22.7857 40.4619 23.7625 40.4619 24.9082C40.4619 26.3614 41.6466 27.5442 43.1031 27.5442C43.5885 27.5442 43.9834 27.9383 43.9834 28.4227C43.9834 28.9072 43.5885 29.3013 43.1031 29.3013C42.7271 29.3013 42.3209 29.0654 41.96 28.6366C41.647 28.2652 41.0918 28.2174 40.7196 28.5295C40.3474 28.8419 40.2992 29.3961 40.6122 29.7675C41.0828 30.3261 41.6363 30.7155 42.2228 30.9118V31.9373C42.2228 32.4228 42.617 32.8159 43.1031 32.8159C43.5892 32.8159 43.9834 32.4228 43.9834 31.9373V30.9077C45.0082 30.5448 45.7443 29.5681 45.7443 28.4227C45.7443 26.9691 44.5596 25.7867 43.1031 25.7867C42.6177 25.7867 42.2228 25.3926 42.2228 24.9082C42.2228 24.4237 42.6177 24.0292 43.1031 24.0292C43.4151 24.0292 43.7443 24.1882 44.0553 24.4886C44.4048 24.8261 44.9621 24.8168 45.3002 24.4684C45.6384 24.1195 45.6291 23.5634 45.2799 23.2259C44.8331 22.7943 44.3859 22.5502 43.9834 22.417V21.3936C43.9834 20.9081 43.5892 20.5146 43.1031 20.5146C42.617 20.5146 42.2228 20.9081 42.2228 21.3936Z" fill="black"/>
</g>
<defs>
<clipPath id="clip0_956_32182">
<rect width="45" height="45" fill="white" transform="translate(17 17)"/>
</clipPath>
</defs>
</svg>
