<svg width="78" height="78" viewBox="0 0 78 78" fill="none" xmlns="http://www.w3.org/2000/svg">
<path d="M65.9455 11.0839C50.6441 -3.69465 26.3854 -3.69465 11.084 11.0839C-4.06565 26.7696 -3.63116 51.7664 12.0545 66.9161C27.3559 81.6946 51.6146 81.6946 66.916 66.9161C82.0657 51.2306 81.6312 26.2336 65.9455 11.0839ZM65.0602 65.0603L65.0471 65.0471C50.6486 79.4326 27.3147 79.4219 12.9293 65.0234C-1.45609 50.6249 -1.44544 27.2911 12.9531 12.9057C27.3516 -1.47977 50.6854 -1.46913 65.0708 12.9293C71.9806 19.8453 75.8592 29.2235 75.8529 39C75.8535 48.7743 71.9713 58.1485 65.0602 65.0603Z" fill="#FF4F12"/>
<g clip-path="url(#clip0_956_32162)">
<path d="M50.6994 34.4468L49.688 35.5523L54.2876 39.7688C55.3704 40.765 55.9877 42.1686 55.988 43.6395V61.9996H57.488V43.6395C57.4862 41.7477 56.6927 39.9435 55.2995 38.6631L50.6994 34.4468Z" fill="black"/>
<path d="M44.7372 17H25.2372C23.1672 17.0026 21.4898 18.68 21.4872 20.75V58.25C21.4898 60.32 23.1672 61.9974 25.2372 62H43.9872V60.6582C43.9836 57.2797 44.9837 53.9754 46.8612 51.1663C47.0599 50.8685 47.02 50.4723 46.7674 50.2197L41.5174 44.9697C41.0322 44.4839 40.7749 43.8159 40.8089 43.1302C40.843 42.4441 41.1653 41.8051 41.6959 41.3698C42.718 40.5884 44.1634 40.7 45.0537 41.6283L52.4569 49.0317L53.5174 47.9713L48.4872 42.9395V20.75C48.4846 18.68 46.8072 17.0026 44.7372 17ZM46.9872 41.4395L46.1142 40.5665C44.6753 39.0965 42.3612 38.9433 40.7412 40.2114C39.8843 40.9156 39.3644 41.9495 39.3102 43.0578C39.2562 44.1659 39.6724 45.2454 40.4569 46.0303L45.2794 50.8529C43.4809 53.7511 42.5164 57.0894 42.4924 60.5H25.2372C23.9948 60.5 22.9872 59.4924 22.9872 58.25V56H41.7372V54.5H22.9872V23H46.9872V41.4395ZM46.9872 21.5H22.9872V20.75C22.9872 19.5076 23.9948 18.5 25.2372 18.5H44.7372C45.9796 18.5 46.9872 19.5076 46.9872 20.75V21.5Z" fill="black"/>
<path d="M25.9868 30.4998H28.9868C29.8154 30.4998 30.4868 29.8283 30.4868 28.9998V25.9998C30.4868 25.1712 29.8154 24.4998 28.9868 24.4998H25.9868C25.1583 24.4998 24.4868 25.1712 24.4868 25.9998V28.9998C24.4868 29.8283 25.1583 30.4998 25.9868 30.4998ZM25.9868 25.9998H28.9868V28.9998H25.9868V25.9998Z" fill="black"/>
<path d="M33.4874 30.4998H36.4874C37.3159 30.4998 37.9874 29.8283 37.9874 28.9998V25.9998C37.9874 25.1712 37.3159 24.4998 36.4874 24.4998H33.4874C32.6588 24.4998 31.9874 25.1712 31.9874 25.9998V28.9998C31.9874 29.8283 32.6588 30.4998 33.4874 30.4998ZM33.4874 25.9998H36.4874V28.9998H33.4874V25.9998Z" fill="black"/>
<path d="M40.9863 30.4998H43.9863C44.8148 30.4998 45.4863 29.8283 45.4863 28.9998V25.9998C45.4863 25.1712 44.8148 24.4998 43.9863 24.4998H40.9863C40.1577 24.4998 39.4863 25.1712 39.4863 25.9998V28.9998C39.4863 29.8283 40.1577 30.4998 40.9863 30.4998ZM40.9863 25.9998H43.9863V28.9998H40.9863V25.9998Z" fill="black"/>
<path d="M25.9868 38.0002H28.9868C29.8154 38.0002 30.4868 37.3288 30.4868 36.5002V33.5002C30.4868 32.6717 29.8154 32.0002 28.9868 32.0002H25.9868C25.1583 32.0002 24.4868 32.6717 24.4868 33.5002V36.5002C24.4868 37.3288 25.1583 38.0002 25.9868 38.0002ZM25.9868 33.5002H28.9868V36.5002H25.9868V33.5002Z" fill="black"/>
<path d="M25.9868 45.5H28.9868C29.8154 45.5 30.4868 44.8286 30.4868 44V41C30.4868 40.1714 29.8154 39.5 28.9868 39.5H25.9868C25.1583 39.5 24.4868 40.1714 24.4868 41V44C24.4868 44.8286 25.1583 45.5 25.9868 45.5ZM25.9868 41H28.9868V44H25.9868V41Z" fill="black"/>
<path d="M33.4874 38.0002H36.4874C37.3159 38.0002 37.9874 37.3288 37.9874 36.5002V33.5002C37.9874 32.6717 37.3159 32.0002 36.4874 32.0002H33.4874C32.6588 32.0002 31.9874 32.6717 31.9874 33.5002V36.5002C31.9874 37.3288 32.6588 38.0002 33.4874 38.0002ZM33.4874 33.5002H36.4874V36.5002H33.4874V33.5002Z" fill="black"/>
<path d="M40.9863 38.0002H43.9863C44.8148 38.0002 45.4863 37.3288 45.4863 36.5002V33.5002C45.4863 32.6717 44.8148 32.0002 43.9863 32.0002H40.9863C40.1577 32.0002 39.4863 32.6717 39.4863 33.5002V36.5002C39.4863 37.3288 40.1577 38.0002 40.9863 38.0002ZM40.9863 33.5002H43.9863V36.5002H40.9863V33.5002Z" fill="black"/>
<path d="M33.4874 45.5H36.4874C37.3159 45.5 37.9874 44.8286 37.9874 44V41C37.9874 40.1714 37.3159 39.5 36.4874 39.5H33.4874C32.6588 39.5 31.9874 40.1714 31.9874 41V44C31.9874 44.8286 32.6588 45.5 33.4874 45.5ZM33.4874 41H36.4874V44H33.4874V41Z" fill="black"/>
<path d="M25.9868 52.9998H28.9868C29.8154 52.9998 30.4868 52.3283 30.4868 51.4998V48.4998C30.4868 47.6712 29.8154 46.9998 28.9868 46.9998H25.9868C25.1583 46.9998 24.4868 47.6712 24.4868 48.4998V51.4998C24.4868 52.3283 25.1583 52.9998 25.9868 52.9998ZM25.9868 48.4998H28.9868V51.4998H25.9868V48.4998Z" fill="black"/>
<path d="M33.4874 52.9998H36.4874C37.3159 52.9998 37.9874 52.3283 37.9874 51.4998V48.4998C37.9874 47.6712 37.3159 46.9998 36.4874 46.9998H33.4874C32.6588 46.9998 31.9874 47.6712 31.9874 48.4998V51.4998C31.9874 52.3283 32.6588 52.9998 33.4874 52.9998ZM33.4874 48.4998H36.4874V51.4998H33.4874V48.4998Z" fill="black"/>
<path d="M34.2378 57.5002H35.7378V59.0002H34.2378V57.5002Z" fill="black"/>
</g>
<defs>
<clipPath id="clip0_956_32162">
<rect width="45" height="45" fill="white" transform="translate(17 17)"/>
</clipPath>
</defs>
</svg>
