<svg width="78" height="78" viewBox="0 0 78 78" fill="none" xmlns="http://www.w3.org/2000/svg">
<path d="M65.9455 11.0839C50.6441 -3.69465 26.3854 -3.69465 11.084 11.0839C-4.06565 26.7696 -3.63116 51.7664 12.0545 66.9161C27.3559 81.6946 51.6146 81.6946 66.916 66.9161C82.0657 51.2306 81.6312 26.2336 65.9455 11.0839ZM65.0602 65.0603L65.0471 65.0471C50.6486 79.4326 27.3147 79.4219 12.9293 65.0234C-1.45609 50.6249 -1.44544 27.2911 12.9531 12.9057C27.3516 -1.47977 50.6854 -1.46913 65.0708 12.9293C71.9806 19.8453 75.8592 29.2235 75.8529 39C75.8535 48.7743 71.9713 58.1485 65.0602 65.0603Z" fill="#FF4F12"/>
<g clip-path="url(#clip0_956_32151)">
<path d="M55.438 62H23.563C22.0123 62 20.7505 60.7381 20.7505 59.1875V40.4375C20.7505 39.92 21.1705 39.5 21.688 39.5H57.313C57.8305 39.5 58.2505 39.92 58.2505 40.4375V59.1875C58.2505 60.7381 56.9886 62 55.438 62ZM22.6255 41.375V59.1875C22.6255 59.7031 23.0473 60.125 23.563 60.125H55.438C55.9536 60.125 56.3755 59.7031 56.3755 59.1875V41.375H22.6255Z" fill="black"/>
<path d="M59.1875 41.3752H19.8125C18.2619 41.3752 17 40.1134 17 38.5627V32.9377C17 31.3871 18.2619 30.1252 19.8125 30.1252H59.1875C60.7381 30.1252 62 31.3871 62 32.9377V38.5627C62 40.1134 60.7381 41.3752 59.1875 41.3752ZM19.8125 32.0002C19.2969 32.0002 18.875 32.4221 18.875 32.9377V38.5627C18.875 39.0784 19.2969 39.5002 19.8125 39.5002H59.1875C59.7031 39.5002 60.125 39.0784 60.125 38.5627V32.9377C60.125 32.4221 59.7031 32.0002 59.1875 32.0002H19.8125Z" fill="black"/>
<path d="M39.5003 32C39.2285 32 38.9697 31.8837 38.7916 31.6756C38.6135 31.4712 38.5328 31.1994 38.5722 30.9312C38.5928 30.7906 40.6891 17 51.6878 17C56.5328 17 58.2522 19.6175 58.2522 21.8581C58.2522 26.0694 52.4341 32 39.5003 32ZM51.6878 18.875C43.9778 18.875 41.3491 27.0969 40.646 30.1062C50.9191 29.7875 56.3772 25.2013 56.3772 21.8581C56.3772 21.0256 56.0266 20.3394 55.3385 19.8237C54.5135 19.2031 53.2497 18.875 51.6878 18.875Z" fill="black"/>
<path d="M39.5023 32C26.5686 32 20.7505 26.0694 20.7505 21.8581C20.7505 20.4444 21.3861 19.1881 22.5373 18.3237C23.6905 17.4575 25.3423 17 27.3148 17C38.3136 17 40.4098 30.7906 40.4305 30.9312C40.4698 31.2012 40.3892 31.4712 40.2111 31.6756C40.033 31.8837 39.7742 32 39.5023 32ZM27.3148 18.875C24.4217 18.875 22.6255 20.0169 22.6255 21.8581C22.6255 25.2031 28.0873 29.7894 38.3661 30.1081C37.6855 27.08 35.1223 18.875 27.3148 18.875Z" fill="black"/>
<path d="M39.4995 62.0002C38.982 62.0002 38.562 61.5802 38.562 61.0627V31.0627C38.562 30.5452 38.982 30.1252 39.4995 30.1252C40.017 30.1252 40.437 30.5452 40.437 31.0627V61.0627C40.437 61.5802 40.017 62.0002 39.4995 62.0002Z" fill="black"/>
</g>
<defs>
<clipPath id="clip0_956_32151">
<rect width="45" height="45" fill="white" transform="translate(17 17)"/>
</clipPath>
</defs>
</svg>
