<svg width="27" height="44" viewBox="0 0 27 44" fill="none" xmlns="http://www.w3.org/2000/svg">
<g clip-path="url(#clip0_956_21230)">
<path d="M23.466 1.375H3.67488C2.73757 1.375 1.83865 1.73907 1.17587 2.38712C0.513092 3.03517 0.140747 3.91411 0.140747 4.83059V39.3865C0.140747 40.303 0.513092 41.1819 1.17587 41.83C1.83865 42.478 2.73757 42.8421 3.67488 42.8421H23.466C24.4033 42.8421 25.3022 42.478 25.965 41.83C26.6278 41.1819 27.0001 40.303 27.0001 39.3865V4.83059C27.0001 3.91411 26.6278 3.03517 25.965 2.38712C25.3022 1.73907 24.4033 1.375 23.466 1.375ZM25.5865 39.3865C25.5848 39.9359 25.3608 40.4623 24.9635 40.8508C24.5662 41.2393 24.0279 41.4582 23.466 41.4599H3.67488C3.11301 41.4582 2.57463 41.2393 2.17733 40.8508C1.78002 40.4623 1.55608 39.9359 1.5544 39.3865V38.6954H25.5865V39.3865ZM25.5865 37.3132H1.5544V6.90395H25.5865V37.3132ZM25.5865 5.52171H1.5544V4.83059C1.55608 4.28121 1.78002 3.7548 2.17733 3.36632C2.57463 2.97785 3.11301 2.75888 3.67488 2.75724H23.466C24.0279 2.75888 24.5662 2.97785 24.9635 3.36632C25.3608 3.7548 25.5848 4.28121 25.5865 4.83059V5.52171Z" fill="#100D23"/>
<path d="M12.1567 18.6534H11.4499C11.8896 18.3322 12.2464 17.9149 12.4918 17.4349C12.7373 16.955 12.8646 16.4255 12.8636 15.8889C12.8632 15.6001 12.8276 15.3124 12.7576 15.0319C12.603 14.4251 12.2815 13.8711 11.828 13.4301C11.3745 12.9891 10.8062 12.6779 10.1847 12.5301C9.65981 12.405 9.11265 12.3984 8.58479 12.511C8.05693 12.6236 7.56224 12.8523 7.13829 13.1797C6.71798 13.5013 6.37846 13.9126 6.1457 14.3821C5.91293 14.8517 5.79308 15.3671 5.79532 15.8889C5.79592 16.4253 5.92393 16.9542 6.16925 17.4339C6.41456 17.9136 6.77049 18.3311 7.20897 18.6534H6.50214C6.31468 18.6534 6.1349 18.7262 6.00234 18.8558C5.86979 18.9854 5.79532 19.1612 5.79532 19.3445C5.79532 19.5278 5.86979 19.7036 6.00234 19.8332C6.1349 19.9628 6.31468 20.0356 6.50214 20.0356H7.20897V20.7267C7.21009 21.093 7.35939 21.4439 7.62425 21.7029C7.88912 21.9619 8.24804 22.1079 8.62262 22.109H10.0363C10.4109 22.1079 10.7698 21.9619 11.0346 21.7029C11.2995 21.4439 11.4488 21.093 11.4499 20.7267V20.0356H12.1567C12.3442 20.0356 12.524 19.9628 12.6566 19.8332C12.7891 19.7036 12.8636 19.5278 12.8636 19.3445C12.8636 19.1612 12.7891 18.9854 12.6566 18.8558C12.524 18.7262 12.3442 18.6534 12.1567 18.6534ZM10.0363 20.7267H8.62262V20.0356H10.0363V20.7267ZM10.3897 17.6789C10.2818 17.7398 10.1923 17.8275 10.1303 17.9331C10.0682 18.0386 10.0358 18.1584 10.0363 18.2802V18.6534H8.62262V18.2802C8.62312 18.1584 8.59069 18.0386 8.52863 17.9331C8.46657 17.8275 8.37707 17.7398 8.26921 17.6789C7.94663 17.4986 7.67861 17.238 7.4924 16.9236C7.30618 16.6092 7.20839 16.2522 7.20897 15.8889C7.20959 15.5754 7.28234 15.266 7.42182 14.9836C7.5613 14.7013 7.76395 14.4532 8.01475 14.2579C8.38749 13.9711 8.84808 13.8153 9.32238 13.8155C9.50331 13.8158 9.68359 13.8366 9.85957 13.8777C10.2268 13.9667 10.5626 14.1512 10.8313 14.4116C11.1001 14.6719 11.2919 14.9985 11.3863 15.3567C11.4284 15.5265 11.4497 15.7004 11.4499 15.8751C11.4528 16.2407 11.3561 16.6005 11.1698 16.9175C10.9835 17.2345 10.7142 17.4973 10.3897 17.6789Z" fill="#100D23"/>
<path d="M12.1569 4.83072H14.9842C15.1717 4.83072 15.3514 4.75791 15.484 4.6283C15.6166 4.49869 15.691 4.3229 15.691 4.1396C15.691 3.95631 15.6166 3.78052 15.484 3.65091C15.3514 3.5213 15.1717 3.44849 14.9842 3.44849H12.1569C11.9694 3.44849 11.7897 3.5213 11.6571 3.65091C11.5245 3.78052 11.4501 3.95631 11.4501 4.1396C11.4501 4.3229 11.5245 4.49869 11.6571 4.6283C11.7897 4.75791 11.9694 4.83072 12.1569 4.83072Z" fill="#100D23"/>
<path d="M14.9842 39.3867H12.1569C11.9694 39.3867 11.7897 39.4595 11.6571 39.5891C11.5245 39.7188 11.4501 39.8945 11.4501 40.0778C11.4501 40.2611 11.5245 40.4369 11.6571 40.5665C11.7897 40.6961 11.9694 40.769 12.1569 40.769H14.9842C15.1717 40.769 15.3514 40.6961 15.484 40.5665C15.6166 40.4369 15.691 40.2611 15.691 40.0778C15.691 39.8945 15.6166 39.7188 15.484 39.5891C15.3514 39.4595 15.1717 39.3867 14.9842 39.3867Z" fill="#100D23"/>
<path d="M9.32951 11.7418C9.51697 11.7418 9.69675 11.669 9.82931 11.5394C9.96186 11.4098 10.0363 11.234 10.0363 11.0507V10.3596C10.0363 10.1763 9.96186 10.0005 9.82931 9.87088C9.69675 9.74127 9.51697 9.66846 9.32951 9.66846C9.14204 9.66846 8.96226 9.74127 8.8297 9.87088C8.69715 10.0005 8.62268 10.1763 8.62268 10.3596V11.0507C8.62268 11.234 8.69715 11.4098 8.8297 11.5394C8.96226 11.669 9.14204 11.7418 9.32951 11.7418Z" fill="#100D23"/>
<path d="M6.24303 12.0443C6.2891 12.1235 6.35074 12.1931 6.42441 12.2489C6.49809 12.3048 6.58233 12.3458 6.67229 12.3697C6.76225 12.3936 6.85615 12.3998 6.94859 12.3881C7.04103 12.3763 7.13018 12.3468 7.2109 12.3012C7.29163 12.2557 7.36234 12.1949 7.41896 12.1225C7.47558 12.0501 7.517 11.9675 7.54083 11.8794C7.56465 11.7913 7.57042 11.6994 7.55779 11.6091C7.54516 11.5188 7.51439 11.4318 7.46725 11.3532L7.11383 10.7547C7.01944 10.5972 6.86518 10.4827 6.68473 10.436C6.50428 10.3894 6.31229 10.4144 6.15065 10.5057C5.98901 10.5969 5.87084 10.747 5.82194 10.9231C5.77303 11.0993 5.79736 11.2871 5.88961 11.4458L6.24303 12.0443Z" fill="#100D23"/>
<path d="M4.07909 13.7228L4.6905 14.0683C4.77091 14.1144 4.85986 14.1445 4.95222 14.1569C5.04458 14.1692 5.13852 14.1636 5.22864 14.1403C5.31876 14.117 5.40328 14.0765 5.47732 14.0211C5.55137 13.9657 5.61349 13.8966 5.6601 13.8177C5.70671 13.7387 5.73689 13.6516 5.7489 13.5612C5.76092 13.4708 5.75453 13.379 5.73011 13.291C5.70568 13.2031 5.66371 13.1207 5.60659 13.0487C5.54948 12.9766 5.47836 12.9164 5.39733 12.8713L4.78592 12.5257C4.62366 12.4355 4.4315 12.4118 4.25137 12.4596C4.07124 12.5074 3.91777 12.6229 3.82444 12.781C3.73111 12.939 3.70551 13.1268 3.75322 13.3032C3.80093 13.4796 3.91807 13.6305 4.07909 13.7228Z" fill="#100D23"/>
<path d="M3.67472 16.5796H4.38155C4.56901 16.5796 4.74879 16.5068 4.88135 16.3772C5.0139 16.2476 5.08837 16.0718 5.08837 15.8885C5.08837 15.7052 5.0139 15.5294 4.88135 15.3998C4.74879 15.2702 4.56901 15.1974 4.38155 15.1974H3.67472C3.48726 15.1974 3.30747 15.2702 3.17492 15.3998C3.04236 15.5294 2.9679 15.7052 2.9679 15.8885C2.9679 16.0718 3.04236 16.2476 3.17492 16.3772C3.30747 16.5068 3.48726 16.5796 3.67472 16.5796Z" fill="#100D23"/>
<path d="M4.69153 17.7087L4.08013 18.0542C3.9991 18.0993 3.92797 18.1596 3.87086 18.2316C3.81375 18.3036 3.77177 18.386 3.74735 18.474C3.72293 18.5619 3.71654 18.6537 3.72855 18.7441C3.74057 18.8345 3.77075 18.9217 3.81736 19.0006C3.86397 19.0795 3.92608 19.1487 4.00013 19.204C4.07418 19.2594 4.1587 19.2999 4.24882 19.3232C4.33894 19.3465 4.43288 19.3521 4.52523 19.3398C4.61759 19.3274 4.70654 19.2973 4.78695 19.2512L5.39836 18.9057C5.47939 18.8606 5.55051 18.8004 5.60763 18.7283C5.66474 18.6563 5.70671 18.5739 5.73114 18.486C5.75556 18.398 5.76195 18.3062 5.74993 18.2158C5.73792 18.1254 5.70774 18.0383 5.66113 17.9593C5.61452 17.8804 5.5524 17.8112 5.47836 17.7559C5.40431 17.7005 5.31979 17.66 5.22967 17.6367C5.13955 17.6134 5.04561 17.6078 4.95325 17.6201C4.8609 17.6325 4.77195 17.6626 4.69153 17.7087Z" fill="#100D23"/>
<path d="M11.4502 12.2948C11.6125 12.3865 11.8055 12.4113 11.9865 12.3639C12.1676 12.3164 12.322 12.2006 12.4157 12.0419L12.7691 11.4434C12.8163 11.3647 12.8471 11.2778 12.8597 11.1875C12.8723 11.0972 12.8665 11.0053 12.8427 10.9172C12.8189 10.8291 12.7775 10.7464 12.7208 10.674C12.6642 10.6016 12.5935 10.5409 12.5128 10.4953C12.4321 10.4497 12.3429 10.4202 12.2505 10.4085C12.158 10.3967 12.0641 10.403 11.9742 10.4269C11.8842 10.4507 11.8 10.4918 11.7263 10.5476C11.6526 10.6035 11.591 10.673 11.5449 10.7522L11.1915 11.3508C11.0978 11.5095 11.0724 11.6981 11.1209 11.8752C11.1694 12.0522 11.2879 12.2032 11.4502 12.2948Z" fill="#100D23"/>
<path d="M13.6145 14.1609C13.7386 14.1612 13.8606 14.1292 13.9679 14.0683L14.58 13.7228C14.7411 13.6305 14.8582 13.4796 14.9059 13.3032C14.9536 13.1268 14.928 12.939 14.8347 12.781C14.7414 12.6229 14.5879 12.5074 14.4078 12.4596C14.2276 12.4118 14.0355 12.4355 13.8732 12.5257L13.2611 12.8713C13.1264 12.9474 13.0211 13.0648 12.9615 13.2053C12.902 13.3459 12.8915 13.5017 12.9318 13.6487C12.9721 13.7956 13.0608 13.9255 13.1842 14.0181C13.3077 14.1107 13.4589 14.1609 13.6145 14.1609Z" fill="#100D23"/>
<path d="M13.5706 15.8885C13.5706 16.0718 13.645 16.2476 13.7776 16.3772C13.9101 16.5068 14.0899 16.5796 14.2774 16.5796H14.9842C15.1717 16.5796 15.3515 16.5068 15.484 16.3772C15.6166 16.2476 15.691 16.0718 15.691 15.8885C15.691 15.7052 15.6166 15.5294 15.484 15.3998C15.3515 15.2702 15.1717 15.1974 14.9842 15.1974H14.2774C14.0899 15.1974 13.9101 15.2702 13.7776 15.3998C13.645 15.5294 13.5706 15.7052 13.5706 15.8885Z" fill="#100D23"/>
<path d="M13.2618 18.9057L13.8739 19.2512C13.9543 19.2973 14.0432 19.3274 14.1356 19.3398C14.2279 19.3521 14.3219 19.3465 14.412 19.3232C14.5021 19.2999 14.5866 19.2594 14.6607 19.204C14.7347 19.1487 14.7969 19.0795 14.8435 19.0006C14.8901 18.9217 14.9203 18.8345 14.9323 18.7441C14.9443 18.6537 14.9379 18.5619 14.9135 18.474C14.8891 18.386 14.8471 18.3036 14.79 18.2316C14.7329 18.1596 14.6617 18.0993 14.5807 18.0542L13.9686 17.7087C13.8882 17.6626 13.7992 17.6325 13.7069 17.6201C13.6145 17.6078 13.5206 17.6134 13.4305 17.6367C13.3403 17.66 13.2558 17.7005 13.1818 17.7559C13.1077 17.8112 13.0456 17.8804 12.999 17.9593C12.9524 18.0383 12.9222 18.1254 12.9102 18.2158C12.8982 18.3062 12.9046 18.398 12.929 18.486C12.9534 18.5739 12.9954 18.6563 13.0525 18.7283C13.1096 18.8004 13.1807 18.8606 13.2618 18.9057Z" fill="#100D23"/>
<path d="M12.1567 31.0936H11.4499C11.8896 30.7724 12.2464 30.3551 12.4918 29.8751C12.7373 29.3952 12.8646 28.8657 12.8636 28.3291C12.8632 28.0403 12.8276 27.7526 12.7576 27.4721C12.603 26.8652 12.2815 26.3113 11.828 25.8703C11.3745 25.4293 10.8062 25.1181 10.1847 24.9703C9.65981 24.8451 9.11265 24.8386 8.58479 24.9512C8.05693 25.0638 7.56224 25.2925 7.13829 25.6199C6.71798 25.9415 6.37846 26.3528 6.1457 26.8223C5.91293 27.2919 5.79308 27.8073 5.79532 28.3291C5.79592 28.8654 5.92393 29.3943 6.16925 29.8741C6.41456 30.3538 6.77049 30.7713 7.20897 31.0936H6.50214C6.31468 31.0936 6.1349 31.1664 6.00234 31.296C5.86979 31.4256 5.79532 31.6014 5.79532 31.7847C5.79532 31.968 5.86979 32.1438 6.00234 32.2734C6.1349 32.403 6.31468 32.4758 6.50214 32.4758H7.20897V33.1669C7.21009 33.5332 7.35939 33.8841 7.62425 34.1431C7.88912 34.4021 8.24804 34.5481 8.62262 34.5492H10.0363C10.4109 34.5481 10.7698 34.4021 11.0346 34.1431C11.2995 33.8841 11.4488 33.5332 11.4499 33.1669V32.4758H12.1567C12.3442 32.4758 12.524 32.403 12.6566 32.2734C12.7891 32.1438 12.8636 31.968 12.8636 31.7847C12.8636 31.6014 12.7891 31.4256 12.6566 31.296C12.524 31.1664 12.3442 31.0936 12.1567 31.0936ZM10.0363 33.1669H8.62262V32.4758H10.0363V33.1669ZM10.3897 30.1191C10.2818 30.18 10.1923 30.2677 10.1303 30.3732C10.0682 30.4788 10.0358 30.5986 10.0363 30.7204V31.0936H8.62262V30.7204C8.62312 30.5986 8.59069 30.4788 8.52863 30.3732C8.46657 30.2677 8.37707 30.18 8.26921 30.1191C7.94663 29.9388 7.67861 29.6782 7.4924 29.3638C7.30618 29.0494 7.20839 28.6924 7.20897 28.3291C7.20959 28.0155 7.28234 27.7061 7.42182 27.4238C7.5613 27.1415 7.76395 26.8934 8.01475 26.698C8.38749 26.4113 8.84808 26.2555 9.32238 26.2557C9.50331 26.2559 9.68359 26.2768 9.85957 26.3179C10.2268 26.4069 10.5626 26.5914 10.8313 26.8517C11.1001 27.1121 11.2919 27.4387 11.3863 27.7969C11.4284 27.9666 11.4497 28.1406 11.4499 28.3153C11.4528 28.6809 11.3561 29.0406 11.1698 29.3576C10.9835 29.6746 10.7142 29.9375 10.3897 30.1191Z" fill="#100D23"/>
<path d="M20.6388 26.2552C20.0769 26.2569 19.5385 26.4759 19.1412 26.8643C18.7439 27.2528 18.52 27.7792 18.5183 28.3286V32.4753C18.5183 33.0252 18.7417 33.5526 19.1394 33.9414C19.5371 34.3302 20.0764 34.5487 20.6388 34.5487C21.2012 34.5487 21.7405 34.3302 22.1382 33.9414C22.5359 33.5526 22.7593 33.0252 22.7593 32.4753V28.3286C22.7576 27.7792 22.5336 27.2528 22.1363 26.8643C21.739 26.4759 21.2007 26.2569 20.6388 26.2552ZM20.6388 33.1664C20.499 33.1664 20.3623 33.1259 20.2461 33.05C20.1299 32.974 20.0393 32.8661 19.9858 32.7398C19.9323 32.6135 19.9183 32.4745 19.9455 32.3405C19.9728 32.2064 20.0401 32.0833 20.139 31.9866C20.2378 31.89 20.3638 31.8241 20.5009 31.7975C20.638 31.7708 20.7801 31.7845 20.9093 31.8368C21.0384 31.8891 21.1488 31.9777 21.2265 32.0914C21.3042 32.205 21.3456 32.3386 21.3456 32.4753C21.3456 32.6586 21.2711 32.8344 21.1386 32.964C21.006 33.0936 20.8263 33.1664 20.6388 33.1664ZM21.3456 30.5264C20.8897 30.3605 20.3879 30.3605 19.932 30.5264V28.3286C19.932 28.1453 20.0064 27.9695 20.139 27.8399C20.2715 27.7103 20.4513 27.6375 20.6388 27.6375C20.8263 27.6375 21.006 27.7103 21.1386 27.8399C21.2711 27.9695 21.3456 28.1453 21.3456 28.3286V30.5264Z" fill="#100D23"/>
<path d="M20.6388 13.8152C20.0769 13.8168 19.5385 14.0358 19.1412 14.4243C18.7439 14.8127 18.52 15.3392 18.5183 15.8885V20.0353C18.5183 20.5851 18.7417 21.1125 19.1394 21.5013C19.5371 21.8902 20.0764 22.1086 20.6388 22.1086C21.2012 22.1086 21.7405 21.8902 22.1382 21.5013C22.5359 21.1125 22.7593 20.5851 22.7593 20.0353V15.8885C22.7576 15.3392 22.5336 14.8127 22.1363 14.4243C21.739 14.0358 21.2007 13.8168 20.6388 13.8152ZM21.3456 20.0353C21.3456 20.2185 21.2711 20.3943 21.1386 20.5239C21.006 20.6536 20.8263 20.7264 20.6388 20.7264C20.4513 20.7264 20.2715 20.6536 20.139 20.5239C20.0064 20.3943 19.932 20.2185 19.932 20.0353V17.8375C20.3879 18.0033 20.8897 18.0033 21.3456 17.8375V20.0353ZM20.6388 16.5797C20.499 16.5797 20.3623 16.5391 20.2461 16.4632C20.1299 16.3872 20.0393 16.2793 19.9858 16.153C19.9323 16.0267 19.9183 15.8878 19.9455 15.7537C19.9728 15.6196 20.0401 15.4965 20.139 15.3998C20.2378 15.3032 20.3638 15.2374 20.5009 15.2107C20.638 15.184 20.7801 15.1977 20.9093 15.25C21.0384 15.3023 21.1488 15.3909 21.2265 15.5046C21.3042 15.6182 21.3456 15.7519 21.3456 15.8885C21.3456 16.0718 21.2711 16.2476 21.1386 16.3772C21.006 16.5068 20.8263 16.5797 20.6388 16.5797Z" fill="#100D23"/>
</g>
<defs>
<clipPath id="clip0_956_21230">
<rect width="27" height="44" fill="white"/>
</clipPath>
</defs>
</svg>
