<svg width="45" height="45" viewBox="0 0 45 45" fill="none" xmlns="http://www.w3.org/2000/svg">
<path d="M26.2565 14.7722C26.2565 14.4082 25.9614 14.113 25.5973 14.113H7.23975C6.87562 14.113 6.58057 14.4082 6.58057 14.7722C6.58057 15.1363 6.87562 15.4314 7.23975 15.4314H25.5973C25.9614 15.4314 26.2565 15.1363 26.2565 14.7722Z" fill="#181518"/>
<path d="M22.4907 20.1709H7.23975C6.87562 20.1709 6.58057 20.466 6.58057 20.8301C6.58057 21.1941 6.87562 21.4893 7.23975 21.4893H22.4906C22.8547 21.4893 23.1498 21.1941 23.1498 20.8301C23.1498 20.466 22.8547 20.1709 22.4907 20.1709Z" fill="#181518"/>
<path d="M22.4907 26.2285H7.23975C6.87562 26.2285 6.58057 26.5237 6.58057 26.8877C6.58057 27.2517 6.87562 27.5469 7.23975 27.5469H22.4906C22.8547 27.5469 23.1498 27.2517 23.1498 26.8877C23.1498 26.5237 22.8547 26.2285 22.4907 26.2285Z" fill="#181518"/>
<path d="M44.4249 18.8852C42.2081 17.0973 40.9366 14.4384 40.9366 11.5902V10.8088C40.9366 8.62591 39.7133 6.72352 37.9164 5.75065V4.84494C37.9164 3.34096 36.6928 2.11743 35.1888 2.11743C33.6849 2.11743 32.4613 3.34105 32.4613 4.84494V5.75065C30.6643 6.72352 29.441 8.62591 29.441 10.8088V11.5903C29.441 14.4386 28.1695 17.0974 25.9529 18.8851C25.3539 19.3678 25.1975 20.2102 25.6034 20.8738C25.8831 21.331 26.37 21.604 26.9059 21.604H31.1197C31.6861 23.3426 33.3178 24.5548 35.1889 24.5548C37.06 24.5548 38.6916 23.3426 39.2579 21.604H43.4718C44.0077 21.604 44.4945 21.3311 44.7741 20.8739C45.1808 20.2088 45.0224 19.3665 44.4249 18.8852ZM33.7796 4.84494C33.7796 4.0679 34.4118 3.4357 35.1889 3.4357C35.9659 3.4357 36.598 4.0679 36.598 4.84494V5.23641C35.683 5.0049 34.7131 5.00024 33.7796 5.23641V4.84494ZM35.1889 23.2363C34.0465 23.2363 33.0335 22.5835 32.5416 21.6039H37.836C37.3442 22.5835 36.3313 23.2363 35.1889 23.2363ZM43.4718 20.2856C41.5953 20.2856 29.8554 20.2856 26.906 20.2856C26.7192 20.2856 26.6124 20.0469 26.7803 19.9114C29.3091 17.8721 30.7593 14.8391 30.7593 11.5902V10.8088C30.7593 8.36637 32.7464 6.37934 35.1888 6.37934C37.6312 6.37934 39.6183 8.36637 39.6183 10.8088V11.5902C39.6183 14.8391 41.0686 17.8721 43.5975 19.9116C43.7653 20.0468 43.6585 20.2856 43.4718 20.2856Z" fill="#181518"/>
<path d="M39.1637 23.6515C38.7996 23.6515 38.5045 23.9467 38.5045 24.3107V29.9519C38.5045 32.1333 36.7298 33.9081 34.5484 33.9081H14.5576C14.003 33.9081 13.476 34.1184 13.0738 34.5002L5.93982 41.2724L6.99047 35.4385C7.13426 34.6405 6.52061 33.9082 5.71122 33.9082H5.27449C3.09305 33.9082 1.31836 32.1334 1.31836 29.952V11.9356C1.31836 9.75418 3.09305 7.97949 5.27449 7.97949H28.1956C28.5597 7.97949 28.8548 7.68436 28.8548 7.32031C28.8548 6.95627 28.5597 6.66113 28.1956 6.66113H5.27449C2.36619 6.66113 0 9.02724 0 11.9356V29.9519C0 32.8603 2.36619 35.2265 5.27449 35.2265H5.68907L4.5559 41.5188C4.46687 42.013 4.70408 42.5053 5.14591 42.7437C5.5858 42.9809 6.12765 42.9117 6.49362 42.5643L13.9815 35.4563C14.1376 35.308 14.3423 35.2264 14.5577 35.2264H34.5485C37.4569 35.2264 39.823 32.8602 39.823 29.9518V24.3106C39.8229 23.9467 39.5278 23.6515 39.1637 23.6515Z" fill="#181518"/>
</svg>
