<svg width="45" height="45" viewBox="0 0 45 45" fill="none" xmlns="http://www.w3.org/2000/svg">
<path d="M12.6565 4.21853C11.9175 4.2165 11.1855 4.36105 10.5027 4.64383C9.81997 4.92661 9.20009 5.342 8.67894 5.86595C8.55086 5.99856 8.47999 6.17617 8.48159 6.36053C8.4832 6.54488 8.55714 6.72124 8.68751 6.8516C8.81787 6.98197 8.99423 7.05591 9.17858 7.05751C9.36294 7.05912 9.54055 6.98825 9.67316 6.86017C10.0649 6.46834 10.53 6.15753 11.0419 5.94547C11.5538 5.73342 12.1024 5.62427 12.6565 5.62427C13.2106 5.62427 13.7592 5.73342 14.2711 5.94547C14.783 6.15753 15.2481 6.46834 15.6399 6.86017C15.7047 6.92732 15.7823 6.98089 15.8681 7.01774C15.9539 7.05459 16.0462 7.07398 16.1395 7.07479C16.2329 7.07561 16.3255 7.05782 16.4119 7.02246C16.4983 6.98711 16.5768 6.9349 16.6428 6.86888C16.7088 6.80286 16.761 6.72436 16.7964 6.63795C16.8318 6.55153 16.8495 6.45895 16.8487 6.36559C16.8479 6.27223 16.8285 6.17996 16.7917 6.09418C16.7548 6.00839 16.7013 5.93081 16.6341 5.86595C16.113 5.342 15.4931 4.92661 14.8103 4.64383C14.1276 4.36105 13.3955 4.2165 12.6565 4.21853Z" fill="#181518"/>
<path d="M12.6557 6.32812C11.725 6.32835 10.8321 6.6969 10.1722 7.35328C10.1005 7.41644 10.0423 7.49357 10.0014 7.57996C9.96041 7.66636 9.93751 7.7602 9.93405 7.85574C9.9306 7.95129 9.94666 8.04654 9.98127 8.13566C10.0159 8.22479 10.0683 8.30592 10.1353 8.3741C10.2024 8.44228 10.2826 8.49607 10.3711 8.53218C10.4596 8.5683 10.5546 8.58598 10.6502 8.58415C10.7458 8.58232 10.84 8.56101 10.9271 8.52153C11.0141 8.48205 11.0923 8.42523 11.1566 8.35453C11.5597 7.96975 12.0956 7.75506 12.6529 7.75506C13.2102 7.75506 13.746 7.96975 14.1491 8.35453C14.2841 8.47327 14.4594 8.53582 14.639 8.52932C14.8186 8.52282 14.989 8.44778 15.115 8.3196C15.241 8.19142 15.3132 8.01984 15.3166 7.84012C15.32 7.66041 15.2545 7.48619 15.1335 7.35328C14.475 6.69827 13.5845 6.32983 12.6557 6.32812Z" fill="#181518"/>
<path d="M12.6562 11.25C13.4329 11.25 14.0625 10.6204 14.0625 9.84375C14.0625 9.0671 13.4329 8.4375 12.6562 8.4375C11.8796 8.4375 11.25 9.0671 11.25 9.84375C11.25 10.6204 11.8796 11.25 12.6562 11.25Z" fill="#181518"/>
<path d="M40.0781 1.40625H4.92188C3.98947 1.40625 3.09526 1.77665 2.43595 2.43595C1.77665 3.09526 1.40625 3.98947 1.40625 4.92188V24.6094C1.40625 25.5418 1.77665 26.436 2.43595 27.0953C3.09526 27.7546 3.98947 28.125 4.92188 28.125H11.6367C11.6794 28.3865 11.7726 28.6373 11.9109 28.8633L19.3781 41.175C19.5811 41.5048 19.6882 41.8846 19.6875 42.2719V42.8906C19.6875 43.0771 19.7616 43.2559 19.8934 43.3878C20.0253 43.5197 20.2041 43.5938 20.3906 43.5938C20.5771 43.5938 20.7559 43.5197 20.8878 43.3878C21.0197 43.2559 21.0938 43.0771 21.0938 42.8906V42.2719C21.0942 41.6269 20.9166 40.9942 20.5805 40.4437L13.1133 28.1391C13.068 28.0677 13.0378 27.9879 13.0245 27.9045C13.0112 27.821 13.0151 27.7358 13.0359 27.6539C13.0617 27.5656 13.1056 27.4837 13.1649 27.4135C13.2243 27.3432 13.2977 27.2862 13.3805 27.2461C13.6207 27.1049 13.8865 27.0128 14.1625 26.9749C14.4385 26.937 14.7193 26.9542 14.9886 27.0255C15.258 27.0968 15.5105 27.2207 15.7317 27.3901C15.9529 27.5595 16.1384 27.771 16.2773 28.0125C17.7258 30.5367 19.7789 34.1016 19.7789 34.1016C19.8579 34.235 19.978 34.3393 20.1212 34.3989C20.2644 34.4584 20.4231 34.4701 20.5734 34.432C20.7233 34.3917 20.8555 34.3029 20.9497 34.1796C21.0438 34.0562 21.0944 33.9052 21.0938 33.75V18.2812C21.0938 17.9083 21.2419 17.5506 21.5056 17.2869C21.7694 17.0232 22.127 16.875 22.5 16.875C22.873 16.875 23.2306 17.0232 23.4944 17.2869C23.7581 17.5506 23.9062 17.9083 23.9062 18.2812V29.5312C23.9062 29.7177 23.9803 29.8966 24.1122 30.0284C24.2441 30.1603 24.4229 30.2344 24.6094 30.2344C24.7959 30.2344 24.9747 30.1603 25.1066 30.0284C25.2384 29.8966 25.3125 29.7177 25.3125 29.5312V26.0156C25.3125 25.6427 25.4607 25.285 25.7244 25.0213C25.9881 24.7575 26.3458 24.6094 26.7188 24.6094C27.0917 24.6094 27.4494 24.7575 27.7131 25.0213C27.9768 25.285 28.125 25.6427 28.125 26.0156V29.5312C28.125 29.7177 28.1991 29.8966 28.3309 30.0284C28.4628 30.1603 28.6416 30.2344 28.8281 30.2344C29.0146 30.2344 29.1934 30.1603 29.3253 30.0284C29.4572 29.8966 29.5312 29.7177 29.5312 29.5312V26.0156C29.5312 25.6427 29.6794 25.285 29.9431 25.0213C30.2069 24.7575 30.5645 24.6094 30.9375 24.6094C31.3105 24.6094 31.6681 24.7575 31.9319 25.0213C32.1956 25.285 32.3438 25.6427 32.3438 26.0156V29.5312C32.3438 29.7177 32.4178 29.8966 32.5497 30.0284C32.6816 30.1603 32.8604 30.2344 33.0469 30.2344C33.2334 30.2344 33.4122 30.1603 33.5441 30.0284C33.6759 29.8966 33.75 29.7177 33.75 29.5312V27.4219C33.75 27.0489 33.8982 26.6912 34.1619 26.4275C34.4256 26.1638 34.7833 26.0156 35.1562 26.0156C35.5292 26.0156 35.8869 26.1638 36.1506 26.4275C36.4143 26.6912 36.5625 27.0489 36.5625 27.4219V38.5242C36.564 38.9396 36.4416 39.346 36.2109 39.6914L35.7469 40.3875C35.3607 40.9635 35.1551 41.6416 35.1562 42.3352V42.8906C35.1562 43.0771 35.2303 43.2559 35.3622 43.3878C35.4941 43.5197 35.6729 43.5938 35.8594 43.5938C36.0459 43.5938 36.2247 43.5197 36.3566 43.3878C36.4884 43.2559 36.5625 43.0771 36.5625 42.8906V42.3352C36.561 41.9198 36.6834 41.5134 36.9141 41.168L37.3781 40.4719C37.7643 39.8958 37.9699 39.2177 37.9688 38.5242V28.125H40.0781C41.0105 28.125 41.9047 27.7546 42.564 27.0953C43.2234 26.436 43.5938 25.5418 43.5938 24.6094V4.92188C43.5938 3.98947 43.2234 3.09526 42.564 2.43595C41.9047 1.77665 41.0105 1.40625 40.0781 1.40625ZM5.625 26.7188H4.92188C4.36295 26.7171 3.82739 26.4943 3.43217 26.0991C3.03694 25.7039 2.81417 25.1683 2.8125 24.6094V4.92188C2.81417 4.36295 3.03694 3.82739 3.43217 3.43217C3.82739 3.03694 4.36295 2.81417 4.92188 2.8125H5.625V26.7188ZM19.6875 31.1273C19.1602 30.2063 18.5344 29.1234 17.9578 28.125H19.6875V31.1273ZM22.5 15.4688C21.7541 15.4688 21.0387 15.7651 20.5113 16.2925C19.9838 16.82 19.6875 17.5353 19.6875 18.2812V21.0938H16.875V15.0328L22.5 11.7844L28.125 15.0328V21.0938H25.3125V18.2812C25.3125 17.5353 25.0162 16.82 24.4887 16.2925C23.9613 15.7651 23.2459 15.4688 22.5 15.4688ZM14.4141 14.8289L13.718 13.6195L22.5 8.54297L31.282 13.6195L30.5859 14.8289L22.8516 10.3641C22.7441 10.3042 22.6231 10.2727 22.5 10.2727C22.3769 10.2727 22.2559 10.3042 22.1484 10.3641L14.4141 14.8289ZM37.9688 26.7188H37.8703C37.7148 26.1165 37.3641 25.5829 36.873 25.2012C36.3819 24.8195 35.7782 24.6114 35.1562 24.6094C34.5941 24.6072 34.0447 24.7765 33.5812 25.0945C33.4233 24.629 33.145 24.2135 32.7745 23.8902C32.4041 23.5669 31.9548 23.3474 31.4721 23.2539C30.9895 23.1603 30.4907 23.1961 30.0263 23.3576C29.562 23.5191 29.1486 23.8006 28.8281 24.1734C28.5668 23.8697 28.2432 23.6258 27.8792 23.4584C27.5152 23.2909 27.1194 23.2039 26.7188 23.2031C26.2231 23.2051 25.7371 23.3411 25.3125 23.5969V22.5H28.8281C29.0146 22.5 29.1934 22.4259 29.3253 22.2941C29.4572 22.1622 29.5312 21.9834 29.5312 21.7969V15.8484L30.4875 16.4039C30.6501 16.4954 30.8422 16.5193 31.0223 16.4707C31.2024 16.422 31.3563 16.3046 31.4508 16.1437L32.857 13.7109C32.9466 13.5479 32.9717 13.3572 32.9273 13.1766C32.8771 12.9961 32.7585 12.8423 32.5969 12.7477L22.8516 7.12266C22.7437 7.06382 22.6228 7.03299 22.5 7.03299C22.3772 7.03299 22.2563 7.06382 22.1484 7.12266L12.4031 12.7477C12.2415 12.8423 12.1229 12.9961 12.0727 13.1766C12.0283 13.3572 12.0534 13.5479 12.143 13.7109L13.5492 16.1437C13.6433 16.3051 13.7972 16.4228 13.9775 16.4715C14.1578 16.5202 14.35 16.4959 14.5125 16.4039L15.4688 15.8484V21.7969C15.4688 21.9834 15.5428 22.1622 15.6747 22.2941C15.8066 22.4259 15.9854 22.5 16.1719 22.5H19.6875V26.7188H17.0578C16.5128 26.109 15.772 25.7086 14.9633 25.5866C14.1546 25.4647 13.3287 25.6288 12.6281 26.0508C12.3497 26.2169 12.1138 26.4456 11.9391 26.7188H7.03125V2.8125H37.9688V26.7188ZM42.1875 24.6094C42.1858 25.1683 41.9631 25.7039 41.5678 26.0991C41.1726 26.4943 40.6371 26.7171 40.0781 26.7188H39.375V2.8125H40.0781C40.6371 2.81417 41.1726 3.03694 41.5678 3.43217C41.9631 3.82739 42.1858 4.36295 42.1875 4.92188V24.6094Z" fill="#181518"/>
<path d="M4.21875 12.6562C4.03227 12.6562 3.85343 12.7303 3.72157 12.8622C3.5897 12.9941 3.51562 13.1729 3.51562 13.3594V16.1719C3.51562 16.3584 3.5897 16.5372 3.72157 16.6691C3.85343 16.8009 4.03227 16.875 4.21875 16.875C4.40523 16.875 4.58407 16.8009 4.71593 16.6691C4.8478 16.5372 4.92188 16.3584 4.92188 16.1719V13.3594C4.92188 13.1729 4.8478 12.9941 4.71593 12.8622C4.58407 12.7303 4.40523 12.6562 4.21875 12.6562Z" fill="#181518"/>
<path d="M40.7812 12.6562C40.5948 12.6562 40.4159 12.7303 40.2841 12.8622C40.1522 12.9941 40.0781 13.1729 40.0781 13.3594V16.1719C40.0781 16.3584 40.1522 16.5372 40.2841 16.6691C40.4159 16.8009 40.5948 16.875 40.7812 16.875C40.9677 16.875 41.1466 16.8009 41.2784 16.6691C41.4103 16.5372 41.4844 16.3584 41.4844 16.1719V13.3594C41.4844 13.1729 41.4103 12.9941 41.2784 12.8622C41.1466 12.7303 40.9677 12.6562 40.7812 12.6562Z" fill="#181518"/>
</svg>
