<svg width="50" height="50" viewBox="0 0 50 50" fill="none" xmlns="http://www.w3.org/2000/svg">
<path d="M35.0397 21.4606C34.9694 21.348 34.8715 21.2552 34.7553 21.1909C34.6391 21.1267 34.5084 21.0931 34.3757 21.0934H25.7819V9.37464C25.7809 9.1997 25.7212 9.03018 25.6123 8.89322C25.5035 8.75625 25.3518 8.65979 25.1817 8.61927C25.0115 8.57875 24.8326 8.59652 24.6737 8.66974C24.5148 8.74295 24.3851 8.86738 24.3054 9.02308L14.9304 27.7731C14.8704 27.892 14.8419 28.0243 14.8475 28.1573C14.8531 28.2904 14.8926 28.4198 14.9622 28.5333C15.0319 28.6468 15.1294 28.7406 15.2455 28.8058C15.3617 28.871 15.4925 28.9055 15.6257 28.9059H24.2194V40.6246C24.22 40.8002 24.2796 40.9704 24.3888 41.1079C24.4979 41.2454 24.6502 41.3421 24.821 41.3825C24.8796 41.3979 24.94 41.4058 25.0007 41.4059C25.145 41.4055 25.2863 41.3651 25.409 41.2892C25.5317 41.2134 25.6311 41.105 25.696 40.9762L35.071 22.2262C35.1315 22.1065 35.1603 21.9733 35.1549 21.8393C35.1494 21.7053 35.1098 21.575 35.0397 21.4606ZM25.7819 37.3121V28.1246C25.7819 27.9174 25.6996 27.7187 25.5531 27.5722C25.4066 27.4257 25.2079 27.3434 25.0007 27.3434H16.8913L24.2194 12.6871V21.8746C24.2194 22.0818 24.3017 22.2806 24.4483 22.4271C24.5948 22.5736 24.7935 22.6559 25.0007 22.6559H33.1101L25.7819 37.3121Z" fill="#100D23"/>
<path d="M44.0712 11.3905C44.665 10.6427 44.9636 9.70297 44.9103 8.74959C44.857 7.7962 44.4556 6.89556 43.7821 6.21863L41.5712 4.00769C41.4225 3.86657 41.2254 3.7879 41.0204 3.7879C40.8154 3.7879 40.6183 3.86657 40.4696 4.00769L39.9149 4.56238L37.704 2.35144L36.6024 3.453L38.8134 5.66394L37.704 6.77331L35.493 4.56238L34.3915 5.66394L36.6024 7.87488L36.0477 8.42956C35.9022 8.57594 35.8205 8.77395 35.8205 8.98035C35.8205 9.18674 35.9022 9.38475 36.0477 9.53113L38.2587 11.7421C38.8505 12.3388 39.6211 12.7259 40.4531 12.8443C41.2852 12.9628 42.1332 12.8062 42.868 12.3983C45.4871 16.0773 46.8886 20.4839 46.8759 24.9999C46.8726 28.5895 45.9869 32.1233 44.2966 35.2901C42.6063 38.4569 40.1632 41.1595 37.1827 43.1599C34.2021 45.1603 30.7754 46.3972 27.2043 46.7617C23.6332 47.1261 20.0272 46.607 16.704 45.2499L16.1102 46.6952C19.6708 48.1498 23.5344 48.7065 27.3608 48.3163C31.1872 47.9262 34.8589 46.6011 38.0526 44.4578C41.2463 42.3145 43.864 39.4188 45.6751 36.0257C47.4862 32.6325 48.4351 28.8461 48.4384 24.9999C48.4526 20.1166 46.9241 15.3537 44.0712 11.3905ZM42.6805 10.6405C42.2378 11.0761 41.6415 11.3202 41.0204 11.3202C40.3993 11.3202 39.803 11.0761 39.3602 10.6405L37.704 8.97644L41.0243 5.66394L42.6805 7.32019C43.1195 7.76118 43.366 8.3581 43.366 8.98035C43.366 9.6026 43.1195 10.1995 42.6805 10.6405Z" fill="#100D23"/>
<path d="M25.0008 1.56228C18.7872 1.56993 12.8302 4.04169 8.43646 8.43541C4.04274 12.8291 1.57098 18.7861 1.56333 24.9998C1.54913 29.883 3.07754 34.646 5.93052 38.6092C5.33668 39.3569 5.03807 40.2967 5.09135 41.2501C5.14464 42.2035 5.54612 43.1041 6.21958 43.781L8.43052 45.992C8.50173 46.0646 8.58687 46.1221 8.68084 46.161C8.77481 46.2 8.87568 46.2195 8.97739 46.2185C9.08027 46.2196 9.18232 46.2 9.27757 46.1611C9.37281 46.1222 9.45934 46.0647 9.53208 45.992L10.0868 45.4373L12.2977 47.6482L13.3993 46.5467L11.1883 44.3357L12.2977 43.2263L14.5086 45.4373L15.6102 44.3357L13.3993 42.1248L13.954 41.5701C14.0995 41.4237 14.1811 41.2257 14.1811 41.0193C14.1811 40.8129 14.0995 40.6149 13.954 40.4685L11.743 38.2576C11.1477 37.6666 10.3776 37.2835 9.54714 37.1652C8.71667 37.047 7.87022 37.1999 7.13364 37.6013C4.51458 33.9224 3.11309 29.5158 3.12583 24.9998C3.13224 19.2001 5.43898 13.6399 9.53995 9.5389C13.6409 5.43793 19.2012 3.13119 25.0008 3.12478C27.8469 3.11884 30.6662 3.67368 33.2977 4.75759L33.8915 3.30447C31.0698 2.14969 28.0496 1.55785 25.0008 1.56228ZM7.32114 39.3592C7.76392 38.9235 8.36017 38.6794 8.9813 38.6794C9.60243 38.6794 10.1987 38.9235 10.6415 39.3592L12.2977 41.0232L8.97739 44.3357L7.32114 42.6795C6.88214 42.2385 6.63567 41.6416 6.63567 41.0193C6.63567 40.3971 6.88214 39.8001 7.32114 39.3592Z" fill="#100D23"/>
</svg>
