<svg width="45" height="45" viewBox="0 0 45 45" fill="none" xmlns="http://www.w3.org/2000/svg">
<path d="M44.7294 18.9655L23.0663 0.207941C22.7462 -0.0693137 22.254 -0.0693137 21.9339 0.207941L0.27067 18.9655C0.016717 19.1854 -0.0680827 19.5296 0.0571084 19.8325C0.182411 20.1353 0.49193 20.3347 0.836819 20.3347H5.85852V44.2115C5.85852 44.6469 6.2332 45 6.69536 45H38.3046C38.7667 45 39.1414 44.6469 39.1414 44.2115V20.3346H44.1631C44.508 20.3346 44.8176 20.1353 44.9428 19.8324C45.0681 19.5296 44.9833 19.1853 44.7294 18.9655ZM22.3326 11.5128C22.3326 11.223 22.5829 10.9871 22.8905 10.9871C23.1982 10.9871 23.4484 11.223 23.4484 11.5128C23.4484 11.8027 23.1982 12.0385 22.8905 12.0385C22.5829 12.0385 22.3326 11.8027 22.3326 11.5128ZM38.3046 18.7575C37.8424 18.7575 37.4677 19.1106 37.4677 19.5461V43.4229H30.913V35.8115L33.1895 33.6664C33.4349 33.7541 33.6997 33.8044 33.9774 33.8044C35.2079 33.8044 36.209 32.861 36.209 31.7015C36.209 30.5421 35.2079 29.5987 33.9774 29.5987C32.7469 29.5987 31.7459 30.5421 31.7459 31.7015C31.7459 32.0211 31.8241 32.323 31.9601 32.5946L29.4845 34.9274C29.3275 35.0752 29.2394 35.2758 29.2394 35.4849V43.4229H27.3537V26.7694L28.8998 25.3125C29.1778 25.4298 29.4847 25.4966 29.8084 25.4966C31.0389 25.4966 32.04 24.5533 32.04 23.3938C32.04 22.2343 31.0389 21.291 29.8084 21.291C28.5779 21.291 27.5768 22.2343 27.5768 23.3938C27.5768 23.6704 27.6353 23.9341 27.7387 24.1762L25.925 25.8853C25.768 26.0331 25.6799 26.2337 25.6799 26.4429V43.4229H23.7274V13.4609C24.5441 13.1482 25.1221 12.3935 25.1221 11.5128C25.1221 10.3533 24.121 9.41003 22.8905 9.41003C21.6601 9.41003 20.659 10.3533 20.659 11.5128C20.659 12.3934 21.2369 13.1481 22.0537 13.4609V43.4229H20.1011V22.2147C20.1011 22.0056 20.0129 21.805 19.8559 21.6572L18.1642 20.063C18.316 19.7792 18.4036 19.4598 18.4036 19.1208C18.4036 17.9613 17.4026 17.018 16.1721 17.018C14.9416 17.018 13.9405 17.9613 13.9405 19.1208C13.9405 20.2803 14.9416 21.2236 16.1721 21.2236C16.4285 21.2236 16.6738 21.1806 16.9034 21.1053L18.4274 22.5415V43.4229H16.4748V31.2792C16.4748 31.0701 16.3866 30.8695 16.2296 30.7216L13.754 28.3889C13.8899 28.1174 13.9683 27.8155 13.9683 27.4959C13.9683 26.3365 12.9672 25.3931 11.7367 25.3931C10.5062 25.3931 9.50513 26.3365 9.50513 27.4959C9.50513 28.6554 10.5062 29.5987 11.7367 29.5987C12.0144 29.5987 12.2792 29.5485 12.5247 29.4608L14.8011 31.6059V43.4229H7.53231V19.5461C7.53231 19.1106 7.15763 18.7575 6.69547 18.7575H2.98437L22.5 1.85948L42.0157 18.7576H38.3046V18.7575ZM33.4195 31.7013C33.4195 31.4115 33.6698 31.1756 33.9774 31.1756C34.2851 31.1756 34.5353 31.4115 34.5353 31.7013C34.5353 31.9912 34.2851 32.227 33.9774 32.227C33.6698 32.227 33.4195 31.9912 33.4195 31.7013ZM29.2505 23.3936C29.2505 23.1037 29.5008 22.8679 29.8084 22.8679C30.116 22.8679 30.3663 23.1037 30.3663 23.3936C30.3663 23.6834 30.116 23.9193 29.8084 23.9193C29.5008 23.9193 29.2505 23.6834 29.2505 23.3936ZM16.1721 19.6464C15.8644 19.6464 15.6142 19.4105 15.6142 19.1207C15.6142 18.8308 15.8644 18.595 16.1721 18.595C16.4797 18.595 16.73 18.8308 16.73 19.1207C16.73 19.4105 16.4797 19.6464 16.1721 19.6464ZM11.7367 28.0214C11.4291 28.0214 11.1788 27.7856 11.1788 27.4957C11.1788 27.2059 11.4291 26.97 11.7367 26.97C12.0443 26.97 12.2946 27.2059 12.2946 27.4957C12.2946 27.7856 12.0443 28.0214 11.7367 28.0214Z" fill="#100D23"/>
</svg>
