<svg width="45" height="45" viewBox="0 0 45 45" fill="none" xmlns="http://www.w3.org/2000/svg">
<path d="M22.5006 7.46655C15.6863 7.46655 10.7639 12.5451 9.98329 18.0002C9.49655 21.637 10.6721 25.1819 13.1149 27.8635C15.2639 30.1594 16.4394 33.2268 16.4394 36.3859L16.4302 41.3635C16.4302 43.3747 18.0925 45.0002 20.1496 45.0002H24.9435C27.0006 45.0002 28.6629 43.3747 28.6629 41.3635L28.6721 36.3859C28.6721 33.1349 29.7466 30.1594 31.8037 28.0563C34.0537 25.7604 35.2292 22.7941 35.2292 19.7268C35.22 12.9217 29.4435 7.46655 22.5006 7.46655ZM26.7986 41.3635C26.7986 42.3186 26.018 43.09 25.0353 43.09H20.2415C19.2588 43.09 18.4782 42.3278 18.4782 41.3635V39.1594H26.7894V41.3635H26.7986ZM30.4353 26.7155C27.9925 29.2043 26.7159 32.6482 26.7159 36.3859V37.2492H18.4047V36.3859C18.4047 32.841 16.9353 29.3053 14.4925 26.6237C12.3435 24.3278 11.4619 21.3614 11.8476 18.2941C12.5363 13.7023 16.8068 9.38594 22.5098 9.38594C28.4792 9.38594 33.2731 14.0788 33.2731 19.7268C33.2731 22.3074 32.2904 24.7961 30.4353 26.7155Z" fill="#100D23"/>
<path d="M23.4737 0H21.5176V4.59184H23.4737V0Z" fill="#100D23"/>
<path d="M34.356 8.85262L35.7243 10.221L39.0764 6.99752L37.6988 5.62915L34.356 8.85262Z" fill="#100D23"/>
<path d="M44.9987 20.6815H40.2048V22.6009H44.9987V20.6815Z" fill="#100D23"/>
<path d="M4.79388 20.6815H0V22.6009H4.79388V20.6815Z" fill="#100D23"/>
<path d="M7.26415 5.62085L5.8866 6.98922L9.23864 10.2127L10.607 8.84432L7.26415 5.62085Z" fill="#100D23"/>
</svg>
