<svg width="45" height="45" viewBox="0 0 45 45" fill="none" xmlns="http://www.w3.org/2000/svg">
<g clip-path="url(#clip0_956_21159)">
<path d="M33.6995 17.4468L32.6881 18.5523L37.2877 22.7688C38.3705 23.765 38.9877 25.1686 38.9881 26.6395V44.9996H40.4881V26.6395C40.4862 24.7477 39.6927 22.9435 38.2996 21.6631L33.6995 17.4468Z" fill="#100D23"/>
<path d="M27.7372 0H8.23718C6.16718 0.002625 4.48981 1.68 4.48718 3.75V41.25C4.48981 43.32 6.16718 44.9974 8.23718 45H26.9872V43.6582C26.9836 40.2797 27.9837 36.9754 29.8612 34.1663C30.0599 33.8685 30.02 33.4723 29.7674 33.2197L24.5174 27.9697C24.0322 27.4839 23.7749 26.8159 23.8089 26.1302C23.843 25.4441 24.1653 24.8051 24.6959 24.3698C25.718 23.5884 27.1634 23.7 28.0537 24.6283L35.4569 32.0317L36.5174 30.9713L31.4872 25.9395V3.75C31.4846 1.68 29.8072 0.002625 27.7372 0ZM29.9872 24.4395L29.1142 23.5665C27.6753 22.0965 25.3612 21.9433 23.7412 23.2114C22.8843 23.9156 22.3644 24.9495 22.3102 26.0578C22.2562 27.1659 22.6724 28.2454 23.4569 29.0303L28.2794 33.8529C26.4809 36.7511 25.5164 40.0894 25.4924 43.5H8.23718C6.99481 43.5 5.98718 42.4924 5.98718 41.25V39H24.7372V37.5H5.98718V6H29.9872V24.4395ZM29.9872 4.5H5.98718V3.75C5.98718 2.50763 6.99481 1.5 8.23718 1.5H27.7372C28.9796 1.5 29.9872 2.50763 29.9872 3.75V4.5Z" fill="#100D23"/>
<path d="M8.98694 13.4998H11.9869C12.8155 13.4998 13.4869 12.8283 13.4869 11.9998V8.99976C13.4869 8.17119 12.8155 7.49976 11.9869 7.49976H8.98694C8.15837 7.49976 7.48694 8.17119 7.48694 8.99976V11.9998C7.48694 12.8283 8.15837 13.4998 8.98694 13.4998ZM8.98694 8.99976H11.9869V11.9998H8.98694V8.99976Z" fill="#100D23"/>
<path d="M16.4874 13.4998H19.4874C20.316 13.4998 20.9874 12.8283 20.9874 11.9998V8.99976C20.9874 8.17119 20.316 7.49976 19.4874 7.49976H16.4874C15.6589 7.49976 14.9874 8.17119 14.9874 8.99976V11.9998C14.9874 12.8283 15.6589 13.4998 16.4874 13.4998ZM16.4874 8.99976H19.4874V11.9998H16.4874V8.99976Z" fill="#100D23"/>
<path d="M23.9864 13.4998H26.9864C27.815 13.4998 28.4864 12.8283 28.4864 11.9998V8.99976C28.4864 8.17119 27.815 7.49976 26.9864 7.49976H23.9864C23.1579 7.49976 22.4865 8.17119 22.4865 8.99976V11.9998C22.4865 12.8283 23.1579 13.4998 23.9864 13.4998ZM23.9864 8.99976H26.9864V11.9998H23.9864V8.99976Z" fill="#100D23"/>
<path d="M8.98694 21.0002H11.9869C12.8155 21.0002 13.4869 20.3288 13.4869 19.5002V16.5002C13.4869 15.6717 12.8155 15.0002 11.9869 15.0002H8.98694C8.15837 15.0002 7.48694 15.6717 7.48694 16.5002V19.5002C7.48694 20.3288 8.15837 21.0002 8.98694 21.0002ZM8.98694 16.5002H11.9869V19.5002H8.98694V16.5002Z" fill="#100D23"/>
<path d="M8.98694 28.5H11.9869C12.8155 28.5 13.4869 27.8286 13.4869 27V24C13.4869 23.1714 12.8155 22.5 11.9869 22.5H8.98694C8.15837 22.5 7.48694 23.1714 7.48694 24V27C7.48694 27.8286 8.15837 28.5 8.98694 28.5ZM8.98694 24H11.9869V27H8.98694V24Z" fill="#100D23"/>
<path d="M16.4874 21.0002H19.4874C20.316 21.0002 20.9874 20.3288 20.9874 19.5002V16.5002C20.9874 15.6717 20.316 15.0002 19.4874 15.0002H16.4874C15.6589 15.0002 14.9874 15.6717 14.9874 16.5002V19.5002C14.9874 20.3288 15.6589 21.0002 16.4874 21.0002ZM16.4874 16.5002H19.4874V19.5002H16.4874V16.5002Z" fill="#100D23"/>
<path d="M23.9864 21.0002H26.9864C27.815 21.0002 28.4864 20.3288 28.4864 19.5002V16.5002C28.4864 15.6717 27.815 15.0002 26.9864 15.0002H23.9864C23.1579 15.0002 22.4865 15.6717 22.4865 16.5002V19.5002C22.4865 20.3288 23.1579 21.0002 23.9864 21.0002ZM23.9864 16.5002H26.9864V19.5002H23.9864V16.5002Z" fill="#100D23"/>
<path d="M16.4874 28.5H19.4874C20.316 28.5 20.9874 27.8286 20.9874 27V24C20.9874 23.1714 20.316 22.5 19.4874 22.5H16.4874C15.6589 22.5 14.9874 23.1714 14.9874 24V27C14.9874 27.8286 15.6589 28.5 16.4874 28.5ZM16.4874 24H19.4874V27H16.4874V24Z" fill="#100D23"/>
<path d="M8.98694 35.9998H11.9869C12.8155 35.9998 13.4869 35.3283 13.4869 34.4998V31.4998C13.4869 30.6712 12.8155 29.9998 11.9869 29.9998H8.98694C8.15837 29.9998 7.48694 30.6712 7.48694 31.4998V34.4998C7.48694 35.3283 8.15837 35.9998 8.98694 35.9998ZM8.98694 31.4998H11.9869V34.4998H8.98694V31.4998Z" fill="#100D23"/>
<path d="M16.4874 35.9998H19.4874C20.316 35.9998 20.9874 35.3283 20.9874 34.4998V31.4998C20.9874 30.6712 20.316 29.9998 19.4874 29.9998H16.4874C15.6589 29.9998 14.9874 30.6712 14.9874 31.4998V34.4998C14.9874 35.3283 15.6589 35.9998 16.4874 35.9998ZM16.4874 31.4998H19.4874V34.4998H16.4874V31.4998Z" fill="#100D23"/>
<path d="M17.2378 40.5001H18.7378V42.0001H17.2378V40.5001Z" fill="#100D23"/>
</g>
<defs>
<clipPath id="clip0_956_21159">
<rect width="45" height="45" fill="white"/>
</clipPath>
</defs>
</svg>
