<svg width="45" height="45" viewBox="0 0 45 45" fill="none" xmlns="http://www.w3.org/2000/svg">
<path d="M15.0424 25.0315C17.0202 27.0092 19.7027 28.1202 22.4997 28.1202C25.2967 28.1202 27.9792 27.0092 29.9571 25.0315L28.9642 24.0359C28.1154 24.885 27.1076 25.5586 25.9984 26.0182C24.8892 26.4777 23.7003 26.7143 22.4997 26.7143C21.2991 26.7143 20.1102 26.4777 19.001 26.0182C17.8918 25.5586 16.884 24.885 16.0352 24.0359L15.0424 25.0315Z" fill="#181518"/>
<path d="M17.0325 23.0443C17.7504 23.7627 18.6028 24.3327 19.5411 24.7215C20.4793 25.1104 21.485 25.3105 22.5007 25.3105C23.5163 25.3105 24.522 25.1104 25.4603 24.7215C26.3985 24.3327 27.251 23.7627 27.9689 23.0443L26.9747 22.05C25.788 23.2364 24.1787 23.9028 22.5007 23.9028C20.8227 23.9028 19.2134 23.2364 18.0267 22.05L17.0325 23.0443Z" fill="#181518"/>
<path d="M19.0192 21.0525C19.4756 21.5107 20.018 21.8742 20.6153 22.1223C21.2125 22.3704 21.8529 22.4981 22.4996 22.4981C23.1464 22.4981 23.7867 22.3704 24.384 22.1223C24.9813 21.8742 25.5237 21.5107 25.9801 21.0525L24.9817 20.0625C24.6559 20.3888 24.269 20.6477 23.8431 20.8243C23.4172 21.0009 22.9607 21.0918 22.4996 21.0918C22.0386 21.0918 21.582 21.0009 21.1561 20.8243C20.7302 20.6477 20.3434 20.3888 20.0176 20.0625L19.0192 21.0525Z" fill="#181518"/>
<path d="M24.6094 17.5781C24.6094 17.1609 24.4857 16.7531 24.2539 16.4062C24.0221 16.0593 23.6927 15.789 23.3072 15.6293C22.9218 15.4697 22.4977 15.4279 22.0885 15.5093C21.6793 15.5907 21.3035 15.7916 21.0084 16.0866C20.7134 16.3816 20.5125 16.7574 20.4312 17.1666C20.3498 17.5758 20.3915 17.9999 20.5512 18.3853C20.7108 18.7708 20.9812 19.1002 21.3281 19.332C21.675 19.5638 22.0828 19.6875 22.5 19.6875C23.0594 19.6875 23.596 19.4653 23.9916 19.0697C24.3871 18.6741 24.6094 18.1376 24.6094 17.5781ZM21.7969 17.5781C21.7969 17.4391 21.8381 17.3031 21.9154 17.1875C21.9926 17.0719 22.1025 16.9817 22.2309 16.9285C22.3594 16.8753 22.5008 16.8614 22.6372 16.8885C22.7736 16.9156 22.8989 16.9826 22.9972 17.0809C23.0955 17.1793 23.1625 17.3046 23.1896 17.441C23.2168 17.5773 23.2028 17.7187 23.1496 17.8472C23.0964 17.9757 23.0063 18.0855 22.8906 18.1628C22.775 18.24 22.6391 18.2813 22.5 18.2813C22.3135 18.2813 22.1347 18.2072 22.0028 18.0753C21.871 17.9435 21.7969 17.7646 21.7969 17.5781Z" fill="#181518"/>
<path d="M39.8102 35.5148C39.5091 35.288 39.159 35.135 38.7879 35.0684C38.4169 35.0017 38.0354 35.0231 37.6741 35.1309L28.0237 37.9688H22.68L18.8831 35.8594H26.0156C26.2021 35.8594 26.3809 35.7853 26.5128 35.6534C26.6447 35.5216 26.7187 35.3427 26.7187 35.1562V33.0469C26.7187 32.8604 26.6446 32.6816 26.5127 32.5498L25.1065 31.1435C25.0083 31.0455 24.8833 30.9787 24.7472 30.9516L14.2003 28.8422C14.1549 28.833 14.1088 28.8283 14.0625 28.8281H9.84375C9.75441 28.828 9.66588 28.845 9.58289 28.878L7.03125 29.899V28.125C7.03125 27.9385 6.95717 27.7597 6.82531 27.6278C6.69345 27.496 6.51461 27.4219 6.32812 27.4219H2.10937C1.92289 27.4219 1.74405 27.496 1.61219 27.6278C1.48033 27.7597 1.40625 27.9385 1.40625 28.125V42.1875C1.40625 42.374 1.48033 42.5528 1.61219 42.6847C1.74405 42.8165 1.92289 42.8906 2.10937 42.8906H6.32812C6.51461 42.8906 6.69345 42.8165 6.82531 42.6847C6.95717 42.5528 7.03125 42.374 7.03125 42.1875V40.7812H9.02672L17.3559 43.5572C17.4276 43.5812 17.5026 43.5936 17.5781 43.5938H28.125C28.2047 43.5935 28.2839 43.5799 28.3591 43.5537L39.1641 39.7399C39.5777 39.5937 39.944 39.338 40.2237 39C40.5034 38.662 40.6862 38.2544 40.7524 37.8207C40.8187 37.387 40.766 36.9435 40.5999 36.5374C40.4339 36.1313 40.1607 35.7779 39.8095 35.5148H39.8102ZM5.625 41.4844H2.8125V28.8281H5.625V41.4844ZM38.6965 38.4138L28.0048 42.1875H17.692L9.36281 39.4116C9.29119 39.3875 9.21617 39.3752 9.14062 39.375H7.03125V31.4135L9.97875 30.2344H13.9922L24.262 32.2882L25.3125 33.338V34.4531H16.1719C16.0162 34.4533 15.8649 34.5051 15.7418 34.6005C15.6188 34.6958 15.5308 34.8293 15.4918 34.9801C15.4528 35.1308 15.4649 35.2902 15.5263 35.4333C15.5877 35.5764 15.6948 35.6951 15.8309 35.7708L22.159 39.2864C22.2632 39.3447 22.3806 39.3752 22.5 39.375H28.125C28.1921 39.3749 28.2589 39.3652 28.3233 39.3462L38.0714 36.4795C38.2231 36.4348 38.3831 36.426 38.5387 36.454C38.6943 36.482 38.8413 36.5459 38.9679 36.6407C39.0945 36.7354 39.1972 36.8584 39.2679 36.9999C39.3385 37.1413 39.3752 37.2973 39.375 37.4555C39.3747 37.6657 39.3093 37.8707 39.1878 38.0423C39.0663 38.2139 38.8947 38.3437 38.6965 38.4138Z" fill="#181518"/>
<path d="M32.3438 1.40625H12.6562C12.4698 1.40625 12.2909 1.48033 12.1591 1.61219C12.0272 1.74405 11.9531 1.92289 11.9531 2.10938V3.51562C11.9531 6.31283 13.0643 8.99547 15.0422 10.9734C17.0202 12.9513 19.7028 14.0625 22.5 14.0625C25.2972 14.0625 27.9798 12.9513 29.9578 10.9734C31.9357 8.99547 33.0469 6.31283 33.0469 3.51562V2.10938C33.0469 1.92289 32.9728 1.74405 32.8409 1.61219C32.7091 1.48033 32.5302 1.40625 32.3438 1.40625ZM21.7969 2.8125H23.2031V4.21875H21.7969V2.8125ZM31.6406 3.51562C31.6406 5.93987 30.6776 8.26482 28.9634 9.97902C27.2492 11.6932 24.9242 12.6562 22.5 12.6562C20.0758 12.6562 17.7508 11.6932 16.0366 9.97902C14.3224 8.26482 13.3594 5.93987 13.3594 3.51562V2.8125H20.3906V4.92188C20.3906 5.10836 20.4647 5.2872 20.5966 5.41906C20.7284 5.55092 20.9073 5.625 21.0938 5.625H23.9062C24.0927 5.625 24.2716 5.55092 24.4034 5.41906C24.5353 5.2872 24.6094 5.10836 24.6094 4.92188V2.8125H31.6406V3.51562Z" fill="#181518"/>
</svg>
