<svg width="26" height="52" viewBox="0 0 26 52" fill="none" xmlns="http://www.w3.org/2000/svg">
<path d="M7.91797 14.7334C8.11609 14.7333 8.30606 14.6597 8.4461 14.5289C9.53955 13.5105 11.0213 12.9385 12.5661 12.9385C14.1109 12.9385 15.5926 13.5105 16.686 14.5289C16.7554 14.5938 16.8377 14.6452 16.9284 14.6802C17.0191 14.7153 17.1162 14.7334 17.2144 14.7334C17.3125 14.7334 17.4097 14.7153 17.5003 14.6802C17.591 14.6452 17.6734 14.5938 17.7427 14.5289L20.581 11.8799C20.6504 11.8152 20.7055 11.7383 20.7431 11.6537C20.7807 11.5691 20.8 11.4784 20.8 11.3868C20.8 11.2952 20.7807 11.2045 20.7431 11.1199C20.7055 11.0353 20.6504 10.9584 20.581 10.8937C18.4539 8.91264 15.5717 7.80005 12.5667 7.80005C9.56174 7.80005 6.67949 8.91264 4.55241 10.8937C4.48297 10.9584 4.42789 11.0353 4.3903 11.1199C4.35272 11.2045 4.33337 11.2952 4.33337 11.3868C4.33337 11.4784 4.35272 11.5691 4.3903 11.6537C4.42789 11.7383 4.48297 11.8152 4.55241 11.8799L7.39071 14.5289C7.53054 14.6595 7.72015 14.7331 7.91797 14.7334ZM18.9757 11.4053L17.1873 13.0745C15.8806 12.085 14.249 11.5449 12.5663 11.5449C10.8835 11.5449 9.25199 12.085 7.9453 13.0745L6.15685 11.4053C7.94237 9.9785 10.2156 9.19436 12.5661 9.19443C14.9167 9.19451 17.1899 9.97879 18.9753 11.4057L18.9757 11.4053Z" fill="#100D23"/>
<path d="M25.7949 5.52176C22.3989 1.98582 17.7973 0 12.9998 0C8.20232 0 3.60075 1.98582 0.204706 5.52176C0.139811 5.5894 0.0883296 5.66971 0.0532044 5.75812C0.0180793 5.84653 0 5.94129 0 6.037C0 6.1327 0.0180793 6.22747 0.0532044 6.31588C0.0883296 6.40429 0.139811 6.4846 0.204706 6.55224L2.85729 9.31973C2.92211 9.38744 2.99908 9.44116 3.0838 9.47782C3.16852 9.51447 3.25934 9.53333 3.35106 9.53333C3.44278 9.53333 3.5336 9.51447 3.61832 9.47782C3.70305 9.44116 3.78002 9.38744 3.84483 9.31973C6.27479 6.78972 9.56731 5.36884 13 5.36884C16.4327 5.36884 19.7252 6.78972 22.1552 9.31973C22.22 9.38744 22.297 9.44116 22.3817 9.47782C22.4664 9.51447 22.5572 9.53333 22.6489 9.53333C22.7407 9.53333 22.8315 9.51447 22.9162 9.47782C23.0009 9.44116 23.0779 9.38744 23.1427 9.31973L25.7953 6.55224C25.8602 6.4846 25.9117 6.40429 25.9468 6.31588C25.9819 6.22747 26 6.1327 26 6.037C26 5.94129 25.9819 5.84653 25.9468 5.75812C25.9117 5.66971 25.8602 5.5894 25.7953 5.52176H25.7949ZM22.6368 7.78547C19.9959 5.29276 16.5618 3.91252 13.0008 3.91252C9.43978 3.91252 6.00571 5.29276 3.36483 7.78547L1.69619 6.0472C4.78069 3.09479 8.81415 1.4568 12.9998 1.4568C17.1855 1.4568 21.2189 3.09479 24.3034 6.0472L22.6368 7.78547Z" fill="#100D23"/>
<path d="M11.1172 49.4H14.8828C15.073 49.4 15.2555 49.3086 15.39 49.1461C15.5245 48.9836 15.6 48.7631 15.6 48.5333C15.6 48.3034 15.5245 48.083 15.39 47.9205C15.2555 47.7579 15.073 47.6666 14.8828 47.6666H11.1172C10.927 47.6666 10.7446 47.7579 10.6101 47.9205C10.4756 48.083 10.4 48.3034 10.4 48.5333C10.4 48.7631 10.4756 48.9836 10.6101 49.1461C10.7446 49.3086 10.927 49.4 11.1172 49.4Z" fill="#100D23"/>
<path d="M21.2234 16.0975H15.6239C15.5185 15.9467 15.4002 15.8053 15.2703 15.6747C14.9406 15.3435 14.5416 15.0885 14.1016 14.9278C13.6616 14.7672 13.1914 14.7048 12.7244 14.7452C12.2574 14.7856 11.8051 14.9277 11.3996 15.1614C10.9941 15.3951 10.6453 15.7147 10.3781 16.0975H4.77658C4.19951 16.0982 3.64626 16.3263 3.23821 16.732C2.83017 17.1376 2.60063 17.6875 2.59998 18.2611V49.8364C2.60063 50.41 2.83017 50.9599 3.23821 51.3655C3.64626 51.7711 4.19951 51.9993 4.77658 51.9999H21.2234C21.8004 51.9993 22.3537 51.7711 22.7617 51.3655C23.1698 50.9599 23.3993 50.41 23.4 49.8364V18.2611C23.3993 17.6875 23.1698 17.1376 22.7617 16.732C22.3537 16.3263 21.8004 16.0982 21.2234 16.0975ZM13 16.1828C13.231 16.1825 13.4597 16.2275 13.6732 16.3153C13.8866 16.403 14.0805 16.5318 14.2437 16.6943C14.5653 17.0265 14.7449 17.4696 14.7449 17.9306C14.7449 18.3916 14.5653 18.8347 14.2437 19.1669C13.9135 19.4942 13.4663 19.6779 13 19.6779C12.5337 19.6779 12.0864 19.4942 11.7562 19.1669C11.4349 18.8345 11.2555 18.3915 11.2555 17.9306C11.2555 17.4697 11.4349 17.0266 11.7562 16.6943C11.9194 16.5318 12.1134 16.403 12.3268 16.3153C12.5402 16.2275 12.769 16.1825 13 16.1828ZM4.05104 18.2611C4.05126 18.0699 4.12777 17.8866 4.26379 17.7514C4.3998 17.6162 4.58422 17.5401 4.77658 17.5399H9.81799C9.76197 17.9882 9.80245 18.4432 9.93674 18.8747C10.071 19.3063 10.2961 19.7045 10.597 20.0431C10.8979 20.3816 11.2677 20.6527 11.682 20.8384C12.0963 21.0241 12.5455 21.1201 13 21.1201C13.4544 21.1201 13.9037 21.0241 14.318 20.8384C14.7322 20.6527 15.1021 20.3816 15.403 20.0431C15.7039 19.7045 15.9289 19.3063 16.0632 18.8747C16.1975 18.4432 16.238 17.9882 16.182 17.5399H21.2234C21.4157 17.5401 21.6001 17.6162 21.7362 17.7514C21.8722 17.8866 21.9487 18.0699 21.9489 18.2611V43.998H4.05104V18.2611ZM21.9489 49.8364C21.9487 50.0276 21.8722 50.2109 21.7362 50.3461C21.6001 50.4813 21.4157 50.5573 21.2234 50.5576H4.77658C4.58422 50.5573 4.3998 50.4813 4.26379 50.3461C4.12777 50.2109 4.05126 50.0276 4.05104 49.8364V45.4404H21.9489V49.8364Z" fill="#100D23"/>
</svg>
