<svg width="44" height="44" viewBox="0 0 44 44" fill="none" xmlns="http://www.w3.org/2000/svg">
<path d="M44 22C44 34.1503 34.1503 44 22 44C9.84974 44 0 34.1503 0 22C0 9.84974 9.84974 0 22 0C34.1503 0 44 9.84974 44 22Z" fill="#7800FF"/>
<path d="M19.0004 24.6687H17.2967V22.9648C17.2967 22.7295 17.106 22.5388 16.8708 22.5388H15.1671C14.9319 22.5388 14.7412 22.7295 14.7412 22.9648V24.6687H13.0375C12.8023 24.6687 12.6116 24.8594 12.6116 25.0947V26.7986C12.6116 27.0338 12.8023 27.2245 13.0375 27.2245H14.7412V28.9284C14.7412 29.1637 14.9319 29.3544 15.1671 29.3544H16.8708C17.106 29.3544 17.2967 29.1637 17.2967 28.9284V27.2245H19.0004C19.2356 27.2245 19.4263 27.0338 19.4263 26.7986V25.0947C19.4263 24.8594 19.2356 24.6687 19.0004 24.6687ZM18.5744 26.3726H16.8708C16.6356 26.3726 16.4449 26.5633 16.4449 26.7986V28.5025H15.593V26.7986C15.593 26.5633 15.4023 26.3726 15.1671 26.3726H13.4634V25.5206H15.1671C15.4023 25.5206 15.593 25.3299 15.593 25.0947V23.3908H16.4449V25.0947C16.4449 25.3299 16.6356 25.5206 16.8708 25.5206H18.5744V26.3726Z" fill="white"/>
<path d="M34.7169 25.1682C34.3902 22.2328 31.6337 19.4866 28.6961 19.1735C28.4466 19.1459 28.1958 19.1317 27.9448 19.1309H23.2597V17.427H22.4079V16.575C22.4079 15.634 21.6451 14.8711 20.7042 14.8711H18.5746C18.1041 14.8711 17.7228 14.4897 17.7228 14.0192C17.7228 13.5486 18.1041 13.1672 18.5746 13.1672H25.3893C26.3302 13.1672 27.093 12.4044 27.093 11.4633C27.093 10.5223 26.3302 9.75945 25.3893 9.75945H23.2597C22.7892 9.75945 22.4079 9.37805 22.4079 8.90751V7.20361H21.556V8.90751C21.556 9.84854 22.3188 10.6114 23.2597 10.6114H25.3893C25.8598 10.6114 26.2411 10.9928 26.2411 11.4633C26.2411 11.9339 25.8598 12.3153 25.3893 12.3153H18.5746C17.6337 12.3153 16.8709 13.0782 16.8709 14.0192C16.8709 14.9602 17.6337 15.7231 18.5746 15.7231H20.7042C21.1747 15.7231 21.556 16.1045 21.556 16.575V17.427H20.7042V19.1309H16.0191C15.7678 19.1315 15.5167 19.1457 15.2669 19.1735C12.3281 19.4887 9.57328 22.2349 9.24745 25.1703C8.81956 28.9101 11.5039 32.2887 15.2432 32.7166C16.7658 32.8909 18.3028 32.5467 19.6058 31.7397C20.1667 31.3724 20.808 31.1458 21.4751 31.0791C21.8047 31.053 22.1357 31.0518 22.4654 31.0756C23.1431 31.1412 23.7946 31.3704 24.3641 31.7436C27.5657 33.7224 31.7651 32.7309 33.7437 29.5289C34.5487 28.226 34.8916 26.6898 34.7169 25.1682ZM21.556 18.2789H22.4079V19.1309H21.556V18.2789ZM32.3892 29.9225C30.4636 32.0766 27.2704 32.5389 24.813 31.0194C24.1268 30.5725 23.3418 30.3001 22.5263 30.2258C22.3465 30.2127 22.1651 30.2062 21.9819 30.2062C21.7882 30.2062 21.5986 30.2143 21.4078 30.2292C20.6047 30.3061 19.8321 30.5759 19.1556 31.0155C16.3551 32.7484 12.6802 31.8828 10.9474 29.0819C10.2421 27.9417 9.94148 26.597 10.0942 25.2649C10.3744 22.7423 12.8337 20.2921 15.3585 20.0207C15.5779 19.9962 15.7984 19.9836 16.0191 19.9828H27.9448C28.1655 19.983 28.386 19.9947 28.6054 20.0182C31.1298 20.2895 33.5886 22.7397 33.8697 25.2623C34.0705 26.9565 33.531 28.6549 32.3892 29.9225Z" fill="white"/>
<path d="M27.9445 21.6868C27.0036 21.6868 26.2408 22.4496 26.2408 23.3907C26.2408 24.3317 27.0036 25.0946 27.9445 25.0946C28.8854 25.0946 29.6482 24.3317 29.6482 23.3907C29.6482 22.4496 28.8854 21.6868 27.9445 21.6868ZM27.9445 24.2426C27.474 24.2426 27.0927 23.8612 27.0927 23.3907C27.0927 22.9201 27.474 22.5387 27.9445 22.5387C28.415 22.5387 28.7963 22.9201 28.7963 23.3907C28.7963 23.8612 28.4149 24.2426 27.9445 24.2426Z" fill="white"/>
<path d="M27.9445 26.7986C27.0036 26.7986 26.2408 27.5614 26.2408 28.5025C26.2408 29.4435 27.0036 30.2064 27.9445 30.2064C28.8854 30.2064 29.6482 29.4435 29.6482 28.5025C29.6482 27.5614 28.8854 26.7986 27.9445 26.7986ZM27.9445 29.3544C27.474 29.3544 27.0927 28.973 27.0927 28.5025C27.0927 28.0319 27.474 27.6505 27.9445 27.6505C28.415 27.6505 28.7963 28.0319 28.7963 28.5025C28.7963 28.973 28.4149 29.3544 27.9445 29.3544Z" fill="white"/>
<path d="M24.963 24.2427C24.0221 24.2427 23.2593 25.0055 23.2593 25.9466C23.2593 26.8876 24.0221 27.6505 24.963 27.6505C25.9039 27.6505 26.6667 26.8876 26.6667 25.9466C26.6667 25.0055 25.9039 24.2427 24.963 24.2427ZM24.963 26.7985C24.4925 26.7985 24.1112 26.4171 24.1112 25.9466C24.1112 25.476 24.4925 25.0946 24.963 25.0946C25.4335 25.0946 25.8148 25.476 25.8148 25.9466C25.8148 26.4171 25.4334 26.7985 24.963 26.7985Z" fill="white"/>
<path d="M30.926 24.2427C29.9851 24.2427 29.2223 25.0055 29.2223 25.9466C29.2223 26.8876 29.9851 27.6505 30.926 27.6505C31.8669 27.6505 32.6296 26.8876 32.6296 25.9466C32.6296 25.0055 31.8669 24.2427 30.926 24.2427ZM30.926 26.7985C30.4555 26.7985 30.0741 26.4171 30.0741 25.9466C30.0741 25.476 30.4555 25.0946 30.926 25.0946C31.3964 25.0946 31.7778 25.476 31.7778 25.9466C31.7778 26.4171 31.3964 26.7985 30.926 26.7985Z" fill="white"/>
</svg>
