<svg width="44" height="44" viewBox="0 0 44 44" fill="none" xmlns="http://www.w3.org/2000/svg">
<path d="M44 22C44 34.1503 34.1503 44 22 44C9.84974 44 0 34.1503 0 22C0 9.84974 9.84974 0 22 0C34.1503 0 44 9.84974 44 22Z" fill="#FFBF08"/>
<g clip-path="url(#clip0_956_26798)">
<path d="M18.4048 36.0153C18.2638 36.0157 18.1234 35.9978 17.987 35.9623C17.2303 35.7626 16.7651 35.0658 16.3152 34.3918C16.0719 33.9527 15.7399 33.5675 15.3398 33.2601C14.8627 33.0661 14.3501 32.9715 13.8342 32.9823C13.0257 32.9335 12.191 32.8813 11.6478 32.3462C11.1046 31.8111 11.0529 30.9854 11.0031 30.1876C11.0135 29.6788 10.9176 29.1733 10.7214 28.7026C10.4101 28.3073 10.0198 27.9794 9.5747 27.7392C8.89202 27.295 8.18622 26.8358 7.9844 26.0886C7.78845 25.3721 8.15879 24.642 8.51502 23.9355C8.78896 23.489 8.96554 22.991 9.03349 22.4733C8.96526 21.9562 8.78869 21.4588 8.51502 21.0127C8.15879 20.3066 7.79041 19.5761 7.9844 18.8596C8.18622 18.1124 8.89241 17.6532 9.5747 17.209C10.0197 16.969 10.41 16.6412 10.7214 16.246C10.9177 15.7748 11.0135 15.2688 11.0028 14.7594C11.0529 13.962 11.1043 13.1375 11.6474 12.6009C12.1906 12.0642 13.0257 12.0135 13.8338 11.9644C14.3492 11.9747 14.8612 11.88 15.3379 11.6862C15.7385 11.3795 16.0711 10.995 16.3152 10.5564C16.7651 9.8824 17.2303 9.18557 17.987 8.98592C18.7105 8.79595 19.4523 9.1581 20.1683 9.5098C20.6201 9.77933 21.1238 9.953 21.6473 10.0198C22.171 9.95241 22.6747 9.77807 23.1263 9.50787C23.8423 9.15617 24.5842 8.79402 25.3076 8.98399C26.0643 9.18364 26.5295 9.88047 26.9794 10.5545C27.2233 10.9938 27.556 11.379 27.9568 11.6862C28.4339 11.8802 28.9465 11.9748 29.4624 11.964C30.2701 12.0131 31.1056 12.0642 31.6488 12.6005C32.192 13.1367 32.2417 13.9612 32.2915 14.7591C32.2811 15.2679 32.377 15.7734 32.5733 16.244C32.8846 16.6394 33.2749 16.9673 33.7199 17.2074C34.4026 17.6516 35.1084 18.1109 35.3102 18.858C35.5042 19.5746 35.1358 20.3047 34.7796 21.0112C34.5057 21.4577 34.3291 21.9557 34.2611 22.4733C34.3294 22.9905 34.5059 23.4879 34.7796 23.9339C35.1358 24.6404 35.5042 25.3705 35.3102 26.0871C35.1084 26.8342 34.4022 27.2935 33.7199 27.7377C33.2747 27.9783 32.8844 28.3067 32.5733 28.7026C32.3769 29.1738 32.2812 29.6798 32.2919 30.1892C32.2417 30.9866 32.1904 31.8111 31.6472 32.3477C31.1041 32.8844 30.2689 32.9331 29.4609 32.9823C28.9449 32.9718 28.4324 33.0665 27.9552 33.2605C27.555 33.5679 27.2229 33.953 26.9794 34.3922C26.5295 35.0662 26.0643 35.763 25.3076 35.9627C24.5842 36.153 23.8423 35.7905 23.1263 35.4388C22.6747 35.1686 22.171 34.9943 21.6473 34.9269C21.1237 34.9943 20.62 35.1686 20.1683 35.4388C19.6314 35.7584 19.0288 35.9554 18.4048 36.0153ZM18.4048 9.7052C18.3317 9.70457 18.2589 9.71341 18.1881 9.73151C17.7178 9.85532 17.3377 10.428 16.9677 10.9801C16.6655 11.5247 16.2427 11.9949 15.7309 12.3559C15.1511 12.6184 14.5189 12.7485 13.8812 12.7367C13.1883 12.7788 12.5343 12.8187 12.2004 13.148C11.8665 13.4772 11.8265 14.1234 11.7838 14.8074C11.7959 15.437 11.6642 16.0612 11.3986 16.6337C11.0337 17.1385 10.5585 17.5558 10.0081 17.8547C9.44772 18.2196 8.8689 18.5965 8.7431 19.0592C8.62554 19.4929 8.91397 20.0652 9.21847 20.6676C9.55334 21.2173 9.75805 21.8346 9.81728 22.4733C9.75745 23.1123 9.55207 23.7296 9.21651 24.2791C8.91083 24.8834 8.62436 25.4526 8.74114 25.8875C8.86694 26.3518 9.44655 26.7271 10.0062 27.0919C10.5577 27.3906 11.034 27.8081 11.3997 28.3134C11.6655 28.8858 11.7974 29.51 11.7854 30.1396C11.8281 30.8237 11.8684 31.4695 12.2019 31.7991C12.5354 32.1288 13.1899 32.1682 13.8828 32.2104C14.5205 32.1982 15.1527 32.3282 15.7325 32.5907C16.2442 32.9518 16.6669 33.4221 16.9693 33.9666C17.3389 34.5195 17.7206 35.0913 18.1893 35.2152C18.6286 35.3312 19.2082 35.0472 19.8188 34.7462C20.3752 34.4149 21.0003 34.2121 21.6473 34.1531C22.2943 34.2121 22.9195 34.4149 23.4759 34.7462C24.088 35.0472 24.6668 35.3312 25.1054 35.2152C25.5756 35.0913 25.9558 34.5187 26.3257 33.9666C26.628 33.422 27.0508 32.9517 27.5625 32.5907C28.1423 32.3283 28.7746 32.1982 29.4123 32.21C30.1051 32.1678 30.7592 32.128 31.0931 31.7987C31.427 31.4695 31.467 30.8233 31.5097 30.1392C31.4975 29.5097 31.6292 28.8855 31.8949 28.313C32.2606 27.8078 32.737 27.3905 33.2885 27.0919C33.8489 26.7271 34.4277 26.3502 34.5535 25.8875C34.6711 25.4537 34.3826 24.8815 34.0781 24.2791C33.7426 23.7296 33.5372 23.1123 33.4774 22.4733C33.5372 21.8344 33.7426 21.2171 34.0781 20.6676C34.3826 20.0633 34.6703 19.4929 34.5535 19.0592C34.4277 18.5949 33.8481 18.2196 33.2885 17.8547C32.7369 17.556 32.2606 17.1386 31.8949 16.6333C31.6291 16.0608 31.4973 15.4366 31.5093 14.807C31.4666 14.123 31.4262 13.4772 31.0927 13.1476C30.7592 12.8179 30.1047 12.7784 29.4119 12.7363C28.7742 12.7484 28.1419 12.6184 27.5621 12.3559C27.0507 11.9954 26.628 11.5258 26.3253 10.982C25.9558 10.4291 25.5741 9.85725 25.1054 9.73344C24.6665 9.61737 24.0884 9.90136 23.4759 10.2024C22.9193 10.533 22.2942 10.7351 21.6473 10.7936C21.0003 10.7346 20.3752 10.5318 19.8188 10.2004C19.3874 9.941 18.9064 9.77238 18.406 9.7052H18.4048Z" fill="white"/>
<path d="M24.771 27.9025C24.3938 27.9027 24.0226 27.8098 23.691 27.6322C23.3595 27.4546 23.0783 27.1979 22.8729 26.8856C22.6675 26.5733 22.5446 26.2152 22.5152 25.8439C22.4858 25.4727 22.5509 25.1001 22.7047 24.76C22.8584 24.42 23.0958 24.1233 23.3954 23.897C23.6949 23.6707 24.047 23.522 24.4197 23.4644C24.7923 23.4068 25.1736 23.4421 25.5289 23.5671C25.8841 23.6922 26.2021 23.903 26.4537 24.1804C26.7455 24.5012 26.9369 24.8987 27.0048 25.3246C27.0726 25.7506 27.0139 26.1869 26.8359 26.5806C26.6579 26.9744 26.3681 27.3088 26.0017 27.5434C25.6352 27.778 25.2077 27.9027 24.771 27.9025ZM24.771 24.2125C24.4327 24.2128 24.1049 24.3277 23.8421 24.538C23.5794 24.7484 23.3978 25.0413 23.3275 25.368C23.2573 25.6946 23.3028 26.0352 23.4563 26.3327C23.6098 26.6303 23.8622 26.8668 24.1711 27.0027C24.48 27.1387 24.8268 27.1658 25.1536 27.0796C25.4804 26.9934 25.7673 26.7991 25.9664 26.5292C26.1655 26.2593 26.2647 25.93 26.2475 25.5965C26.2303 25.263 26.0977 24.9455 25.8718 24.6969C25.7332 24.5438 25.5633 24.4214 25.3732 24.3379C25.1832 24.2544 24.9774 24.2117 24.7694 24.2125H24.771Z" fill="white"/>
<path d="M18.5239 21.5087C18.1467 21.5089 17.7755 21.416 17.444 21.2384C17.1125 21.0608 16.8312 20.8041 16.6258 20.4918C16.4205 20.1795 16.2975 19.8214 16.2681 19.4501C16.2387 19.0789 16.3039 18.7063 16.4576 18.3662C16.6113 18.0262 16.8488 17.7295 17.1483 17.5032C17.4479 17.2769 17.8 17.1282 18.1726 17.0706C18.5452 17.013 18.9265 17.0483 19.2818 17.1734C19.6371 17.2984 19.955 17.5092 20.2067 17.7866C20.4985 18.1074 20.6899 18.5049 20.7577 18.9308C20.8255 19.3568 20.7669 19.7931 20.5889 20.1868C20.4108 20.5806 20.1211 20.915 19.7546 21.1496C19.3881 21.3842 18.9607 21.5089 18.5239 21.5087ZM18.5239 17.8187C18.1857 17.8191 17.8579 17.9341 17.5952 18.1445C17.3326 18.3548 17.151 18.6478 17.0808 18.9745C17.0107 19.3011 17.0562 19.6416 17.2097 19.9391C17.3633 20.2366 17.6157 20.4731 17.9246 20.609C18.2335 20.7449 18.5803 20.772 18.9071 20.6858C19.2338 20.5996 19.5207 20.4053 19.7198 20.1353C19.9189 19.8654 20.0181 19.5362 20.0008 19.2027C19.9836 18.8692 19.851 18.5516 19.6251 18.3031C19.4862 18.1502 19.3162 18.028 19.1262 17.9445C18.9361 17.8611 18.7303 17.8182 18.5223 17.8187H18.5239Z" fill="white"/>
<path d="M16.4239 27.8842C16.346 27.8843 16.2697 27.8615 16.2049 27.8186C16.1401 27.7757 16.0898 27.7147 16.0603 27.6434C16.0309 27.5721 16.0236 27.4937 16.0395 27.4183C16.0555 27.343 16.0938 27.274 16.1496 27.2202L26.5959 17.1728C26.6704 17.101 26.7707 17.0613 26.8748 17.0625C26.9789 17.0637 27.0783 17.1057 27.151 17.1792C27.2238 17.2528 27.264 17.3518 27.2628 17.4546C27.2615 17.5574 27.219 17.6555 27.1446 17.7273L16.6975 27.7743C16.6243 27.8447 16.5262 27.8841 16.4239 27.8842Z" fill="white"/>
</g>
<defs>
<clipPath id="clip0_956_26798">
<rect width="29" height="32" fill="white" transform="translate(8 9)"/>
</clipPath>
</defs>
</svg>
