<svg width="44" height="44" viewBox="0 0 44 44" fill="none" xmlns="http://www.w3.org/2000/svg">
<path d="M44 22C44 34.1503 34.1503 44 22 44C9.84974 44 0 34.1503 0 22C0 9.84974 9.84974 0 22 0C34.1503 0 44 9.84974 44 22Z" fill="white"/>
<path d="M16.5104 26.335C16.3764 26.2011 16.2174 26.0948 16.0424 26.0223C15.8673 25.9498 15.6797 25.9125 15.4903 25.9125C15.3008 25.9125 15.1132 25.9498 14.9382 26.0223C14.7632 26.0948 14.6041 26.2011 14.4702 26.335L13.7903 27.0149C13.7456 27.0596 13.6926 27.0951 13.6342 27.1193C13.5759 27.1435 13.5133 27.156 13.4501 27.156C13.3869 27.156 13.3243 27.1435 13.266 27.1193C13.2076 27.0951 13.1546 27.0596 13.1099 27.0149L12.43 26.335C12.3853 26.2904 12.3498 26.2374 12.3256 26.179C12.3014 26.1206 12.289 26.058 12.289 25.9949C12.289 25.9317 12.3014 25.8691 12.3256 25.8107C12.3498 25.7523 12.3853 25.6993 12.43 25.6547L13.7898 24.2949C13.8774 24.2042 13.9259 24.0827 13.9248 23.9566C13.9237 23.8306 13.8731 23.71 13.7839 23.6208C13.6948 23.5317 13.5742 23.4811 13.4481 23.48C13.3221 23.4789 13.2006 23.5274 13.1099 23.615L11.7501 24.9752C11.6161 25.1092 11.5099 25.2682 11.4373 25.4433C11.3648 25.6183 11.3275 25.8059 11.3275 25.9953C11.3275 26.1848 11.3648 26.3724 11.4373 26.5474C11.5099 26.7224 11.6161 26.8815 11.7501 27.0154L12.43 27.6953C12.564 27.8293 12.723 27.9356 12.898 28.0081C13.073 28.0806 13.2606 28.1179 13.4501 28.1179C13.6395 28.1179 13.8271 28.0806 14.0022 28.0081C14.1772 27.9356 14.3362 27.8293 14.4702 27.6953L15.1501 27.0154C15.1947 26.9707 15.2478 26.9353 15.3061 26.9111C15.3645 26.8869 15.4271 26.8744 15.4903 26.8744C15.5535 26.8744 15.616 26.8869 15.6744 26.9111C15.7328 26.9353 15.7858 26.9707 15.8305 27.0154L16.5104 27.6948C16.5551 27.7395 16.5905 27.7925 16.6147 27.8509C16.6389 27.9093 16.6514 27.9718 16.6514 28.035C16.6514 28.0982 16.6389 28.1608 16.6147 28.2192C16.5905 28.2775 16.5551 28.3306 16.5104 28.3752L15.1506 29.7355C15.1046 29.7799 15.068 29.8329 15.0428 29.8916C15.0176 29.9503 15.0043 30.0133 15.0038 30.0772C15.0032 30.141 15.0154 30.2044 15.0396 30.2634C15.0638 30.3225 15.0995 30.3762 15.1446 30.4214C15.1898 30.4665 15.2434 30.5022 15.3025 30.5264C15.3616 30.5506 15.4249 30.5627 15.4888 30.5622C15.5526 30.5616 15.6157 30.5484 15.6744 30.5232C15.7331 30.498 15.7861 30.4613 15.8305 30.4154L17.1908 29.0556C17.3247 28.9217 17.431 28.7626 17.5035 28.5876C17.576 28.4126 17.6133 28.225 17.6133 28.0355C17.6133 27.8461 17.576 27.6585 17.5035 27.4834C17.431 27.3084 17.3247 27.1494 17.1908 27.0154L16.5104 26.335Z" fill="#FFBF08"/>
<path d="M21.9991 23.4017L16.8989 20.3417C16.807 20.2866 16.6993 20.2637 16.593 20.2768C16.4866 20.2898 16.3877 20.3381 16.3118 20.4138L15.6315 21.0942C15.5557 21.17 15.5075 21.269 15.4944 21.3753C15.4814 21.4817 15.5042 21.5894 15.5593 21.6813L18.6194 26.7815C18.6519 26.8357 18.6947 26.8829 18.7455 26.9205C18.7963 26.958 18.8539 26.9852 18.9152 27.0005C18.9765 27.0158 19.0402 27.0189 19.1027 27.0096C19.1651 27.0003 19.2252 26.9787 19.2793 26.9462C19.3335 26.9137 19.3807 26.8708 19.4182 26.8201C19.4558 26.7693 19.483 26.7116 19.4983 26.6503C19.5136 26.5891 19.5167 26.5254 19.5074 26.4629C19.498 26.4004 19.4765 26.3404 19.444 26.2863L18.617 24.9082L20.1258 23.3993L21.5039 24.2264C21.558 24.2589 21.6181 24.2804 21.6805 24.2897C21.743 24.2991 21.8067 24.296 21.868 24.2807C21.9293 24.2654 21.9869 24.2382 22.0377 24.2006C22.0884 24.163 22.1313 24.1158 22.1638 24.0617C22.1964 24.0075 22.2179 23.9475 22.2272 23.885C22.2365 23.8226 22.2335 23.7589 22.2182 23.6976C22.2029 23.6363 22.1757 23.5786 22.1381 23.5279C22.1005 23.4771 22.0533 23.4342 21.9991 23.4017ZM18.1068 24.0585L16.5768 21.5101L16.7258 21.361L19.2743 22.8911L18.1068 24.0585Z" fill="#FFBF08"/>
<path d="M24.9522 19.9331L23.2519 21.6333L19.512 17.8934C19.4676 17.8475 19.4146 17.8108 19.3559 17.7856C19.2973 17.7604 19.2342 17.7472 19.1703 17.7466C19.1065 17.746 19.0432 17.7582 18.9841 17.7824C18.925 17.8066 18.8713 17.8423 18.8261 17.8874C18.781 17.9326 18.7453 17.9862 18.7211 18.0453C18.6969 18.1044 18.6848 18.1678 18.6853 18.2316C18.6859 18.2954 18.6991 18.3585 18.7243 18.4172C18.7495 18.4759 18.7862 18.5289 18.8321 18.5733L22.912 22.6532C23.0022 22.7433 23.1244 22.7939 23.2519 22.7939C23.3794 22.7939 23.5017 22.7433 23.5919 22.6532L25.6321 20.613C25.7197 20.5223 25.7681 20.4008 25.767 20.2748C25.7659 20.1487 25.7154 20.0281 25.6262 19.9389C25.5371 19.8498 25.4165 19.7992 25.2904 19.7981C25.1643 19.797 25.0428 19.8455 24.9522 19.9331Z" fill="#FFBF08"/>
<path d="M28.1534 16.7323L26.7932 18.0926L25.4334 16.7323L26.1133 16.0524C26.2009 15.9617 26.2493 15.8402 26.2482 15.7142C26.2471 15.5881 26.1966 15.4675 26.1074 15.3784C26.0183 15.2892 25.8977 15.2386 25.7716 15.2375C25.6455 15.2364 25.524 15.2849 25.4334 15.3725L24.7535 16.0524L23.3932 14.6926L24.7535 13.3323C24.7994 13.288 24.836 13.2349 24.8612 13.1762C24.8864 13.1176 24.8997 13.0545 24.9002 12.9906C24.9008 12.9268 24.8886 12.8635 24.8644 12.8044C24.8403 12.7453 24.8046 12.6916 24.7594 12.6464C24.7143 12.6013 24.6606 12.5656 24.6015 12.5414C24.5424 12.5172 24.4791 12.5051 24.4152 12.5056C24.3514 12.5062 24.2883 12.5195 24.2296 12.5447C24.171 12.5699 24.1179 12.6065 24.0736 12.6524L22.3733 14.3526C22.2832 14.4428 22.2325 14.5651 22.2325 14.6926C22.2325 14.8201 22.2832 14.9424 22.3733 15.0325L26.4532 19.1124C26.5434 19.2026 26.6657 19.2532 26.7932 19.2532C26.9207 19.2532 27.0429 19.2026 27.1331 19.1124L28.8334 17.4122C28.8793 17.3678 28.9159 17.3148 28.9411 17.2561C28.9663 17.1975 28.9796 17.1344 28.9801 17.0705C28.9807 17.0067 28.9685 16.9434 28.9443 16.8843C28.9202 16.8252 28.8845 16.7715 28.8393 16.7263C28.7942 16.6812 28.7405 16.6455 28.6814 16.6213C28.6223 16.5971 28.559 16.585 28.4951 16.5855C28.4313 16.5861 28.3682 16.5993 28.3095 16.6245C28.2509 16.6497 28.1978 16.6864 28.1534 16.7323Z" fill="#FFBF08"/>
<path d="M33.417 13.7861L33.9517 10.3097C34.0085 9.93762 33.9771 9.55742 33.8601 9.19968C33.7432 8.84194 33.5438 8.51666 33.2782 8.25003C33.0125 7.9834 32.688 7.78287 32.3307 7.66457C31.9734 7.54627 31.5933 7.51351 31.221 7.56893L23.8161 8.67485C22.8997 8.81348 22.0513 9.24102 21.3947 9.89521L6.9898 24.2948C6.53893 24.7457 6.28564 25.3572 6.28564 25.9948C6.28564 26.6324 6.53893 27.2439 6.9898 27.6948L13.7907 34.4957C14.2416 34.9466 14.8531 35.1999 15.4907 35.1999C16.1283 35.1999 16.7398 34.9466 17.1907 34.4957L25.0764 26.61C25.9011 30.6409 27.7561 33.1975 29.9256 33.1975C32.8914 33.1975 35.2148 28.341 35.2148 22.1382C35.2148 18.8936 34.5585 15.8677 33.417 13.7861ZM16.5103 33.8148C16.2356 34.0774 15.8702 34.2238 15.4902 34.2238C15.1103 34.2238 14.7449 34.0774 14.4702 33.8148L7.67066 27.0149C7.53668 26.8809 7.43041 26.7219 7.3579 26.5469C7.28539 26.3718 7.24807 26.1842 7.24807 25.9948C7.24807 25.8053 7.28539 25.6177 7.3579 25.4427C7.43041 25.2677 7.53668 25.1086 7.67066 24.9747L22.0731 10.5722C22.5841 10.0637 23.2438 9.73141 23.9566 9.62354L31.3614 8.51762C31.4335 8.50672 31.5063 8.50125 31.5792 8.50127C31.7873 8.50151 31.9928 8.54674 32.1817 8.63386C32.3706 8.72099 32.5385 8.84794 32.6737 9.00602C32.809 9.16411 32.9084 9.34957 32.9652 9.5497C33.0221 9.74982 33.035 9.95987 33.003 10.1654L32.6303 12.5898C32.3587 12.2522 32.044 11.9517 31.6942 11.6959C31.6909 11.1927 31.489 10.7111 31.1325 10.3559C30.7659 10.0065 30.2789 9.81159 29.7725 9.81159C29.2661 9.81159 28.7791 10.0065 28.4125 10.3559C28.2162 10.5475 28.0632 10.7788 27.9638 11.0344C27.8643 11.29 27.8207 11.564 27.8358 11.8378C27.8509 12.1117 27.9244 12.3791 28.0513 12.6222C28.1783 12.8654 28.3558 13.0785 28.5719 13.2474C28.788 13.4163 29.0377 13.537 29.3043 13.6014C29.5709 13.6659 29.8482 13.6725 30.1176 13.621C30.3869 13.5695 30.6422 13.4609 30.8662 13.3027C31.0902 13.1444 31.2777 12.94 31.4162 12.7033C31.8122 13.0718 32.1502 13.4979 32.4188 13.9674L31.8697 17.5371C31.7621 18.2452 31.43 18.9 30.9224 19.4052L16.5103 33.8148ZM29.9256 12.0407C30.1601 12.0423 30.3921 12.089 30.6089 12.1782C30.5664 12.2575 30.5132 12.3304 30.4507 12.3951C30.3105 12.5389 30.1293 12.6358 29.9318 12.6726C29.7344 12.7094 29.5304 12.6843 29.3478 12.6007C29.1652 12.5171 29.0129 12.3791 28.9117 12.2056C28.8106 12.0321 28.7655 11.8316 28.7827 11.6315C28.7999 11.4314 28.8785 11.2416 29.0078 11.0879C29.137 10.9342 29.3106 10.8242 29.5048 10.773C29.699 10.7217 29.9043 10.7318 30.0926 10.8017C30.2808 10.8717 30.4429 10.9981 30.5565 11.1637C30.3503 11.1107 30.1385 11.0823 29.9256 11.079C29.7981 11.079 29.6758 11.1297 29.5856 11.2199C29.4955 11.31 29.4448 11.4323 29.4448 11.5599C29.4448 11.6874 29.4955 11.8097 29.5856 11.8999C29.6758 11.99 29.7981 12.0407 29.9256 12.0407ZM29.9256 32.2358C28.1879 32.2358 26.5516 29.5912 25.9035 25.782L31.5999 20.0851C32.2531 19.435 32.6799 18.5921 32.8174 17.6809L33.154 15.5061C33.9142 17.6332 34.2865 19.8796 34.2532 22.1382C34.2532 27.6116 32.2712 32.2358 29.9256 32.2358Z" fill="#FFBF08"/>
</svg>
