<svg width="44" height="44" viewBox="0 0 44 44" fill="none" xmlns="http://www.w3.org/2000/svg">
<path d="M44 22C44 34.1503 34.1503 44 22 44C9.84974 44 0 34.1503 0 22C0 9.84974 9.84974 0 22 0C34.1503 0 44 9.84974 44 22Z" fill="white"/>
<g clip-path="url(#clip0_956_26874)">
<path d="M22.3551 28.8605C22.2218 28.8605 22.0885 28.8094 21.9864 28.7084L15.2916 22.0136C15.0957 21.8178 15.0874 21.5042 15.2707 21.298L20.2885 15.6771C23.7957 11.574 29.5072 8.9188 34.4874 9.00317C34.7655 9.00942 34.9895 9.23338 34.9957 9.51151C35.1114 14.4948 32.426 20.2032 28.3124 23.7178L22.701 28.7282C22.603 28.8167 22.478 28.8605 22.3551 28.8605ZM16.376 21.6251L22.3749 27.624L27.628 22.9344C31.3843 19.724 33.8791 14.6073 33.9562 10.0438C29.3926 10.1198 24.277 12.6146 21.0728 16.3626L16.376 21.6251Z" fill="#2EC5C5"/>
<path d="M24.3498 32.6729C24.2998 32.6729 24.2487 32.6656 24.2008 32.65C24.0133 32.5875 23.8591 32.4437 23.8321 32.2479L23.1175 27.2615C23.0768 26.9771 23.2748 26.7135 23.5591 26.6719C23.8435 26.6271 24.1071 26.8281 24.1487 27.1135L24.707 31.0094C26.532 28.8271 27.5466 26.0604 27.5466 23.2396C27.5466 22.9521 27.78 22.7188 28.0675 22.7188C28.355 22.7188 28.5883 22.9521 28.5883 23.2396C28.5883 26.6906 27.1904 30.0687 24.7529 32.5052C24.6487 32.6094 24.4966 32.6729 24.3498 32.6729Z" fill="#2EC5C5"/>
<path d="M16.8137 20.8877C16.7898 20.8877 16.7648 20.8866 16.7398 20.8825L11.7533 20.1679C11.5575 20.1397 11.3939 20.0033 11.3325 19.8147C11.271 19.6272 11.321 19.42 11.4616 19.2814C13.9335 16.8095 17.3106 15.4116 20.7616 15.4116C21.0491 15.4116 21.2825 15.645 21.2825 15.9325C21.2825 16.22 21.0491 16.4533 20.7616 16.4533C17.9273 16.4533 15.146 17.4772 12.9866 19.2918L16.8877 19.8512C17.1721 19.8929 17.37 20.1554 17.3294 20.4408C17.2908 20.7002 17.0679 20.8877 16.8137 20.8877Z" fill="#2EC5C5"/>
<path d="M27.8463 18.7563C27.1786 18.7563 26.512 18.5021 26.0047 17.9949C24.9901 16.9792 24.9901 15.3271 26.0047 14.3115C27.0203 13.2959 28.6724 13.2959 29.688 14.3115C30.7026 15.3271 30.7026 16.9792 29.688 17.9949C29.1797 18.5032 28.513 18.7563 27.8463 18.7563ZM27.8463 14.5917C27.4463 14.5917 27.0453 14.7438 26.7411 15.048C26.1328 15.6574 26.1328 16.649 26.7411 17.2584C27.3505 17.8667 28.3422 17.8657 28.9516 17.2584C29.5599 16.649 29.5599 15.6574 28.9516 15.048C28.6463 14.7449 28.2463 14.5917 27.8463 14.5917ZM29.3193 17.6271H29.3297H29.3193Z" fill="#2EC5C5"/>
<path d="M10.5201 33.9998C10.3837 33.9998 10.2514 33.9467 10.1514 33.8477C10.016 33.7123 9.96598 33.5134 10.0212 33.33C10.192 32.7602 11.7222 27.7248 12.8368 26.6103C14.092 25.355 16.1347 25.354 17.3899 26.6103C18.6451 27.8655 18.6451 29.9082 17.3899 31.1634C16.2754 32.2779 11.2399 33.8081 10.6701 33.979C10.6201 33.9925 10.5701 33.9998 10.5201 33.9998ZM15.1139 26.7092C14.5556 26.7092 13.9983 26.9217 13.5733 27.3457C12.9722 27.9477 11.9722 30.6363 11.3118 32.6873C13.3618 32.0269 16.0514 31.0269 16.6524 30.4259C17.5014 29.5769 17.5014 28.1946 16.6524 27.3457C16.2285 26.9217 15.6712 26.7092 15.1139 26.7092Z" fill="#2EC5C5"/>
</g>
<defs>
<clipPath id="clip0_956_26874">
<rect width="25" height="25" fill="white" transform="translate(10 9)"/>
</clipPath>
</defs>
</svg>
