<svg width="44" height="44" viewBox="0 0 44 44" fill="none" xmlns="http://www.w3.org/2000/svg">
<path d="M44 22C44 34.1503 34.1503 44 22 44C9.84974 44 0 34.1503 0 22C0 9.84974 9.84974 0 22 0C34.1503 0 44 9.84974 44 22Z" fill="#F65498"/>
<g clip-path="url(#clip0_956_26840)">
<path d="M36.375 19.5C36.03 19.5 35.75 19.22 35.75 18.875C35.75 13.0163 30.9837 8.25 25.125 8.25C24.78 8.25 24.5 7.97 24.5 7.625C24.5 7.28 24.78 7 25.125 7C31.6725 7 37 12.3275 37 18.875C37 19.22 36.72 19.5 36.375 19.5Z" fill="white"/>
<path d="M32.625 19.5C32.28 19.5 32 19.22 32 18.875C32 15.0838 28.9163 12 25.125 12C24.78 12 24.5 11.72 24.5 11.375C24.5 11.03 24.78 10.75 25.125 10.75C29.605 10.75 33.25 14.395 33.25 18.875C33.25 19.22 32.97 19.5 32.625 19.5Z" fill="white"/>
<path d="M28.875 19.5C28.53 19.5 28.25 19.22 28.25 18.875C28.25 17.1525 26.8475 15.75 25.125 15.75C24.78 15.75 24.5 15.47 24.5 15.125C24.5 14.78 24.78 14.5 25.125 14.5C27.5375 14.5 29.5 16.4625 29.5 18.875C29.5 19.22 29.22 19.5 28.875 19.5Z" fill="white"/>
<path d="M23.875 36.9999H12.625C11.5912 36.9999 10.75 36.1587 10.75 35.1249V29.4999H8.25C7.56125 29.4999 7 28.9387 7 28.2499C7 27.9187 7.135 27.5937 7.37 27.3587L17.8125 17.1774C18.055 16.9412 18.4425 16.9412 18.685 17.1774L20.75 19.1912V18.8749C20.75 18.5299 21.03 18.2499 21.375 18.2499H25.125C25.47 18.2499 25.75 18.5299 25.75 18.8749V24.0612L29.1237 27.3524C29.365 27.5937 29.5 27.9187 29.5 28.2499C29.5 28.9387 28.9387 29.4999 28.25 29.4999H25.75V35.1249C25.75 36.1587 24.9088 36.9999 23.875 36.9999ZM18.25 18.4974L8.24875 28.2474L11.375 28.2499C11.72 28.2499 12 28.5299 12 28.8749V35.1249C12 35.4699 12.28 35.7499 12.625 35.7499H23.875C24.22 35.7499 24.5 35.4699 24.5 35.1249V28.8749C24.5 28.5299 24.78 28.2499 25.125 28.2499H28.25L24.6887 24.7724C24.5675 24.6549 24.5 24.4937 24.5 24.3249V19.4999H22V20.6749C22 20.9262 21.8488 21.1537 21.6175 21.2512C21.385 21.3487 21.1187 21.2974 20.9388 21.1224L18.25 18.4974Z" fill="white"/>
</g>
<defs>
<clipPath id="clip0_956_26840">
<rect width="30" height="30" fill="white" transform="translate(7 7)"/>
</clipPath>
</defs>
</svg>
