<svg width="44" height="44" viewBox="0 0 44 44" fill="none" xmlns="http://www.w3.org/2000/svg">
<path d="M44 22C44 34.1503 34.1503 44 22 44C9.84974 44 0 34.1503 0 22C0 9.84974 9.84974 0 22 0C34.1503 0 44 9.84974 44 22Z" fill="#7800FF"/>
<path d="M28.9839 24.3465C28.9055 24.3466 28.8274 24.3361 28.7518 24.3155L12.2676 19.8698C12.041 19.8084 11.8479 19.6595 11.7308 19.4559C11.6137 19.2523 11.5821 19.0106 11.643 18.7837L12.42 15.904C12.4315 15.8611 12.4514 15.8209 12.4784 15.7857C12.5055 15.7505 12.5392 15.721 12.5777 15.6989C12.6161 15.6767 12.6586 15.6624 12.7026 15.6566C12.7466 15.6509 12.7913 15.6539 12.8342 15.6655L30.3764 20.3952C30.4629 20.4185 30.5366 20.4751 30.5814 20.5527C30.6261 20.6303 30.6382 20.7225 30.6149 20.809L29.8379 23.6894C29.7871 23.8773 29.676 24.0433 29.5216 24.1618C29.3672 24.2803 29.1781 24.3447 28.9835 24.3452L28.9839 24.3465ZM12.9842 16.406L12.297 18.9597C12.2826 19.0136 12.29 19.0709 12.3177 19.1193C12.3455 19.1677 12.3912 19.2031 12.445 19.2178L28.9278 23.6621C28.9816 23.6762 29.0388 23.6685 29.0871 23.6408C29.1353 23.613 29.1707 23.5674 29.1856 23.5138L29.8744 20.9597L12.9842 16.406Z" fill="white"/>
<path d="M31.0851 23.7105C31.0075 23.7105 30.9302 23.7003 30.8553 23.6801L29.5837 23.3372C29.5409 23.3256 29.5007 23.3057 29.4656 23.2787C29.4304 23.2516 29.4009 23.2179 29.3788 23.1794C29.3567 23.141 29.3424 23.0985 29.3367 23.0545C29.331 23.0105 29.334 22.9658 29.3455 22.923L29.9624 20.6348C29.9722 20.5987 29.9879 20.5644 30.009 20.5335L32.4824 16.8824C32.522 16.8245 32.5788 16.7803 32.6447 16.7561C32.7106 16.7318 32.7825 16.7288 32.8503 16.7473L33.7499 16.9899C33.876 17.0239 33.993 17.0854 34.0926 17.17C34.1922 17.2545 34.2718 17.3601 34.3258 17.479C34.3798 17.5979 34.4069 17.7273 34.405 17.8579C34.4032 17.9885 34.3725 18.1171 34.3151 18.2345L31.8827 23.2152C31.8093 23.3641 31.6957 23.4894 31.5547 23.5769C31.4137 23.6645 31.251 23.7107 31.0851 23.7105ZM30.0857 22.773L31.0317 23.0277C31.0788 23.0402 31.1288 23.036 31.1731 23.0159C31.2175 22.9957 31.2536 22.9609 31.2753 22.9172L33.7077 17.9362C33.7214 17.9083 33.7287 17.8777 33.7291 17.8466C33.7295 17.8155 33.723 17.7848 33.7101 17.7565C33.6971 17.7283 33.6781 17.7032 33.6543 17.6832C33.6305 17.6632 33.6026 17.6488 33.5726 17.6409L32.9053 17.4605L30.6003 20.8652L30.0857 22.773Z" fill="white"/>
<path d="M30.2892 21.0608C30.2594 21.0608 30.2298 21.0569 30.201 21.0493L11.7716 16.0787C11.5451 16.0172 11.3522 15.8682 11.2354 15.6645C11.1187 15.4608 11.0876 15.2191 11.149 14.9925L12.3166 10.6554C12.3468 10.543 12.399 10.4377 12.47 10.3454C12.541 10.2532 12.6295 10.1759 12.7304 10.1179C12.8313 10.0599 12.9426 10.0223 13.058 10.0073C13.1735 9.99239 13.2907 10.0003 13.403 10.0307L32.949 15.301C33.0852 15.3377 33.2106 15.4064 33.3149 15.5014C33.4191 15.5964 33.4992 15.715 33.5484 15.8472C33.5975 15.9794 33.6144 16.1214 33.5976 16.2615C33.5808 16.4015 33.5308 16.5355 33.4517 16.6523L30.5689 20.9091C30.5383 20.9554 30.4968 20.9935 30.448 21.0199C30.3993 21.0464 30.3447 21.0604 30.2892 21.0608ZM13.172 10.676C13.1258 10.676 13.0809 10.6912 13.0443 10.7193C13.0077 10.7474 12.9813 10.7868 12.9693 10.8314L11.7997 15.1685C11.7924 15.1952 11.7905 15.223 11.794 15.2504C11.7976 15.2778 11.8065 15.3043 11.8203 15.3282C11.834 15.3522 11.8524 15.3732 11.8743 15.39C11.8963 15.4068 11.9213 15.4192 11.948 15.4263L30.1446 20.3337L32.8922 16.2756C32.911 16.2479 32.9228 16.2161 32.9268 16.1828C32.9308 16.1496 32.9268 16.1159 32.9151 16.0845C32.9035 16.0531 32.8845 16.025 32.8598 16.0024C32.835 15.9798 32.8053 15.9635 32.773 15.9547L13.227 10.6831C13.2091 10.6784 13.1905 10.676 13.172 10.676Z" fill="white"/>
<path d="M22.2752 24.4234C22.2454 24.4234 22.2158 24.4195 22.187 24.4119L18.1272 23.3169C18.0428 23.2942 17.9705 23.2396 17.9255 23.1646C17.8805 23.0896 17.8664 23.0001 17.886 22.9149L18.2914 21.1582C18.3016 21.1139 18.3207 21.0722 18.3474 21.0355C18.3741 20.9988 18.408 20.9679 18.4469 20.9445C18.4859 20.9212 18.5291 20.9059 18.5741 20.8997C18.619 20.8935 18.6648 20.8963 18.7086 20.9082L22.7792 22.0061C22.8643 22.029 22.937 22.0842 22.9819 22.16C23.0268 22.2357 23.0404 22.326 23.0198 22.4115L22.6036 24.1659C22.586 24.2399 22.544 24.3058 22.4844 24.3529C22.4247 24.4001 22.3509 24.4257 22.2749 24.4257L22.2752 24.4234ZM18.6178 22.7501L22.0272 23.6686L22.2874 22.572L18.8718 21.6507L18.6178 22.7501Z" fill="white"/>
<path d="M19.1415 29.2366H14.1483C14.0587 29.2366 13.9727 29.201 13.9094 29.1377C13.846 29.0743 13.8104 28.9884 13.8104 28.8988V27.5434C13.8104 27.4538 13.846 27.3678 13.9094 27.3045C13.9727 27.2411 14.0587 27.2055 14.1483 27.2055H19.1415C19.1562 27.2055 19.1702 27.1996 19.1806 27.1892C19.191 27.1788 19.1968 27.1648 19.1969 27.1501V23.3468C19.1969 23.2949 19.2088 23.2437 19.2318 23.1972C19.2547 23.1507 19.288 23.1101 19.3292 23.0785C19.3704 23.047 19.4182 23.0253 19.4691 23.0152C19.52 23.0051 19.5725 23.0069 19.6226 23.0204L20.9773 23.3859C21.049 23.4053 21.1122 23.4477 21.1574 23.5067C21.2025 23.5656 21.227 23.6377 21.227 23.712V27.1501C21.2266 27.7032 21.0068 28.2336 20.6158 28.6247C20.2248 29.0159 19.6946 29.236 19.1415 29.2366ZM14.4861 28.5609H19.1415C19.5153 28.5605 19.8736 28.4118 20.1379 28.1475C20.4022 27.8832 20.5509 27.5249 20.5513 27.1511V23.9707L19.8726 23.7876V27.1501C19.8723 27.3439 19.7952 27.5297 19.6582 27.6668C19.5211 27.8038 19.3353 27.8809 19.1415 27.8812H14.4861V28.5609Z" fill="white"/>
<path d="M12.0978 32.173C12.0082 32.173 11.9223 32.1374 11.859 32.074C11.7956 32.0107 11.76 31.9247 11.76 31.8351V24.6054C11.76 24.5158 11.7956 24.4299 11.859 24.3665C11.9223 24.3032 12.0082 24.2676 12.0978 24.2676C12.7311 24.2684 13.3382 24.5203 13.786 24.9682C14.2338 25.416 14.4856 26.0231 14.4864 26.6564V29.7841C14.4856 30.4174 14.2338 31.0246 13.786 31.4724C13.3382 31.9202 12.7311 32.1722 12.0978 32.173ZM12.4357 24.977V31.4635C12.8233 31.385 13.172 31.175 13.4225 30.8689C13.6731 30.5629 13.8102 30.1797 13.8107 29.7841V26.6568C13.8102 26.2612 13.673 25.878 13.4225 25.5719C13.1719 25.2658 12.8233 25.0557 12.4357 24.977Z" fill="white"/>
</svg>
